%TF.GenerationSoftware,KiCad,Pcbnew,9.0.9-9.0.9~ubuntu24.04.1*%
%TF.CreationDate,2026-08-30T22:08:17-06:00*%
%TF.ProjectId,Panel_PCB,50616e65-6c5f-4504-9342-2e6b69636164,rev?*%
%TF.SameCoordinates,Original*%
%TF.FileFunction,Copper,L2,Bot*%
%TF.FilePolarity,Positive*%
%FSLAX46Y46*%
G04 Gerber Fmt 4.6, Leading zero omitted, Abs format (unit mm)*
G04 Created by KiCad (PCBNEW 9.0.9-9.0.9~ubuntu24.04.1) date 2026-08-30 22:08:17*
%MOMM*%
%LPD*%
G01*
G04 APERTURE LIST*
G04 Aperture macros list*
%AMRoundRect*
0 Rectangle with rounded corners*
0 $1 Rounding radius*
0 $2 $3 $4 $5 $6 $7 $8 $9 X,Y pos of 4 corners*
0 Add a 4 corners polygon primitive as box body*
4,1,4,$2,$3,$4,$5,$6,$7,$8,$9,$2,$3,0*
0 Add four circle primitives for the rounded corners*
1,1,$1+$1,$2,$3*
1,1,$1+$1,$4,$5*
1,1,$1+$1,$6,$7*
1,1,$1+$1,$8,$9*
0 Add four rect primitives between the rounded corners*
20,1,$1+$1,$2,$3,$4,$5,0*
20,1,$1+$1,$4,$5,$6,$7,0*
20,1,$1+$1,$6,$7,$8,$9,0*
20,1,$1+$1,$8,$9,$2,$3,0*%
G04 Aperture macros list end*
%TA.AperFunction,ComponentPad*%
%ADD10C,3.800000*%
%TD*%
%TA.AperFunction,ComponentPad*%
%ADD11RoundRect,0.250000X0.550000X-0.550000X0.550000X0.550000X-0.550000X0.550000X-0.550000X-0.550000X0*%
%TD*%
%TA.AperFunction,ComponentPad*%
%ADD12C,1.600000*%
%TD*%
%TA.AperFunction,ComponentPad*%
%ADD13R,1.300000X1.300000*%
%TD*%
%TA.AperFunction,ComponentPad*%
%ADD14C,1.300000*%
%TD*%
%TA.AperFunction,ComponentPad*%
%ADD15RoundRect,0.250000X-0.750000X0.750000X-0.750000X-0.750000X0.750000X-0.750000X0.750000X0.750000X0*%
%TD*%
%TA.AperFunction,ComponentPad*%
%ADD16C,2.000000*%
%TD*%
%TA.AperFunction,ComponentPad*%
%ADD17R,1.905000X2.000000*%
%TD*%
%TA.AperFunction,ComponentPad*%
%ADD18O,1.905000X2.000000*%
%TD*%
%TA.AperFunction,ComponentPad*%
%ADD19RoundRect,0.249999X-0.850001X0.850001X-0.850001X-0.850001X0.850001X-0.850001X0.850001X0.850001X0*%
%TD*%
%TA.AperFunction,ComponentPad*%
%ADD20C,2.200000*%
%TD*%
%TA.AperFunction,ComponentPad*%
%ADD21RoundRect,0.250000X-0.550000X0.550000X-0.550000X-0.550000X0.550000X-0.550000X0.550000X0.550000X0*%
%TD*%
%TA.AperFunction,ComponentPad*%
%ADD22RoundRect,0.250000X-0.750000X-0.750000X0.750000X-0.750000X0.750000X0.750000X-0.750000X0.750000X0*%
%TD*%
%TA.AperFunction,ComponentPad*%
%ADD23RoundRect,0.250000X-0.550000X-0.550000X0.550000X-0.550000X0.550000X0.550000X-0.550000X0.550000X0*%
%TD*%
%TA.AperFunction,ComponentPad*%
%ADD24RoundRect,0.250000X-1.050000X-1.050000X1.050000X-1.050000X1.050000X1.050000X-1.050000X1.050000X0*%
%TD*%
%TA.AperFunction,ComponentPad*%
%ADD25C,2.600000*%
%TD*%
%TA.AperFunction,ComponentPad*%
%ADD26C,1.000000*%
%TD*%
%TA.AperFunction,ComponentPad*%
%ADD27C,3.000000*%
%TD*%
%TA.AperFunction,ComponentPad*%
%ADD28C,2.500000*%
%TD*%
%TA.AperFunction,ComponentPad*%
%ADD29RoundRect,0.250000X-1.050000X1.050000X-1.050000X-1.050000X1.050000X-1.050000X1.050000X1.050000X0*%
%TD*%
%TA.AperFunction,ComponentPad*%
%ADD30RoundRect,0.250500X0.499500X0.499500X-0.499500X0.499500X-0.499500X-0.499500X0.499500X-0.499500X0*%
%TD*%
%TA.AperFunction,ComponentPad*%
%ADD31C,1.500000*%
%TD*%
%TA.AperFunction,ComponentPad*%
%ADD32RoundRect,0.250000X0.750000X-0.750000X0.750000X0.750000X-0.750000X0.750000X-0.750000X-0.750000X0*%
%TD*%
%TA.AperFunction,ComponentPad*%
%ADD33RoundRect,0.249999X-0.850001X-0.850001X0.850001X-0.850001X0.850001X0.850001X-0.850001X0.850001X0*%
%TD*%
%TA.AperFunction,ComponentPad*%
%ADD34RoundRect,0.250000X1.050000X1.050000X-1.050000X1.050000X-1.050000X-1.050000X1.050000X-1.050000X0*%
%TD*%
%TA.AperFunction,ComponentPad*%
%ADD35RoundRect,0.249999X0.850001X-0.850001X0.850001X0.850001X-0.850001X0.850001X-0.850001X-0.850001X0*%
%TD*%
%TA.AperFunction,ComponentPad*%
%ADD36RoundRect,0.249999X0.850001X0.850001X-0.850001X0.850001X-0.850001X-0.850001X0.850001X-0.850001X0*%
%TD*%
%TA.AperFunction,ComponentPad*%
%ADD37C,2.400000*%
%TD*%
%TA.AperFunction,ComponentPad*%
%ADD38R,2.500000X2.500000*%
%TD*%
%TA.AperFunction,ComponentPad*%
%ADD39O,2.500000X2.500000*%
%TD*%
%TA.AperFunction,ViaPad*%
%ADD40C,0.600000*%
%TD*%
%TA.AperFunction,Conductor*%
%ADD41C,0.200000*%
%TD*%
G04 APERTURE END LIST*
D10*
%TO.P,h1,1*%
%TO.N,N/C*%
X-60700000Y-107500000D03*
%TD*%
%TO.P,h1,1*%
%TO.N,N/C*%
X-61000000Y10100000D03*
%TD*%
%TO.P,h1,1*%
%TO.N,N/C*%
X217500000Y-105500000D03*
%TD*%
%TO.P,h1,1*%
%TO.N,N/C*%
X216300000Y7300000D03*
%TD*%
D11*
%TO.P,U4,1*%
%TO.N,Net-(R23-Pad2)*%
X209065000Y-43550000D03*
D12*
%TO.P,U4,2*%
%TO.N,Net-(D19-A)*%
X211605000Y-43550000D03*
%TO.P,U4,3*%
%TO.N,Net-(R14-Pad1)*%
X211605000Y-35930000D03*
%TO.P,U4,4*%
%TO.N,Net-(R10-Pad2)*%
X209065000Y-35930000D03*
%TD*%
D11*
%TO.P,U3,1*%
%TO.N,Net-(R22-Pad2)*%
X169835000Y-45450000D03*
D12*
%TO.P,U3,2*%
%TO.N,Net-(D19-A)*%
X172375000Y-45450000D03*
%TO.P,U3,3*%
%TO.N,Net-(R13-Pad1)*%
X172375000Y-37830000D03*
%TO.P,U3,4*%
%TO.N,Net-(R8-Pad2)*%
X169835000Y-37830000D03*
%TD*%
D11*
%TO.P,U2,1*%
%TO.N,Net-(R20-Pad2)*%
X129935000Y-43750000D03*
D12*
%TO.P,U2,2*%
%TO.N,Net-(D19-A)*%
X132475000Y-43750000D03*
%TO.P,U2,3*%
%TO.N,Net-(R12-Pad1)*%
X132475000Y-36130000D03*
%TO.P,U2,4*%
%TO.N,Net-(R6-Pad2)*%
X129935000Y-36130000D03*
%TD*%
D11*
%TO.P,U1,1*%
%TO.N,Net-(R1-Pad2)*%
X93635000Y-44350000D03*
D12*
%TO.P,U1,2*%
%TO.N,Net-(D19-A)*%
X96175000Y-44350000D03*
%TO.P,U1,3*%
%TO.N,Net-(R11-Pad2)*%
X96175000Y-36730000D03*
%TO.P,U1,4*%
%TO.N,Net-(R4-Pad2)*%
X93635000Y-36730000D03*
%TD*%
D13*
%TO.P,Q2,1,E*%
%TO.N,Net-(Q2-E)*%
X129160000Y-56200000D03*
D14*
%TO.P,Q2,2,B*%
%TO.N,Net-(Q2-B)*%
X130430000Y-54930000D03*
%TO.P,Q2,3,C*%
%TO.N,Net-(D4-A)*%
X131700000Y-56200000D03*
%TD*%
D15*
%TO.P,J12,1,Pin_1*%
%TO.N,unconnected-(J12-Pin_1-Pad1)*%
X46500000Y-47280000D03*
D16*
%TO.P,J12,2,Pin_2*%
%TO.N,Net-(D19-A)*%
X46500000Y-49820000D03*
%TO.P,J12,3,Pin_3*%
%TO.N,unconnected-(J12-Pin_3-Pad3)*%
X46500000Y-52360000D03*
%TO.P,J12,4,Pin_4*%
%TO.N,unconnected-(J12-Pin_4-Pad4)*%
X46500000Y-54900000D03*
%TO.P,J12,5,Pin_5*%
%TO.N,unconnected-(J12-Pin_5-Pad5)*%
X46500000Y-57440000D03*
%TO.P,J12,6,Pin_6*%
%TO.N,unconnected-(J12-Pin_6-Pad6)*%
X46500000Y-59980000D03*
%TO.P,J12,7,Pin_7*%
%TO.N,unconnected-(J12-Pin_7-Pad7)*%
X46500000Y-62520000D03*
%TO.P,J12,8,Pin_8*%
%TO.N,unconnected-(J12-Pin_8-Pad8)*%
X46500000Y-65060000D03*
%TO.P,J12,9,Pin_9*%
%TO.N,Net-(J12-Pin_9)*%
X46500000Y-67600000D03*
%TO.P,J12,10,Pin_10*%
%TO.N,unconnected-(J12-Pin_10-Pad10)*%
X46500000Y-70140000D03*
%TO.P,J12,11,Pin_11*%
%TO.N,Net-(J12-Pin_11)*%
X46500000Y-72680000D03*
%TO.P,J12,12,Pin_12*%
%TO.N,unconnected-(J12-Pin_12-Pad12)*%
X46500000Y-75220000D03*
%TO.P,J12,13,Pin_13*%
%TO.N,unconnected-(J12-Pin_13-Pad13)*%
X46500000Y-77760000D03*
%TO.P,J12,14,Pin_14*%
%TO.N,Net-(J12-Pin_11)*%
X46500000Y-80300000D03*
%TO.P,J12,15,Pin_15*%
%TO.N,Net-(J12-Pin_15)*%
X46500000Y-82840000D03*
%TD*%
D12*
%TO.P,R19,1*%
%TO.N,Net-(Q7-B)*%
X-10900000Y-38900000D03*
%TO.P,R19,2*%
%TO.N,Net-(J12-Pin_9)*%
X1800000Y-38900000D03*
%TD*%
D17*
%TO.P,U7,1,VI*%
%TO.N,Net-(D12-A)*%
X-10700000Y-65700000D03*
D18*
%TO.P,U7,2,GND*%
%TO.N,Net-(D19-A)*%
X-13240000Y-65700000D03*
%TO.P,U7,3,VO*%
%TO.N,Net-(J15-Pin_2)*%
X-15780000Y-65700000D03*
%TD*%
D19*
%TO.P,D7,1,K*%
%TO.N,Net-(D12-A)*%
X-47300000Y-64200000D03*
D20*
%TO.P,D7,2,A*%
%TO.N,Net-(D7-A)*%
X-47300000Y-74360000D03*
%TD*%
D21*
%TO.P,U13,1,GND*%
%TO.N,Net-(U13-GND)*%
X280000Y-4100000D03*
D12*
%TO.P,U13,2,+*%
%TO.N,Net-(J2-Pin_1)*%
X-2260000Y-4100000D03*
%TO.P,U13,3,-*%
%TO.N,Net-(D13-K)*%
X-4800000Y-4100000D03*
%TO.P,U13,4,V-*%
%TO.N,Net-(D19-A)*%
X-7340000Y-4100000D03*
%TO.P,U13,5,BAL*%
%TO.N,unconnected-(U13-BAL-Pad5)*%
X-7340000Y-11720000D03*
%TO.P,U13,6,STRB*%
%TO.N,unconnected-(U13-STRB-Pad6)*%
X-4800000Y-11720000D03*
%TO.P,U13,7*%
%TO.N,Net-(R18-Pad2)*%
X-2260000Y-11720000D03*
%TO.P,U13,8,V+*%
%TO.N,Net-(D12-K)*%
X280000Y-11720000D03*
%TD*%
D19*
%TO.P,D12,1,K*%
%TO.N,Net-(D12-K)*%
X8180000Y-14660000D03*
D20*
%TO.P,D12,2,A*%
%TO.N,Net-(D12-A)*%
X8180000Y-24820000D03*
%TD*%
D12*
%TO.P,R8,1*%
%TO.N,Net-(D12-A)*%
X165500000Y-20040000D03*
%TO.P,R8,2*%
%TO.N,Net-(R8-Pad2)*%
X165500000Y-30200000D03*
%TD*%
D17*
%TO.P,U8,1,VI*%
%TO.N,Net-(D12-A)*%
X-10700000Y-85000000D03*
D18*
%TO.P,U8,2,GND*%
%TO.N,Net-(D19-A)*%
X-13240000Y-85000000D03*
%TO.P,U8,3,VO*%
%TO.N,Net-(J12-Pin_11)*%
X-15780000Y-85000000D03*
%TD*%
D22*
%TO.P,J15,1,Pin_1*%
%TO.N,Net-(D19-A)*%
X192500000Y2600000D03*
D16*
%TO.P,J15,2,Pin_2*%
%TO.N,Net-(J15-Pin_2)*%
X195040000Y2600000D03*
%TO.P,J15,3,Pin_3*%
%TO.N,Net-(J15-Pin_3)*%
X197580000Y2600000D03*
%TO.P,J15,4,Pin_4*%
%TO.N,Net-(J15-Pin_4)*%
X200120000Y2600000D03*
%TO.P,J15,5,Pin_5*%
%TO.N,Net-(J15-Pin_5)*%
X202660000Y2600000D03*
%TO.P,J15,6,Pin_6*%
%TO.N,Net-(J15-Pin_6)*%
X205200000Y2600000D03*
%TO.P,J15,7,Pin_7*%
%TO.N,unconnected-(J15-Pin_7-Pad7)*%
X207740000Y2600000D03*
%TD*%
%TO.P,C5,1*%
%TO.N,Net-(D12-A)*%
X-13000000Y-96000000D03*
%TO.P,C5,2*%
%TO.N,Net-(D19-A)*%
X-13000000Y-103500000D03*
%TD*%
D23*
%TO.P,U12,1,X1*%
%TO.N,Net-(U12-X1)*%
X15200000Y-45500000D03*
D12*
%TO.P,U12,2,X2*%
%TO.N,Net-(U12-X2)*%
X15200000Y-48040000D03*
%TO.P,U12,3,VBAT*%
%TO.N,Net-(BT1-+)*%
X15200000Y-50580000D03*
%TO.P,U12,4,GND*%
%TO.N,Net-(BT1--)*%
X15200000Y-53120000D03*
%TO.P,U12,5,SDA*%
%TO.N,Net-(U12-SDA)*%
X22820000Y-53120000D03*
%TO.P,U12,6,SCL*%
%TO.N,Net-(U12-SCL)*%
X22820000Y-50580000D03*
%TO.P,U12,7,SQW/OUT*%
%TO.N,unconnected-(U12-SQW{slash}OUT-Pad7)*%
X22820000Y-48040000D03*
%TO.P,U12,8,VCC*%
%TO.N,Net-(J12-Pin_11)*%
X22820000Y-45500000D03*
%TD*%
D24*
%TO.P,J4,1,Pin_1*%
%TO.N,Net-(J3-Pin_1)*%
X97540000Y2000000D03*
D25*
%TO.P,J4,2,Pin_2*%
%TO.N,Net-(J13-Pin_5)*%
X102620000Y2000000D03*
%TD*%
D12*
%TO.P,R4,1*%
%TO.N,Net-(D12-A)*%
X90500000Y-20140000D03*
%TO.P,R4,2*%
%TO.N,Net-(R4-Pad2)*%
X90500000Y-30300000D03*
%TD*%
D26*
%TO.P,Y1,1,1*%
%TO.N,Net-(U12-X1)*%
X11450000Y-42255000D03*
%TO.P,Y1,2,2*%
%TO.N,Net-(U12-X2)*%
X9550000Y-42255000D03*
%TD*%
D27*
%TO.P,K2,1*%
%TO.N,Net-(J9-Pin_2)*%
X122000000Y-80450000D03*
D28*
%TO.P,K2,2*%
%TO.N,Net-(D4-A)*%
X123950000Y-86500000D03*
D27*
%TO.P,K2,3*%
%TO.N,Net-(J9-Pin_1)*%
X136150000Y-86500000D03*
%TO.P,K2,4*%
%TO.N,unconnected-(K2-Pad4)*%
X136200000Y-74450000D03*
D28*
%TO.P,K2,5*%
%TO.N,Net-(D12-A)*%
X123950000Y-74500000D03*
%TD*%
D12*
%TO.P,R10,1*%
%TO.N,Net-(D12-A)*%
X205300000Y-19540000D03*
%TO.P,R10,2*%
%TO.N,Net-(R10-Pad2)*%
X205300000Y-29700000D03*
%TD*%
D29*
%TO.P,J1,1,Pin_1*%
%TO.N,Net-(D19-A)*%
X-60000000Y-94000000D03*
D25*
%TO.P,J1,2,Pin_2*%
%TO.N,Net-(J1-Pin_2)*%
X-60000000Y-99080000D03*
%TD*%
D12*
%TO.P,C3,1*%
%TO.N,Net-(J13-Pin_3)*%
X26800000Y-26500000D03*
%TO.P,C3,2*%
%TO.N,Net-(D19-A)*%
X24300000Y-26500000D03*
%TD*%
%TO.P,C8,1*%
%TO.N,Net-(J15-Pin_2)*%
X-17450000Y-60400000D03*
%TO.P,C8,2*%
%TO.N,Net-(D19-A)*%
X-14950000Y-60400000D03*
%TD*%
%TO.P,C13,1*%
%TO.N,Net-(J15-Pin_2)*%
X5500000Y-59800000D03*
%TO.P,C13,2*%
%TO.N,Net-(D19-A)*%
X8000000Y-59800000D03*
%TD*%
D19*
%TO.P,D14,1,K*%
%TO.N,Net-(D13-A)*%
X8180000Y540000D03*
D20*
%TO.P,D14,2,A*%
%TO.N,Net-(D12-K)*%
X8180000Y-9620000D03*
%TD*%
D12*
%TO.P,R26,1*%
%TO.N,Net-(U13-GND)*%
X2700000Y6500000D03*
%TO.P,R26,2*%
%TO.N,Net-(D19-A)*%
X-10000000Y6500000D03*
%TD*%
D13*
%TO.P,Q7,1,E*%
%TO.N,Net-(Q7-E)*%
X-19470000Y-44730000D03*
D14*
%TO.P,Q7,2,B*%
%TO.N,Net-(Q7-B)*%
X-18200000Y-46000000D03*
%TO.P,Q7,3,C*%
%TO.N,Net-(D16-A)*%
X-19470000Y-47270000D03*
%TD*%
D24*
%TO.P,J14,1,Pin_1*%
%TO.N,Net-(J14-Pin_1)*%
X164820000Y1800000D03*
D25*
%TO.P,J14,2,Pin_2*%
%TO.N,Net-(D8-K)*%
X169900000Y1800000D03*
%TD*%
D30*
%TO.P,K5,1*%
%TO.N,Net-(D1-K)*%
X-44220000Y-92800000D03*
D31*
%TO.P,K5,3*%
%TO.N,unconnected-(K5-Pad3)*%
X-44220000Y-87720000D03*
%TO.P,K5,4*%
%TO.N,Net-(D1-K)*%
X-44220000Y-85180000D03*
%TO.P,K5,5*%
%TO.N,Net-(D12-A)*%
X-44220000Y-82640000D03*
%TO.P,K5,8*%
%TO.N,unconnected-(K5-Pad8)*%
X-49300000Y-82640000D03*
%TO.P,K5,9*%
%TO.N,Net-(D7-A)*%
X-49300000Y-85180000D03*
%TO.P,K5,10*%
%TO.N,Net-(J2-Pin_1)*%
X-49300000Y-87720000D03*
%TO.P,K5,12*%
%TO.N,Net-(D19-A)*%
X-49300000Y-92800000D03*
%TD*%
D12*
%TO.P,R15,1*%
%TO.N,Net-(BT1--)*%
X57500000Y-104860000D03*
%TO.P,R15,2*%
%TO.N,Net-(J13-Pin_5)*%
X57500000Y-94700000D03*
%TD*%
D17*
%TO.P,U6,1,GND*%
%TO.N,Net-(D19-A)*%
X24900000Y-20400000D03*
D18*
%TO.P,U6,2,VO*%
%TO.N,Net-(J13-Pin_3)*%
X27440000Y-20400000D03*
%TO.P,U6,3,VI*%
%TO.N,Net-(U5-VO)*%
X29980000Y-20400000D03*
%TD*%
D12*
%TO.P,C10,1*%
%TO.N,Net-(J12-Pin_11)*%
X13900000Y-79000000D03*
%TO.P,C10,2*%
%TO.N,Net-(D19-A)*%
X11400000Y-79000000D03*
%TD*%
%TO.P,R22,1*%
%TO.N,Net-(J13-Pin_7)*%
X162000000Y-39240000D03*
%TO.P,R22,2*%
%TO.N,Net-(R22-Pad2)*%
X162000000Y-49400000D03*
%TD*%
D24*
%TO.P,J6,1,Pin_1*%
%TO.N,Net-(J14-Pin_1)*%
X136940000Y1400000D03*
D25*
%TO.P,J6,2,Pin_2*%
%TO.N,Net-(D2-K)*%
X142020000Y1400000D03*
%TD*%
D32*
%TO.P,J13,1,Pin_1*%
%TO.N,unconnected-(J13-Pin_1-Pad1)*%
X71900000Y-82800000D03*
D16*
%TO.P,J13,2,Pin_2*%
%TO.N,unconnected-(J13-Pin_2-Pad2)*%
X71900000Y-80260000D03*
%TO.P,J13,3,Pin_3*%
%TO.N,Net-(J13-Pin_3)*%
X71900000Y-77720000D03*
%TO.P,J13,4,Pin_4*%
%TO.N,Net-(J13-Pin_4)*%
X71900000Y-75180000D03*
%TO.P,J13,5,Pin_5*%
%TO.N,Net-(J13-Pin_5)*%
X71900000Y-72640000D03*
%TO.P,J13,6,Pin_6*%
%TO.N,Net-(J13-Pin_6)*%
X71900000Y-70100000D03*
%TO.P,J13,7,Pin_7*%
%TO.N,Net-(J13-Pin_7)*%
X71900000Y-67560000D03*
%TO.P,J13,8,Pin_8*%
%TO.N,Net-(J13-Pin_8)*%
X71900000Y-65020000D03*
%TO.P,J13,9,Pin_9*%
%TO.N,Net-(D9-K)*%
X71900000Y-62480000D03*
%TO.P,J13,10,Pin_10*%
%TO.N,Net-(D2-K)*%
X71900000Y-59940000D03*
%TO.P,J13,11,Pin_11*%
%TO.N,Net-(D10-K)*%
X71900000Y-57400000D03*
%TO.P,J13,12,Pin_12*%
%TO.N,unconnected-(J13-Pin_12-Pad12)*%
X71900000Y-54860000D03*
%TO.P,J13,13,Pin_13*%
%TO.N,Net-(D8-K)*%
X71900000Y-52320000D03*
%TO.P,J13,14,Pin_14*%
%TO.N,Net-(BT1--)*%
X71900000Y-49780000D03*
%TO.P,J13,15,Pin_15*%
%TO.N,Net-(J12-Pin_11)*%
X71900000Y-47240000D03*
%TD*%
D33*
%TO.P,D16,1,K*%
%TO.N,Net-(D1-K)*%
X-38100000Y-67900000D03*
D20*
%TO.P,D16,2,A*%
%TO.N,Net-(D16-A)*%
X-27940000Y-67900000D03*
%TD*%
D12*
%TO.P,R1,1*%
%TO.N,Net-(J12-Pin_15)*%
X82000000Y-39840000D03*
%TO.P,R1,2*%
%TO.N,Net-(R1-Pad2)*%
X82000000Y-50000000D03*
%TD*%
D34*
%TO.P,J9,1,Pin_1*%
%TO.N,Net-(J9-Pin_1)*%
X130000000Y-101000000D03*
D25*
%TO.P,J9,2,Pin_2*%
%TO.N,Net-(J9-Pin_2)*%
X124920000Y-101000000D03*
%TD*%
D35*
%TO.P,D4,1,K*%
%TO.N,Net-(D12-A)*%
X122000000Y-66060000D03*
D20*
%TO.P,D4,2,A*%
%TO.N,Net-(D4-A)*%
X122000000Y-55900000D03*
%TD*%
D12*
%TO.P,R23,1*%
%TO.N,Net-(J13-Pin_8)*%
X202000000Y-37740000D03*
%TO.P,R23,2*%
%TO.N,Net-(R23-Pad2)*%
X202000000Y-47900000D03*
%TD*%
%TO.P,C12,1*%
%TO.N,Net-(J3-Pin_1)*%
X-17400000Y-74500000D03*
%TO.P,C12,2*%
%TO.N,Net-(D19-A)*%
X-14900000Y-74500000D03*
%TD*%
D35*
%TO.P,D6,1,K*%
%TO.N,Net-(D12-A)*%
X202000000Y-65500000D03*
D20*
%TO.P,D6,2,A*%
%TO.N,Net-(D6-A)*%
X202000000Y-55340000D03*
%TD*%
D12*
%TO.P,R21,1*%
%TO.N,Net-(Q7-E)*%
X-19700000Y-39100000D03*
%TO.P,R21,2*%
%TO.N,Net-(D19-A)*%
X-19700000Y-26400000D03*
%TD*%
D34*
%TO.P,J10,1,Pin_1*%
%TO.N,Net-(J10-Pin_1)*%
X170000000Y-101000000D03*
D25*
%TO.P,J10,2,Pin_2*%
%TO.N,Net-(J10-Pin_2)*%
X164920000Y-101000000D03*
%TD*%
D12*
%TO.P,R3,1*%
%TO.N,Net-(Q1-E)*%
X87800000Y-64300000D03*
%TO.P,R3,2*%
%TO.N,Net-(D19-A)*%
X100500000Y-64300000D03*
%TD*%
D16*
%TO.P,C2,1*%
%TO.N,Net-(D12-A)*%
X34000000Y-96000000D03*
%TO.P,C2,2*%
%TO.N,Net-(D19-A)*%
X34000000Y-103500000D03*
%TD*%
D36*
%TO.P,D19,1,K*%
%TO.N,Net-(D1-K)*%
X-41040000Y-99900000D03*
D20*
%TO.P,D19,2,A*%
%TO.N,Net-(D19-A)*%
X-51200000Y-99900000D03*
%TD*%
D35*
%TO.P,D10,1,K*%
%TO.N,Net-(D10-K)*%
X68360000Y-25100000D03*
D20*
%TO.P,D10,2,A*%
%TO.N,Net-(D10-A)*%
X68360000Y-14940000D03*
%TD*%
D35*
%TO.P,D2,1,K*%
%TO.N,Net-(D2-K)*%
X42260000Y-25100000D03*
D20*
%TO.P,D2,2,A*%
%TO.N,Net-(D2-A)*%
X42260000Y-14940000D03*
%TD*%
D27*
%TO.P,F1,1*%
%TO.N,Net-(J1-Pin_2)*%
X-33600000Y-106250000D03*
%TO.P,F1,2*%
%TO.N,Net-(D1-A)*%
X-33600000Y-83750000D03*
%TD*%
D13*
%TO.P,Q1,1,E*%
%TO.N,Net-(Q1-E)*%
X88900000Y-57300000D03*
D14*
%TO.P,Q1,2,B*%
%TO.N,Net-(Q1-B)*%
X90170000Y-56030000D03*
%TO.P,Q1,3,C*%
%TO.N,Net-(D3-A)*%
X91440000Y-57300000D03*
%TD*%
D29*
%TO.P,J2,1,Pin_1*%
%TO.N,Net-(J2-Pin_1)*%
X-60000000Y-79400000D03*
D25*
%TO.P,J2,2,Pin_2*%
%TO.N,Net-(D19-A)*%
X-60000000Y-84480000D03*
%TD*%
D35*
%TO.P,D8,1,K*%
%TO.N,Net-(D8-K)*%
X51260000Y-25100000D03*
D20*
%TO.P,D8,2,A*%
%TO.N,Net-(D8-A)*%
X51260000Y-14940000D03*
%TD*%
D12*
%TO.P,C1,1*%
%TO.N,Net-(U5-VO)*%
X30700000Y-2100000D03*
%TO.P,C1,2*%
%TO.N,Net-(D19-A)*%
X28200000Y-2100000D03*
%TD*%
%TO.P,R25,1*%
%TO.N,Net-(U12-SDA)*%
X35100000Y-48000000D03*
%TO.P,R25,2*%
%TO.N,Net-(J12-Pin_11)*%
X35100000Y-37840000D03*
%TD*%
D17*
%TO.P,U10,1,GND*%
%TO.N,Net-(D19-A)*%
X12200000Y-65700000D03*
D18*
%TO.P,U10,2,VO*%
%TO.N,Net-(J14-Pin_1)*%
X9660000Y-65700000D03*
%TO.P,U10,3,VI*%
%TO.N,Net-(J15-Pin_2)*%
X7120000Y-65700000D03*
%TD*%
D17*
%TO.P,U5,1,VI*%
%TO.N,Net-(U13-GND)*%
X24900000Y-8600000D03*
D18*
%TO.P,U5,2,GND*%
%TO.N,Net-(D19-A)*%
X27440000Y-8600000D03*
%TO.P,U5,3,VO*%
%TO.N,Net-(U5-VO)*%
X29980000Y-8600000D03*
%TD*%
D27*
%TO.P,K3,1*%
%TO.N,Net-(J10-Pin_2)*%
X162000000Y-80450000D03*
D28*
%TO.P,K3,2*%
%TO.N,Net-(D5-A)*%
X163950000Y-86500000D03*
D27*
%TO.P,K3,3*%
%TO.N,Net-(J10-Pin_1)*%
X176150000Y-86500000D03*
%TO.P,K3,4*%
%TO.N,unconnected-(K3-Pad4)*%
X176200000Y-74450000D03*
D28*
%TO.P,K3,5*%
%TO.N,Net-(D12-A)*%
X163950000Y-74500000D03*
%TD*%
D35*
%TO.P,D9,1,K*%
%TO.N,Net-(D9-K)*%
X59760000Y-25100000D03*
D20*
%TO.P,D9,2,A*%
%TO.N,Net-(D9-A)*%
X59760000Y-14940000D03*
%TD*%
D24*
%TO.P,J7,1,Pin_1*%
%TO.N,Net-(J14-Pin_1)*%
X150920000Y1400000D03*
D25*
%TO.P,J7,2,Pin_2*%
%TO.N,Net-(D10-K)*%
X156000000Y1400000D03*
%TD*%
D34*
%TO.P,J11,1,Pin_1*%
%TO.N,Net-(J11-Pin_1)*%
X210000000Y-101000000D03*
D25*
%TO.P,J11,2,Pin_2*%
%TO.N,Net-(J11-Pin_2)*%
X204920000Y-101000000D03*
%TD*%
D12*
%TO.P,R6,1*%
%TO.N,Net-(D12-A)*%
X130600000Y-20140000D03*
%TO.P,R6,2*%
%TO.N,Net-(R6-Pad2)*%
X130600000Y-30300000D03*
%TD*%
D35*
%TO.P,D3,1,K*%
%TO.N,Net-(D12-A)*%
X82000000Y-67160000D03*
D20*
%TO.P,D3,2,A*%
%TO.N,Net-(D3-A)*%
X82000000Y-57000000D03*
%TD*%
D35*
%TO.P,D13,1,K*%
%TO.N,Net-(D13-K)*%
X-15220000Y-9620000D03*
D20*
%TO.P,D13,2,A*%
%TO.N,Net-(D13-A)*%
X-15220000Y540000D03*
%TD*%
D12*
%TO.P,R7,1*%
%TO.N,Net-(Q3-E)*%
X168800000Y-66200000D03*
%TO.P,R7,2*%
%TO.N,Net-(D19-A)*%
X181500000Y-66200000D03*
%TD*%
D33*
%TO.P,D1,1,K*%
%TO.N,Net-(D1-K)*%
X-38200000Y-74800000D03*
D20*
%TO.P,D1,2,A*%
%TO.N,Net-(D1-A)*%
X-28040000Y-74800000D03*
%TD*%
D12*
%TO.P,R2,1*%
%TO.N,Net-(BT1--)*%
X49500000Y-104900000D03*
%TO.P,R2,2*%
%TO.N,Net-(J13-Pin_4)*%
X49500000Y-94740000D03*
%TD*%
%TO.P,C14,1*%
%TO.N,Net-(J14-Pin_1)*%
X11400000Y-59800000D03*
%TO.P,C14,2*%
%TO.N,Net-(D19-A)*%
X13900000Y-59800000D03*
%TD*%
%TO.P,R24,1*%
%TO.N,Net-(J12-Pin_11)*%
X27500000Y-37840000D03*
%TO.P,R24,2*%
%TO.N,Net-(U12-SCL)*%
X27500000Y-48000000D03*
%TD*%
%TO.P,R17,1*%
%TO.N,Net-(J15-Pin_5)*%
X59760000Y1910000D03*
%TO.P,R17,2*%
%TO.N,Net-(D9-A)*%
X59760000Y-8250000D03*
%TD*%
D27*
%TO.P,K1,1*%
%TO.N,Net-(J8-Pin_2)*%
X82000000Y-80700000D03*
D28*
%TO.P,K1,2*%
%TO.N,Net-(D3-A)*%
X83950000Y-86750000D03*
D27*
%TO.P,K1,3*%
%TO.N,Net-(J8-Pin_1)*%
X96150000Y-86750000D03*
%TO.P,K1,4*%
%TO.N,unconnected-(K1-Pad4)*%
X96200000Y-74700000D03*
D28*
%TO.P,K1,5*%
%TO.N,Net-(D12-A)*%
X83950000Y-74750000D03*
%TD*%
D13*
%TO.P,Q3,1,E*%
%TO.N,Net-(Q3-E)*%
X169260000Y-58600000D03*
D14*
%TO.P,Q3,2,B*%
%TO.N,Net-(Q3-B)*%
X170530000Y-57330000D03*
%TO.P,Q3,3,C*%
%TO.N,Net-(D5-A)*%
X171800000Y-58600000D03*
%TD*%
D12*
%TO.P,R20,1*%
%TO.N,Net-(J13-Pin_6)*%
X122000000Y-36840000D03*
%TO.P,R20,2*%
%TO.N,Net-(R20-Pad2)*%
X122000000Y-47000000D03*
%TD*%
%TO.P,R27,1*%
%TO.N,Net-(J15-Pin_4)*%
X51460000Y2210000D03*
%TO.P,R27,2*%
%TO.N,Net-(D8-A)*%
X51460000Y-7950000D03*
%TD*%
%TO.P,R5,1*%
%TO.N,Net-(Q2-E)*%
X128400000Y-64800000D03*
%TO.P,R5,2*%
%TO.N,Net-(D19-A)*%
X141100000Y-64800000D03*
%TD*%
%TO.P,R9,1*%
%TO.N,Net-(Q4-E)*%
X206700000Y-64700000D03*
%TO.P,R9,2*%
%TO.N,Net-(D19-A)*%
X219400000Y-64700000D03*
%TD*%
%TO.P,R14,1*%
%TO.N,Net-(R14-Pad1)*%
X216800000Y-48720000D03*
%TO.P,R14,2*%
%TO.N,Net-(Q4-B)*%
X216800000Y-58880000D03*
%TD*%
D37*
%TO.P,R29,1*%
%TO.N,Net-(K6-Pad3)*%
X-60000000Y2740000D03*
%TO.P,R29,2*%
%TO.N,Net-(J2-Pin_1)*%
X-60000000Y-63300000D03*
%TD*%
D12*
%TO.P,R12,1*%
%TO.N,Net-(R12-Pad1)*%
X139500000Y-48740000D03*
%TO.P,R12,2*%
%TO.N,Net-(Q2-B)*%
X139500000Y-58900000D03*
%TD*%
%TO.P,C9,1*%
%TO.N,Net-(D12-A)*%
X-9200000Y-79000000D03*
%TO.P,C9,2*%
%TO.N,Net-(D19-A)*%
X-11700000Y-79000000D03*
%TD*%
D34*
%TO.P,J8,1,Pin_1*%
%TO.N,Net-(J8-Pin_1)*%
X90000000Y-101000000D03*
D25*
%TO.P,J8,2,Pin_2*%
%TO.N,Net-(J8-Pin_2)*%
X84920000Y-101000000D03*
%TD*%
D24*
%TO.P,J3,1,Pin_1*%
%TO.N,Net-(J3-Pin_1)*%
X84620000Y2200000D03*
D25*
%TO.P,J3,2,Pin_2*%
%TO.N,Net-(J13-Pin_4)*%
X89700000Y2200000D03*
%TD*%
D12*
%TO.P,C11,1*%
%TO.N,Net-(J15-Pin_2)*%
X5400000Y-74500000D03*
%TO.P,C11,2*%
%TO.N,Net-(D19-A)*%
X7900000Y-74500000D03*
%TD*%
%TO.P,R13,1*%
%TO.N,Net-(R13-Pad1)*%
X178200000Y-50040000D03*
%TO.P,R13,2*%
%TO.N,Net-(Q3-B)*%
X178200000Y-60200000D03*
%TD*%
D16*
%TO.P,C4,1*%
%TO.N,Net-(D12-A)*%
X11000000Y-96000000D03*
%TO.P,C4,2*%
%TO.N,Net-(D19-A)*%
X11000000Y-103500000D03*
%TD*%
D38*
%TO.P,K6,1*%
%TO.N,Net-(D1-A)*%
X-34900000Y-59500000D03*
D39*
%TO.P,K6,2*%
%TO.N,Net-(D16-A)*%
X-28900000Y-57500000D03*
%TO.P,K6,3*%
%TO.N,Net-(K6-Pad3)*%
X-28900000Y-45300000D03*
%TO.P,K6,4*%
%TO.N,unconnected-(K6-Pad4)*%
X-40900000Y-45300000D03*
%TO.P,K6,5*%
%TO.N,Net-(D1-K)*%
X-40900000Y-57500000D03*
%TD*%
D17*
%TO.P,U9,1,GND*%
%TO.N,Net-(D19-A)*%
X12200000Y-85000000D03*
D18*
%TO.P,U9,2,VO*%
%TO.N,Net-(J3-Pin_1)*%
X9660000Y-85000000D03*
%TO.P,U9,3,VI*%
%TO.N,Net-(J15-Pin_2)*%
X7120000Y-85000000D03*
%TD*%
D13*
%TO.P,Q4,1,E*%
%TO.N,Net-(Q4-E)*%
X207460000Y-56900000D03*
D14*
%TO.P,Q4,2,B*%
%TO.N,Net-(Q4-B)*%
X208730000Y-55630000D03*
%TO.P,Q4,3,C*%
%TO.N,Net-(D6-A)*%
X210000000Y-56900000D03*
%TD*%
D12*
%TO.P,R28,1*%
%TO.N,Net-(J15-Pin_3)*%
X42460000Y2410000D03*
%TO.P,R28,2*%
%TO.N,Net-(D2-A)*%
X42460000Y-7750000D03*
%TD*%
D24*
%TO.P,J5,1,Pin_1*%
%TO.N,Net-(J14-Pin_1)*%
X122740000Y1600000D03*
D25*
%TO.P,J5,2,Pin_2*%
%TO.N,Net-(D9-K)*%
X127820000Y1600000D03*
%TD*%
D12*
%TO.P,R18,1*%
%TO.N,Net-(D12-K)*%
X2400000Y-24100000D03*
%TO.P,R18,2*%
%TO.N,Net-(R18-Pad2)*%
X-10300000Y-24100000D03*
%TD*%
D35*
%TO.P,D5,1,K*%
%TO.N,Net-(D12-A)*%
X162000000Y-66360000D03*
D20*
%TO.P,D5,2,A*%
%TO.N,Net-(D5-A)*%
X162000000Y-56200000D03*
%TD*%
D12*
%TO.P,C7,1*%
%TO.N,Net-(D12-A)*%
X-9100000Y-60400000D03*
%TO.P,C7,2*%
%TO.N,Net-(D19-A)*%
X-11600000Y-60400000D03*
%TD*%
%TO.P,R11,1*%
%TO.N,Net-(Q1-B)*%
X101000000Y-58300000D03*
%TO.P,R11,2*%
%TO.N,Net-(R11-Pad2)*%
X101000000Y-48140000D03*
%TD*%
D27*
%TO.P,K4,1*%
%TO.N,Net-(J11-Pin_2)*%
X202000000Y-80450000D03*
D28*
%TO.P,K4,2*%
%TO.N,Net-(D6-A)*%
X203950000Y-86500000D03*
D27*
%TO.P,K4,3*%
%TO.N,Net-(J11-Pin_1)*%
X216150000Y-86500000D03*
%TO.P,K4,4*%
%TO.N,unconnected-(K4-Pad4)*%
X216200000Y-74450000D03*
D28*
%TO.P,K4,5*%
%TO.N,Net-(D12-A)*%
X203950000Y-74500000D03*
%TD*%
D12*
%TO.P,R16,1*%
%TO.N,Net-(J15-Pin_6)*%
X67660000Y2210000D03*
%TO.P,R16,2*%
%TO.N,Net-(D10-A)*%
X67660000Y-7950000D03*
%TD*%
D16*
%TO.P,C6,1*%
%TO.N,Net-(J12-Pin_11)*%
X28600000Y-81500000D03*
%TO.P,C6,2*%
%TO.N,Net-(D19-A)*%
X28600000Y-74000000D03*
%TD*%
D40*
%TO.N,Net-(D19-A)*%
X200480300Y-41238300D03*
X46848900Y-44718200D03*
%TO.N,Net-(R1-Pad2)*%
X93622000Y-47276100D03*
%TO.N,Net-(J13-Pin_6)*%
X75301400Y-47008500D03*
%TO.N,Net-(J12-Pin_15)*%
X47946600Y-44418600D03*
%TO.N,Net-(D9-K)*%
X125416000Y-23160500D03*
%TO.N,Net-(J13-Pin_4)*%
X50543500Y-79799500D03*
%TO.N,Net-(D8-K)*%
X74502700Y-19770300D03*
%TO.N,Net-(D2-K)*%
X67637700Y-32103500D03*
X140390500Y-23160500D03*
%TO.N,Net-(J14-Pin_1)*%
X12244400Y-25873700D03*
%TO.N,Net-(J3-Pin_1)*%
X14604700Y-20179500D03*
%TO.N,Net-(J13-Pin_5)*%
X71507800Y-91723500D03*
X78886200Y-3858700D03*
%TO.N,Net-(J15-Pin_2)*%
X194298700Y7048900D03*
X8614900Y-1401500D03*
%TO.N,Net-(J12-Pin_9)*%
X2625100Y-55951500D03*
%TO.N,Net-(J13-Pin_3)*%
X30118700Y-83165900D03*
%TO.N,Net-(D12-A)*%
X5620000Y-58221000D03*
%TO.N,Net-(BT1-+)*%
X-36224600Y-44097600D03*
%TO.N,Net-(BT1--)*%
X58845400Y-50889300D03*
X-33332300Y-50008000D03*
%TO.N,Net-(K6-Pad3)*%
X-30318800Y-2293500D03*
%TO.N,Net-(J2-Pin_1)*%
X-6359600Y-61913500D03*
%TO.N,Net-(D16-A)*%
X-21334100Y-53840500D03*
%TD*%
D41*
%TO.N,Net-(D19-A)*%
X-58800000Y-92800000D02*
X-60000000Y-94000000D01*
X-49300000Y-92800000D02*
X-58800000Y-92800000D01*
X-13000000Y-103500000D02*
X11000000Y-103500000D01*
X36520000Y-59800000D02*
X13900000Y-59800000D01*
X46500000Y-49820000D02*
X36520000Y-59800000D01*
X9135600Y-60935600D02*
X8000000Y-59800000D01*
X12764400Y-60935600D02*
X9135600Y-60935600D01*
X13900000Y-59800000D02*
X12764400Y-60935600D01*
X182249100Y-66949100D02*
X181500000Y-66200000D01*
X217150900Y-66949100D02*
X182249100Y-66949100D01*
X219400000Y-64700000D02*
X217150900Y-66949100D01*
X8400000Y-74000000D02*
X7900000Y-74500000D01*
X28600000Y-74000000D02*
X8400000Y-74000000D01*
X-5340000Y-2100000D02*
X-7340000Y-4100000D01*
X28200000Y-2100000D02*
X-5340000Y-2100000D01*
X-19600000Y-26500000D02*
X-19700000Y-26400000D01*
X24300000Y-26500000D02*
X-19600000Y-26500000D01*
X-47600000Y-103500000D02*
X-13000000Y-103500000D01*
X-51200000Y-99900000D02*
X-47600000Y-103500000D01*
X-11600000Y-60400000D02*
X-14950000Y-60400000D01*
X34000000Y-103500000D02*
X11000000Y-103500000D01*
X209293300Y-41238300D02*
X211605000Y-43550000D01*
X200480300Y-41238300D02*
X209293300Y-41238300D01*
X176586700Y-41238300D02*
X200480300Y-41238300D01*
X172375000Y-45450000D02*
X176586700Y-41238300D01*
X180100000Y-64800000D02*
X141100000Y-64800000D01*
X181500000Y-66200000D02*
X180100000Y-64800000D01*
X101114500Y-63685500D02*
X100500000Y-64300000D01*
X139985500Y-63685500D02*
X101114500Y-63685500D01*
X141100000Y-64800000D02*
X139985500Y-63685500D01*
X131366800Y-42641800D02*
X132475000Y-43750000D01*
X97883200Y-42641800D02*
X131366800Y-42641800D01*
X96175000Y-44350000D02*
X97883200Y-42641800D01*
X9100000Y-76700000D02*
X7900000Y-76700000D01*
X11400000Y-79000000D02*
X9100000Y-76700000D01*
X7900000Y-76700000D02*
X7900000Y-74500000D01*
X-9400000Y-76700000D02*
X-11700000Y-79000000D01*
X7900000Y-76700000D02*
X-9400000Y-76700000D01*
X47160700Y-45030000D02*
X46848900Y-44718200D01*
X72039900Y-45030000D02*
X47160700Y-45030000D01*
X74673400Y-47663500D02*
X72039900Y-45030000D01*
X92293600Y-47663500D02*
X74673400Y-47663500D01*
X95607100Y-44350000D02*
X92293600Y-47663500D01*
X96175000Y-44350000D02*
X95607100Y-44350000D01*
%TO.N,Net-(U13-GND)*%
X24900000Y-8600000D02*
X23645800Y-8600000D01*
X19145800Y-4100000D02*
X23645800Y-8600000D01*
X280000Y-4100000D02*
X19145800Y-4100000D01*
%TO.N,Net-(R18-Pad2)*%
X-2260000Y-16060000D02*
X-10300000Y-24100000D01*
X-2260000Y-11720000D02*
X-2260000Y-16060000D01*
%TO.N,Net-(J15-Pin_5)*%
X200607200Y4652800D02*
X196720500Y4652800D01*
X202660000Y2600000D02*
X200607200Y4652800D01*
X60563800Y1106200D02*
X59760000Y1910000D01*
X68660200Y1106200D02*
X60563800Y1106200D01*
X72206800Y4652800D02*
X68660200Y1106200D01*
X77878400Y4652800D02*
X72206800Y4652800D01*
X78055000Y4829400D02*
X77878400Y4652800D01*
X78065500Y4829400D02*
X78055000Y4829400D01*
X78290600Y5054500D02*
X78065500Y4829400D01*
X196318800Y5054500D02*
X78290600Y5054500D01*
X196554200Y4819100D02*
X196318800Y5054500D01*
X196720500Y4652800D02*
X196554200Y4819100D01*
%TO.N,Net-(J15-Pin_3)*%
X75658300Y559300D02*
X75493500Y394500D01*
X75658300Y559300D02*
X75493500Y394500D01*
X68892800Y2600D02*
X69128200Y238000D01*
X44867400Y2600D02*
X68892800Y2600D01*
X42460000Y2410000D02*
X44867400Y2600D01*
X69284700Y394500D02*
X75493500Y394500D01*
X69128200Y238000D02*
X69284700Y394500D01*
X69128200Y238000D02*
X69284700Y394500D01*
X197577900Y2600000D02*
X197580000Y2600000D01*
X195950800Y4227100D02*
X197577900Y2600000D01*
X79326100Y4227100D02*
X195950800Y4227100D01*
X75658300Y559300D02*
X79326100Y4227100D01*
%TO.N,Net-(J15-Pin_4)*%
X198643600Y4076400D02*
X200120000Y2600000D01*
X196669500Y4076400D02*
X198643600Y4076400D01*
X196352500Y4393400D02*
X196669500Y4076400D01*
X196352500Y4452800D02*
X196352500Y4393400D01*
X196152500Y4652800D02*
X196352500Y4452800D01*
X79183700Y4652800D02*
X196152500Y4652800D01*
X75337000Y806100D02*
X79183700Y4652800D01*
X75337000Y806000D02*
X75337000Y806100D01*
X69128200Y806000D02*
X75337000Y806000D01*
X68726500Y404300D02*
X69128200Y806000D01*
X53265700Y404300D02*
X68726500Y404300D01*
X51460000Y2210000D02*
X53265700Y404300D01*
%TO.N,Net-(J15-Pin_6)*%
X196485100Y5456200D02*
X196152500Y5456200D01*
X196847000Y5094300D02*
X196485100Y5456200D01*
X202705700Y5094300D02*
X196847000Y5094300D01*
X205200000Y2600000D02*
X202705700Y5094300D01*
X70544300Y5094300D02*
X67660000Y2210000D01*
X77751900Y5094300D02*
X70544300Y5094300D01*
X77888700Y5231100D02*
X77751900Y5094300D01*
X77899200Y5231100D02*
X77888700Y5231100D01*
X78124300Y5456200D02*
X77899200Y5231100D01*
X78789500Y5456200D02*
X78124300Y5456200D01*
X196152500Y5456200D02*
X78789500Y5456200D01*
%TO.N,Net-(D13-K)*%
X-10320000Y-9620000D02*
X-4800000Y-4100000D01*
X-15220000Y-9620000D02*
X-10320000Y-9620000D01*
%TO.N,Net-(D13-A)*%
X8180000Y540000D02*
X-15220000Y540000D01*
%TO.N,Net-(D12-K)*%
X2380000Y-9620000D02*
X280000Y-11720000D01*
X8180000Y-9620000D02*
X2380000Y-9620000D01*
%TO.N,Net-(D10-K)*%
X137856600Y-16743400D02*
X156000000Y1400000D01*
X92338600Y-16743400D02*
X137856600Y-16743400D01*
X83982000Y-25100000D02*
X92338600Y-16743400D01*
X68360000Y-25100000D02*
X83982000Y-25100000D01*
%TO.N,Net-(R23-Pad2)*%
X206350000Y-43550000D02*
X209065000Y-43550000D01*
X202000000Y-47900000D02*
X206350000Y-43550000D01*
%TO.N,Net-(R22-Pad2)*%
X165885000Y-49400000D02*
X162000000Y-49400000D01*
X169835000Y-45450000D02*
X165885000Y-49400000D01*
%TO.N,Net-(R20-Pad2)*%
X126685000Y-47000000D02*
X122000000Y-47000000D01*
X129935000Y-43750000D02*
X126685000Y-47000000D01*
%TO.N,Net-(R10-Pad2)*%
X209065000Y-33465000D02*
X209065000Y-35930000D01*
X205300000Y-29700000D02*
X209065000Y-33465000D01*
%TO.N,Net-(R1-Pad2)*%
X90898100Y-50000000D02*
X82000000Y-50000000D01*
X93622000Y-47276100D02*
X90898100Y-50000000D01*
%TO.N,Net-(Q4-B)*%
X213550000Y-55630000D02*
X208730000Y-55630000D01*
X216800000Y-58880000D02*
X213550000Y-55630000D01*
%TO.N,Net-(Q3-B)*%
X175330000Y-57330000D02*
X170530000Y-57330000D01*
X178200000Y-60200000D02*
X175330000Y-57330000D01*
%TO.N,Net-(Q2-B)*%
X135530000Y-54930000D02*
X130430000Y-54930000D01*
X139500000Y-58900000D02*
X135530000Y-54930000D01*
%TO.N,Net-(Q1-B)*%
X98730000Y-56030000D02*
X101000000Y-58300000D01*
X90170000Y-56030000D02*
X98730000Y-56030000D01*
%TO.N,Net-(J13-Pin_7)*%
X78949900Y-60510100D02*
X92591900Y-60510100D01*
X71900000Y-67560000D02*
X78949900Y-60510100D01*
X140896200Y-60343800D02*
X162000000Y-39240000D01*
X92758200Y-60343800D02*
X140896200Y-60343800D01*
X92591900Y-60510100D02*
X92758200Y-60343800D01*
X92591900Y-60510100D02*
X92758200Y-60343800D01*
%TO.N,Net-(J13-Pin_8)*%
X200802300Y-38937700D02*
X202000000Y-37740000D01*
X169022400Y-38937700D02*
X200802300Y-38937700D01*
X168213800Y-38129100D02*
X169022400Y-38937700D01*
X159574900Y-38129100D02*
X168213800Y-38129100D01*
X151805500Y-45898500D02*
X159574900Y-38129100D01*
X129665800Y-45898500D02*
X151805500Y-45898500D01*
X115750900Y-59813400D02*
X129665800Y-45898500D01*
X77106600Y-59813400D02*
X115750900Y-59813400D01*
X71900000Y-65020000D02*
X77106600Y-59813400D01*
%TO.N,Net-(J13-Pin_6)*%
X80423800Y-47008500D02*
X75301400Y-47008500D01*
X85784000Y-41648300D02*
X80423800Y-47008500D01*
X117191700Y-41648300D02*
X85784000Y-41648300D01*
X122000000Y-36840000D02*
X117191700Y-41648300D01*
%TO.N,Net-(J12-Pin_15)*%
X77421400Y-44418600D02*
X47946600Y-44418600D01*
X82000000Y-39840000D02*
X77421400Y-44418600D01*
%TO.N,Net-(D6-A)*%
X204511700Y-57851700D02*
X202000000Y-55340000D01*
X209048300Y-57851700D02*
X204511700Y-57851700D01*
X210000000Y-56900000D02*
X209048300Y-57851700D01*
%TO.N,Net-(D5-A)*%
X165402100Y-59602100D02*
X162000000Y-56200000D01*
X170797900Y-59602100D02*
X165402100Y-59602100D01*
X171800000Y-58600000D02*
X170797900Y-59602100D01*
%TO.N,Net-(D4-A)*%
X123251700Y-57151700D02*
X122000000Y-55900000D01*
X130748300Y-57151700D02*
X123251700Y-57151700D01*
X131700000Y-56200000D02*
X130748300Y-57151700D01*
%TO.N,Net-(D3-A)*%
X90488300Y-58251700D02*
X91440000Y-57300000D01*
X83251700Y-58251700D02*
X90488300Y-58251700D01*
X82000000Y-57000000D02*
X83251700Y-58251700D01*
%TO.N,Net-(D9-K)*%
X122050600Y-26525900D02*
X125416000Y-23160500D01*
X61185900Y-26525900D02*
X122050600Y-26525900D01*
X59760000Y-25100000D02*
X61185900Y-26525900D01*
%TO.N,Net-(U12-X1)*%
X11955000Y-42255000D02*
X15200000Y-45500000D01*
X11450000Y-42255000D02*
X11955000Y-42255000D01*
%TO.N,Net-(U12-X2)*%
X9550000Y-42390000D02*
X9550000Y-42255000D01*
X15200000Y-48040000D02*
X9550000Y-42390000D01*
%TO.N,Net-(U12-SDA)*%
X29980000Y-53120000D02*
X22820000Y-53120000D01*
X35100000Y-48000000D02*
X29980000Y-53120000D01*
%TO.N,Net-(U12-SCL)*%
X25400000Y-48000000D02*
X27500000Y-48000000D01*
X22820000Y-50580000D02*
X25400000Y-48000000D01*
%TO.N,Net-(J13-Pin_4)*%
X55163000Y-75180000D02*
X71900000Y-75180000D01*
X50543500Y-79799500D02*
X55163000Y-75180000D01*
%TO.N,Net-(D8-K)*%
X56589700Y-19770300D02*
X74502700Y-19770300D01*
X51260000Y-25100000D02*
X56589700Y-19770300D01*
X78131300Y-16141700D02*
X74502700Y-19770300D01*
X136259900Y-16141700D02*
X78131300Y-16141700D01*
X152522700Y121100D02*
X136259900Y-16141700D01*
X152522700Y202000D02*
X152522700Y121100D01*
X155341800Y3021100D02*
X152522700Y202000D01*
X157364000Y3021100D02*
X155341800Y3021100D01*
X160227700Y157400D02*
X157364000Y3021100D01*
X168257400Y157400D02*
X160227700Y157400D01*
X169900000Y1800000D02*
X168257400Y157400D01*
%TO.N,Net-(D2-K)*%
X49263500Y-32103500D02*
X42260000Y-25100000D01*
X67637700Y-32103500D02*
X49263500Y-32103500D01*
X67686500Y-32054700D02*
X67637700Y-32103500D01*
X67686500Y-32054600D02*
X67686500Y-32054700D01*
X131496400Y-32054600D02*
X67686500Y-32054600D01*
X140390500Y-23160500D02*
X131496400Y-32054600D01*
%TO.N,Net-(J14-Pin_1)*%
X149276200Y-243800D02*
X150920000Y1400000D01*
X138583800Y-243800D02*
X149276200Y-243800D01*
X136940000Y1400000D02*
X138583800Y-243800D01*
X135521500Y-18500D02*
X136940000Y1400000D01*
X124358500Y-18500D02*
X135521500Y-18500D01*
X122740000Y1600000D02*
X124358500Y-18500D01*
X154720600Y3472800D02*
X154485200Y3237400D01*
X163147200Y3472800D02*
X154720600Y3472800D01*
X164820000Y1800000D02*
X163147200Y3472800D01*
X152591100Y3071100D02*
X150920000Y1400000D01*
X154318900Y3071100D02*
X152591100Y3071100D01*
X154485200Y3237400D02*
X154318900Y3071100D01*
X154485200Y3237400D02*
X154318900Y3071100D01*
X20719700Y-17398400D02*
X12244400Y-25873700D01*
X74424600Y-17398400D02*
X20719700Y-17398400D01*
X76919100Y-14903900D02*
X74424600Y-17398400D01*
X106236100Y-14903900D02*
X76919100Y-14903900D01*
X122740000Y1600000D02*
X106236100Y-14903900D01*
%TO.N,Net-(J3-Pin_1)*%
X-17400000Y-74949200D02*
X-17400000Y-74500000D01*
X-11853800Y-80495400D02*
X-17400000Y-74949200D01*
X4449900Y-80495400D02*
X-11853800Y-80495400D01*
X8405800Y-84451300D02*
X4449900Y-80495400D01*
X8405800Y-85000000D02*
X8405800Y-84451300D01*
X9660000Y-85000000D02*
X8405800Y-85000000D01*
X86230100Y3810100D02*
X84620000Y2200000D01*
X95729900Y3810100D02*
X86230100Y3810100D01*
X97540000Y2000000D02*
X95729900Y3810100D01*
X17987400Y-16796800D02*
X14604700Y-20179500D01*
X61886800Y-16796800D02*
X17987400Y-16796800D01*
X80883600Y2200000D02*
X61886800Y-16796800D01*
X84620000Y2200000D02*
X80883600Y2200000D01*
%TO.N,Net-(J13-Pin_5)*%
X60476500Y-91723500D02*
X57500000Y-94700000D01*
X71507800Y-91723500D02*
X60476500Y-91723500D01*
X96761300Y-3858700D02*
X78886200Y-3858700D01*
X102620000Y2000000D02*
X96761300Y-3858700D01*
%TO.N,Net-(J15-Pin_2)*%
X-16343300Y-61506700D02*
X-17450000Y-60400000D01*
X-7525900Y-61506700D02*
X-16343300Y-61506700D01*
X-5819200Y-59800000D02*
X-7525900Y-61506700D01*
X5500000Y-59800000D02*
X-5819200Y-59800000D01*
X8840700Y-1401500D02*
X8614900Y-1401500D01*
X17291100Y7048900D02*
X8840700Y-1401500D01*
X194298700Y7048900D02*
X17291100Y7048900D01*
%TO.N,Net-(J12-Pin_9)*%
X4283400Y-55951500D02*
X2625100Y-55951500D01*
X6848900Y-58517000D02*
X4283400Y-55951500D01*
X6848900Y-60249100D02*
X6848900Y-58517000D01*
X10998100Y-64398300D02*
X6848900Y-60249100D01*
X43298300Y-64398300D02*
X10998100Y-64398300D01*
X46500000Y-67600000D02*
X43298300Y-64398300D01*
%TO.N,Net-(J12-Pin_11)*%
X27500000Y-37840000D02*
X35100000Y-37840000D01*
X27500000Y-45159300D02*
X27500000Y-37840000D01*
X23160700Y-45159300D02*
X27500000Y-45159300D01*
X22820000Y-45500000D02*
X23160700Y-45159300D01*
X27350000Y-80250000D02*
X28600000Y-81500000D01*
X45998900Y-80801100D02*
X46500000Y-80300000D01*
X27901100Y-80801100D02*
X45998900Y-80801100D01*
X27350000Y-80250000D02*
X27901100Y-80801100D01*
X70221000Y-45561000D02*
X71900000Y-47240000D01*
X27901700Y-45561000D02*
X70221000Y-45561000D01*
X27500000Y-45159300D02*
X27901700Y-45561000D01*
X26100000Y-79000000D02*
X13900000Y-79000000D01*
X27350000Y-80250000D02*
X26100000Y-79000000D01*
X-15780000Y-85000000D02*
X-14525800Y-85000000D01*
X-14525800Y-84432800D02*
X-14525800Y-85000000D01*
X-13769800Y-83676800D02*
X-14525800Y-84432800D01*
X-9238300Y-83676800D02*
X-13769800Y-83676800D01*
X-6556100Y-86359000D02*
X-9238300Y-83676800D01*
X10159700Y-86359000D02*
X-6556100Y-86359000D01*
X10930000Y-85588700D02*
X10159700Y-86359000D01*
X10930000Y-81970000D02*
X10930000Y-85588700D01*
X13900000Y-79000000D02*
X10930000Y-81970000D01*
%TO.N,Net-(J13-Pin_3)*%
X65462800Y-84157200D02*
X71900000Y-77720000D01*
X31110000Y-84157200D02*
X65462800Y-84157200D01*
X30118700Y-83165900D02*
X31110000Y-84157200D01*
%TO.N,Net-(D12-A)*%
X-6921000Y-58221000D02*
X-9100000Y-60400000D01*
X5620000Y-58221000D02*
X-6921000Y-58221000D01*
X11000000Y-96000000D02*
X34000000Y-96000000D01*
X122300000Y-66360000D02*
X122000000Y-66060000D01*
X162000000Y-66360000D02*
X122300000Y-66360000D01*
X90500000Y-20140000D02*
X130600000Y-20140000D01*
X-11954200Y-85548700D02*
X-11954200Y-85000000D01*
X-12755800Y-86350300D02*
X-11954200Y-85548700D01*
X-40509700Y-86350300D02*
X-12755800Y-86350300D01*
X-44220000Y-82640000D02*
X-40509700Y-86350300D01*
X-10700000Y-85000000D02*
X-11954200Y-85000000D01*
X202064600Y-72614600D02*
X203950000Y-74500000D01*
X165835400Y-72614600D02*
X202064600Y-72614600D01*
X163950000Y-74500000D02*
X165835400Y-72614600D01*
X165400000Y-20140000D02*
X165500000Y-20040000D01*
X130600000Y-20140000D02*
X165400000Y-20140000D01*
X204800000Y-20040000D02*
X205300000Y-19540000D01*
X165500000Y-20040000D02*
X204800000Y-20040000D01*
X-13000000Y-96000000D02*
X11000000Y-96000000D01*
X85850000Y-72850000D02*
X83950000Y-74750000D01*
X122300000Y-72850000D02*
X85850000Y-72850000D01*
X123950000Y-74500000D02*
X122300000Y-72850000D01*
X40374500Y-89625500D02*
X34000000Y-96000000D01*
X69074500Y-89625500D02*
X40374500Y-89625500D01*
X83950000Y-74750000D02*
X69074500Y-89625500D01*
%TO.N,Net-(BT1-+)*%
X-29742200Y-50580000D02*
X-36224600Y-44097600D01*
X15200000Y-50580000D02*
X-29742200Y-50580000D01*
%TO.N,Net-(BT1--)*%
X57460000Y-104900000D02*
X57500000Y-104860000D01*
X49500000Y-104900000D02*
X57460000Y-104900000D01*
X70790700Y-50889300D02*
X71900000Y-49780000D01*
X58845400Y-50889300D02*
X70790700Y-50889300D01*
X-30220300Y-53120000D02*
X15200000Y-53120000D01*
X-33332300Y-50008000D02*
X-30220300Y-53120000D01*
X53918800Y-45962700D02*
X58845400Y-50889300D01*
X34640200Y-45962700D02*
X53918800Y-45962700D01*
X33704600Y-46898300D02*
X34640200Y-45962700D01*
X21421700Y-46898300D02*
X33704600Y-46898300D01*
X15200000Y-53120000D02*
X21421700Y-46898300D01*
%TO.N,Net-(Q7-B)*%
X-18000000Y-46000000D02*
X-18200000Y-46000000D01*
X-10900000Y-38900000D02*
X-18000000Y-46000000D01*
%TO.N,Net-(K6-Pad3)*%
X-54966500Y-2293500D02*
X-60000000Y2740000D01*
X-30318800Y-2293500D02*
X-54966500Y-2293500D01*
%TO.N,Net-(J2-Pin_1)*%
X-57620000Y-79400000D02*
X-49300000Y-87720000D01*
X-60000000Y-79400000D02*
X-57620000Y-79400000D01*
X-58613500Y-61913500D02*
X-6359600Y-61913500D01*
X-60000000Y-63300000D02*
X-58613500Y-61913500D01*
%TO.N,Net-(J1-Pin_2)*%
X-52830000Y-106250000D02*
X-33600000Y-106250000D01*
X-60000000Y-99080000D02*
X-52830000Y-106250000D01*
%TO.N,Net-(D16-A)*%
X-23688800Y-53840500D02*
X-27348300Y-57500000D01*
X-21334100Y-53840500D02*
X-23688800Y-53840500D01*
X-28900000Y-57500000D02*
X-27348300Y-57500000D01*
%TO.N,Net-(D1-A)*%
X-28040000Y-78190000D02*
X-33600000Y-83750000D01*
X-28040000Y-74800000D02*
X-28040000Y-78190000D01*
%TD*%
M02*
