M48
; DRILL file {KiCad 9.0.9-9.0.9~ubuntu24.04.1} date 2026-08-30T22:08:39-0600
; FORMAT={-:-/ absolute / metric / decimal}
; #@! TF.CreationDate,2026-08-30T22:08:39-06:00
; #@! TF.GenerationSoftware,Kicad,Pcbnew,9.0.9-9.0.9~ubuntu24.04.1
; #@! TF.FileFunction,Plated,1,2,PTH
FMAT,2
METRIC
; #@! TA.AperFunction,Plated,PTH,ViaDrill
T1C0.300
; #@! TA.AperFunction,Plated,PTH,ComponentDrill
T2C0.500
; #@! TA.AperFunction,Plated,PTH,ComponentDrill
T3C0.750
; #@! TA.AperFunction,Plated,PTH,ComponentDrill
T4C0.800
; #@! TA.AperFunction,Plated,PTH,ComponentDrill
T5C1.000
; #@! TA.AperFunction,Plated,PTH,ComponentDrill
T6C1.100
; #@! TA.AperFunction,Plated,PTH,ComponentDrill
T7C1.200
; #@! TA.AperFunction,Plated,PTH,ComponentDrill
T8C1.300
; #@! TA.AperFunction,Plated,PTH,ComponentDrill
T9C2.200
%
G90
G05
T1
X-36.225Y-44.098
X-33.332Y-50.008
X-30.319Y-2.293
X-21.334Y-53.84
X-6.36Y-61.913
X2.625Y-55.951
X5.62Y-58.221
X8.615Y-1.401
X12.244Y-25.874
X14.605Y-20.179
X30.119Y-83.166
X46.849Y-44.718
X47.947Y-44.419
X50.543Y-79.799
X58.845Y-50.889
X67.638Y-32.103
X71.508Y-91.724
X74.503Y-19.77
X75.301Y-47.008
X78.886Y-3.859
X93.622Y-47.276
X125.416Y-23.16
X140.391Y-23.16
X194.299Y7.049
X200.48Y-41.238
T2
X9.55Y-42.255
X11.45Y-42.255
T3
X-19.47Y-44.73
X-19.47Y-47.27
X-18.2Y-46.0
X88.9Y-57.3
X90.17Y-56.03
X91.44Y-57.3
X129.16Y-56.2
X130.43Y-54.93
X131.7Y-56.2
X169.26Y-58.6
X170.53Y-57.33
X171.8Y-58.6
X207.46Y-56.9
X208.73Y-55.63
X210.0Y-56.9
T4
X-49.3Y-82.64
X-49.3Y-85.18
X-49.3Y-87.72
X-49.3Y-92.8
X-44.22Y-82.64
X-44.22Y-85.18
X-44.22Y-87.72
X-44.22Y-92.8
X-19.7Y-26.4
X-19.7Y-39.1
X-17.45Y-60.4
X-17.4Y-74.5
X-14.95Y-60.4
X-14.9Y-74.5
X-11.7Y-79.0
X-11.6Y-60.4
X-10.9Y-38.9
X-10.3Y-24.1
X-10.0Y6.5
X-9.2Y-79.0
X-9.1Y-60.4
X-7.34Y-4.1
X-7.34Y-11.72
X-4.8Y-4.1
X-4.8Y-11.72
X-2.26Y-4.1
X-2.26Y-11.72
X0.28Y-4.1
X0.28Y-11.72
X1.8Y-38.9
X2.4Y-24.1
X2.7Y6.5
X5.4Y-74.5
X5.5Y-59.8
X7.9Y-74.5
X8.0Y-59.8
X11.4Y-59.8
X11.4Y-79.0
X13.9Y-59.8
X13.9Y-79.0
X15.2Y-45.5
X15.2Y-48.04
X15.2Y-50.58
X15.2Y-53.12
X22.82Y-45.5
X22.82Y-48.04
X22.82Y-50.58
X22.82Y-53.12
X24.3Y-26.5
X26.8Y-26.5
X27.5Y-37.84
X27.5Y-48.0
X28.2Y-2.1
X30.7Y-2.1
X35.1Y-37.84
X35.1Y-48.0
X42.46Y2.41
X42.46Y-7.75
X49.5Y-94.74
X49.5Y-104.9
X51.46Y2.21
X51.46Y-7.95
X57.5Y-94.7
X57.5Y-104.86
X59.76Y1.91
X59.76Y-8.25
X67.66Y2.21
X67.66Y-7.95
X82.0Y-39.84
X82.0Y-50.0
X87.8Y-64.3
X90.5Y-20.14
X90.5Y-30.3
X93.635Y-36.73
X93.635Y-44.35
X96.175Y-36.73
X96.175Y-44.35
X100.5Y-64.3
X101.0Y-48.14
X101.0Y-58.3
X122.0Y-36.84
X122.0Y-47.0
X128.4Y-64.8
X129.935Y-36.13
X129.935Y-43.75
X130.6Y-20.14
X130.6Y-30.3
X132.475Y-36.13
X132.475Y-43.75
X139.5Y-48.74
X139.5Y-58.9
X141.1Y-64.8
X162.0Y-39.24
X162.0Y-49.4
X165.5Y-20.04
X165.5Y-30.2
X168.8Y-66.2
X169.835Y-37.83
X169.835Y-45.45
X172.375Y-37.83
X172.375Y-45.45
X178.2Y-50.04
X178.2Y-60.2
X181.5Y-66.2
X202.0Y-37.74
X202.0Y-47.9
X205.3Y-19.54
X205.3Y-29.7
X206.7Y-64.7
X209.065Y-35.93
X209.065Y-43.55
X211.605Y-35.93
X211.605Y-43.55
X216.8Y-48.72
X216.8Y-58.88
X219.4Y-64.7
T5
X-13.0Y-96.0
X-13.0Y-103.5
X11.0Y-96.0
X11.0Y-103.5
X28.6Y-74.0
X28.6Y-81.5
X34.0Y-96.0
X34.0Y-103.5
X83.95Y-74.75
X83.95Y-86.75
X123.95Y-74.5
X123.95Y-86.5
X163.95Y-74.5
X163.95Y-86.5
X203.95Y-74.5
X203.95Y-86.5
T6
X-51.2Y-99.9
X-47.3Y-64.2
X-47.3Y-74.36
X-41.04Y-99.9
X-38.2Y-74.8
X-38.1Y-67.9
X-28.04Y-74.8
X-27.94Y-67.9
X-15.78Y-65.7
X-15.78Y-85.0
X-15.22Y0.54
X-15.22Y-9.62
X-13.24Y-65.7
X-13.24Y-85.0
X-10.7Y-65.7
X-10.7Y-85.0
X7.12Y-65.7
X7.12Y-85.0
X8.18Y0.54
X8.18Y-9.62
X8.18Y-14.66
X8.18Y-24.82
X9.66Y-65.7
X9.66Y-85.0
X12.2Y-65.7
X12.2Y-85.0
X24.9Y-8.6
X24.9Y-20.4
X27.44Y-8.6
X27.44Y-20.4
X29.98Y-8.6
X29.98Y-20.4
X42.26Y-14.94
X42.26Y-25.1
X51.26Y-14.94
X51.26Y-25.1
X59.76Y-14.94
X59.76Y-25.1
X68.36Y-14.94
X68.36Y-25.1
X82.0Y-57.0
X82.0Y-67.16
X122.0Y-55.9
X122.0Y-66.06
X162.0Y-56.2
X162.0Y-66.36
X202.0Y-55.34
X202.0Y-65.5
T7
X-60.0Y2.74
X-60.0Y-63.3
X46.5Y-47.28
X46.5Y-49.82
X46.5Y-52.36
X46.5Y-54.9
X46.5Y-57.44
X46.5Y-59.98
X46.5Y-62.52
X46.5Y-65.06
X46.5Y-67.6
X46.5Y-70.14
X46.5Y-72.68
X46.5Y-75.22
X46.5Y-77.76
X46.5Y-80.3
X46.5Y-82.84
X71.9Y-47.24
X71.9Y-49.78
X71.9Y-52.32
X71.9Y-54.86
X71.9Y-57.4
X71.9Y-59.94
X71.9Y-62.48
X71.9Y-65.02
X71.9Y-67.56
X71.9Y-70.1
X71.9Y-72.64
X71.9Y-75.18
X71.9Y-77.72
X71.9Y-80.26
X71.9Y-82.8
X192.5Y2.6
X195.04Y2.6
X197.58Y2.6
X200.12Y2.6
X202.66Y2.6
X205.2Y2.6
X207.74Y2.6
T8
X-60.0Y-79.4
X-60.0Y-84.48
X-60.0Y-94.0
X-60.0Y-99.08
X-40.9Y-45.3
X-40.9Y-57.5
X-34.9Y-59.5
X-33.6Y-83.75
X-33.6Y-106.25
X-28.9Y-45.3
X-28.9Y-57.5
X82.0Y-80.7
X84.62Y2.2
X84.92Y-101.0
X89.7Y2.2
X90.0Y-101.0
X96.15Y-86.75
X96.2Y-74.7
X97.54Y2.0
X102.62Y2.0
X122.0Y-80.45
X122.74Y1.6
X124.92Y-101.0
X127.82Y1.6
X130.0Y-101.0
X136.15Y-86.5
X136.2Y-74.45
X136.94Y1.4
X142.02Y1.4
X150.92Y1.4
X156.0Y1.4
X162.0Y-80.45
X164.82Y1.8
X164.92Y-101.0
X169.9Y1.8
X170.0Y-101.0
X176.15Y-86.5
X176.2Y-74.45
X202.0Y-80.45
X204.92Y-101.0
X210.0Y-101.0
X216.15Y-86.5
X216.2Y-74.45
T9
X-61.0Y10.1
X-60.7Y-107.5
X216.3Y7.3
X217.5Y-105.5
M30
