%TF.GenerationSoftware,KiCad,Pcbnew,9.0.9-9.0.9~ubuntu24.04.1*%
%TF.CreationDate,2026-08-30T22:08:16-06:00*%
%TF.ProjectId,Panel_PCB,50616e65-6c5f-4504-9342-2e6b69636164,rev?*%
%TF.SameCoordinates,Original*%
%TF.FileFunction,Copper,L1,Top*%
%TF.FilePolarity,Positive*%
%FSLAX46Y46*%
G04 Gerber Fmt 4.6, Leading zero omitted, Abs format (unit mm)*
G04 Created by KiCad (PCBNEW 9.0.9-9.0.9~ubuntu24.04.1) date 2026-08-30 22:08:16*
%MOMM*%
%LPD*%
G01*
G04 APERTURE LIST*
G04 Aperture macros list*
%AMRoundRect*
0 Rectangle with rounded corners*
0 $1 Rounding radius*
0 $2 $3 $4 $5 $6 $7 $8 $9 X,Y pos of 4 corners*
0 Add a 4 corners polygon primitive as box body*
4,1,4,$2,$3,$4,$5,$6,$7,$8,$9,$2,$3,0*
0 Add four circle primitives for the rounded corners*
1,1,$1+$1,$2,$3*
1,1,$1+$1,$4,$5*
1,1,$1+$1,$6,$7*
1,1,$1+$1,$8,$9*
0 Add four rect primitives between the rounded corners*
20,1,$1+$1,$2,$3,$4,$5,0*
20,1,$1+$1,$4,$5,$6,$7,0*
20,1,$1+$1,$6,$7,$8,$9,0*
20,1,$1+$1,$8,$9,$2,$3,0*%
G04 Aperture macros list end*
%ADD10C,0.200000*%
%TA.AperFunction,NonConductor*%
%ADD11C,0.200000*%
%TD*%
%ADD12C,0.300000*%
%TA.AperFunction,NonConductor*%
%ADD13C,0.300000*%
%TD*%
%TA.AperFunction,ComponentPad*%
%ADD14C,3.800000*%
%TD*%
%TA.AperFunction,ComponentPad*%
%ADD15RoundRect,0.250000X0.550000X-0.550000X0.550000X0.550000X-0.550000X0.550000X-0.550000X-0.550000X0*%
%TD*%
%TA.AperFunction,ComponentPad*%
%ADD16C,1.600000*%
%TD*%
%TA.AperFunction,ComponentPad*%
%ADD17R,1.300000X1.300000*%
%TD*%
%TA.AperFunction,ComponentPad*%
%ADD18C,1.300000*%
%TD*%
%TA.AperFunction,ComponentPad*%
%ADD19RoundRect,0.250000X-0.750000X0.750000X-0.750000X-0.750000X0.750000X-0.750000X0.750000X0.750000X0*%
%TD*%
%TA.AperFunction,ComponentPad*%
%ADD20C,2.000000*%
%TD*%
%TA.AperFunction,ComponentPad*%
%ADD21R,1.905000X2.000000*%
%TD*%
%TA.AperFunction,ComponentPad*%
%ADD22O,1.905000X2.000000*%
%TD*%
%TA.AperFunction,ComponentPad*%
%ADD23RoundRect,0.249999X-0.850001X0.850001X-0.850001X-0.850001X0.850001X-0.850001X0.850001X0.850001X0*%
%TD*%
%TA.AperFunction,ComponentPad*%
%ADD24C,2.200000*%
%TD*%
%TA.AperFunction,ComponentPad*%
%ADD25RoundRect,0.250000X-0.550000X0.550000X-0.550000X-0.550000X0.550000X-0.550000X0.550000X0.550000X0*%
%TD*%
%TA.AperFunction,ComponentPad*%
%ADD26RoundRect,0.250000X-0.750000X-0.750000X0.750000X-0.750000X0.750000X0.750000X-0.750000X0.750000X0*%
%TD*%
%TA.AperFunction,ComponentPad*%
%ADD27RoundRect,0.250000X-0.550000X-0.550000X0.550000X-0.550000X0.550000X0.550000X-0.550000X0.550000X0*%
%TD*%
%TA.AperFunction,ComponentPad*%
%ADD28RoundRect,0.250000X-1.050000X-1.050000X1.050000X-1.050000X1.050000X1.050000X-1.050000X1.050000X0*%
%TD*%
%TA.AperFunction,ComponentPad*%
%ADD29C,2.600000*%
%TD*%
%TA.AperFunction,ComponentPad*%
%ADD30C,1.000000*%
%TD*%
%TA.AperFunction,ComponentPad*%
%ADD31C,3.000000*%
%TD*%
%TA.AperFunction,ComponentPad*%
%ADD32C,2.500000*%
%TD*%
%TA.AperFunction,ComponentPad*%
%ADD33RoundRect,0.250000X-1.050000X1.050000X-1.050000X-1.050000X1.050000X-1.050000X1.050000X1.050000X0*%
%TD*%
%TA.AperFunction,ComponentPad*%
%ADD34RoundRect,0.250500X0.499500X0.499500X-0.499500X0.499500X-0.499500X-0.499500X0.499500X-0.499500X0*%
%TD*%
%TA.AperFunction,ComponentPad*%
%ADD35C,1.500000*%
%TD*%
%TA.AperFunction,ComponentPad*%
%ADD36RoundRect,0.250000X0.750000X-0.750000X0.750000X0.750000X-0.750000X0.750000X-0.750000X-0.750000X0*%
%TD*%
%TA.AperFunction,ComponentPad*%
%ADD37RoundRect,0.249999X-0.850001X-0.850001X0.850001X-0.850001X0.850001X0.850001X-0.850001X0.850001X0*%
%TD*%
%TA.AperFunction,SMDPad,CuDef*%
%ADD38R,3.600000X2.600000*%
%TD*%
%TA.AperFunction,ComponentPad*%
%ADD39RoundRect,0.250000X1.050000X1.050000X-1.050000X1.050000X-1.050000X-1.050000X1.050000X-1.050000X0*%
%TD*%
%TA.AperFunction,ComponentPad*%
%ADD40RoundRect,0.249999X0.850001X-0.850001X0.850001X0.850001X-0.850001X0.850001X-0.850001X-0.850001X0*%
%TD*%
%TA.AperFunction,ComponentPad*%
%ADD41RoundRect,0.249999X0.850001X0.850001X-0.850001X0.850001X-0.850001X-0.850001X0.850001X-0.850001X0*%
%TD*%
%TA.AperFunction,ComponentPad*%
%ADD42C,2.400000*%
%TD*%
%TA.AperFunction,ComponentPad*%
%ADD43R,2.500000X2.500000*%
%TD*%
%TA.AperFunction,ComponentPad*%
%ADD44O,2.500000X2.500000*%
%TD*%
%TA.AperFunction,ViaPad*%
%ADD45C,0.600000*%
%TD*%
%TA.AperFunction,Conductor*%
%ADD46C,0.200000*%
%TD*%
G04 APERTURE END LIST*
D10*
D11*
X53345863Y-46428955D02*
X53841101Y-46428955D01*
X53841101Y-46428955D02*
X53574435Y-46733717D01*
X53574435Y-46733717D02*
X53688720Y-46733717D01*
X53688720Y-46733717D02*
X53764911Y-46771812D01*
X53764911Y-46771812D02*
X53803006Y-46809907D01*
X53803006Y-46809907D02*
X53841101Y-46886098D01*
X53841101Y-46886098D02*
X53841101Y-47076574D01*
X53841101Y-47076574D02*
X53803006Y-47152764D01*
X53803006Y-47152764D02*
X53764911Y-47190860D01*
X53764911Y-47190860D02*
X53688720Y-47228955D01*
X53688720Y-47228955D02*
X53460149Y-47228955D01*
X53460149Y-47228955D02*
X53383958Y-47190860D01*
X53383958Y-47190860D02*
X53345863Y-47152764D01*
X54069673Y-46428955D02*
X54336340Y-47228955D01*
X54336340Y-47228955D02*
X54603006Y-46428955D01*
X54793482Y-46428955D02*
X55288720Y-46428955D01*
X55288720Y-46428955D02*
X55022054Y-46733717D01*
X55022054Y-46733717D02*
X55136339Y-46733717D01*
X55136339Y-46733717D02*
X55212530Y-46771812D01*
X55212530Y-46771812D02*
X55250625Y-46809907D01*
X55250625Y-46809907D02*
X55288720Y-46886098D01*
X55288720Y-46886098D02*
X55288720Y-47076574D01*
X55288720Y-47076574D02*
X55250625Y-47152764D01*
X55250625Y-47152764D02*
X55212530Y-47190860D01*
X55212530Y-47190860D02*
X55136339Y-47228955D01*
X55136339Y-47228955D02*
X54907768Y-47228955D01*
X54907768Y-47228955D02*
X54831577Y-47190860D01*
X54831577Y-47190860D02*
X54793482Y-47152764D01*
X53841101Y-49042960D02*
X53764911Y-49004865D01*
X53764911Y-49004865D02*
X53650625Y-49004865D01*
X53650625Y-49004865D02*
X53536339Y-49042960D01*
X53536339Y-49042960D02*
X53460149Y-49119150D01*
X53460149Y-49119150D02*
X53422054Y-49195341D01*
X53422054Y-49195341D02*
X53383958Y-49347722D01*
X53383958Y-49347722D02*
X53383958Y-49462008D01*
X53383958Y-49462008D02*
X53422054Y-49614389D01*
X53422054Y-49614389D02*
X53460149Y-49690579D01*
X53460149Y-49690579D02*
X53536339Y-49766770D01*
X53536339Y-49766770D02*
X53650625Y-49804865D01*
X53650625Y-49804865D02*
X53726816Y-49804865D01*
X53726816Y-49804865D02*
X53841101Y-49766770D01*
X53841101Y-49766770D02*
X53879197Y-49728674D01*
X53879197Y-49728674D02*
X53879197Y-49462008D01*
X53879197Y-49462008D02*
X53726816Y-49462008D01*
X54222054Y-49804865D02*
X54222054Y-49004865D01*
X54222054Y-49004865D02*
X54679197Y-49804865D01*
X54679197Y-49804865D02*
X54679197Y-49004865D01*
X55060149Y-49804865D02*
X55060149Y-49004865D01*
X55060149Y-49004865D02*
X55250625Y-49004865D01*
X55250625Y-49004865D02*
X55364911Y-49042960D01*
X55364911Y-49042960D02*
X55441101Y-49119150D01*
X55441101Y-49119150D02*
X55479196Y-49195341D01*
X55479196Y-49195341D02*
X55517292Y-49347722D01*
X55517292Y-49347722D02*
X55517292Y-49462008D01*
X55517292Y-49462008D02*
X55479196Y-49614389D01*
X55479196Y-49614389D02*
X55441101Y-49690579D01*
X55441101Y-49690579D02*
X55364911Y-49766770D01*
X55364911Y-49766770D02*
X55250625Y-49804865D01*
X55250625Y-49804865D02*
X55060149Y-49804865D01*
X55669673Y-49881055D02*
X56279196Y-49881055D01*
X56888720Y-49804865D02*
X56431577Y-49804865D01*
X56660149Y-49804865D02*
X56660149Y-49004865D01*
X56660149Y-49004865D02*
X56583958Y-49119150D01*
X56583958Y-49119150D02*
X56507768Y-49195341D01*
X56507768Y-49195341D02*
X56431577Y-49233436D01*
X53841101Y-51618870D02*
X53764911Y-51580775D01*
X53764911Y-51580775D02*
X53650625Y-51580775D01*
X53650625Y-51580775D02*
X53536339Y-51618870D01*
X53536339Y-51618870D02*
X53460149Y-51695060D01*
X53460149Y-51695060D02*
X53422054Y-51771251D01*
X53422054Y-51771251D02*
X53383958Y-51923632D01*
X53383958Y-51923632D02*
X53383958Y-52037918D01*
X53383958Y-52037918D02*
X53422054Y-52190299D01*
X53422054Y-52190299D02*
X53460149Y-52266489D01*
X53460149Y-52266489D02*
X53536339Y-52342680D01*
X53536339Y-52342680D02*
X53650625Y-52380775D01*
X53650625Y-52380775D02*
X53726816Y-52380775D01*
X53726816Y-52380775D02*
X53841101Y-52342680D01*
X53841101Y-52342680D02*
X53879197Y-52304584D01*
X53879197Y-52304584D02*
X53879197Y-52037918D01*
X53879197Y-52037918D02*
X53726816Y-52037918D01*
X54222054Y-52380775D02*
X54222054Y-51580775D01*
X54222054Y-51580775D02*
X54526816Y-51580775D01*
X54526816Y-51580775D02*
X54603006Y-51618870D01*
X54603006Y-51618870D02*
X54641101Y-51656965D01*
X54641101Y-51656965D02*
X54679197Y-51733156D01*
X54679197Y-51733156D02*
X54679197Y-51847441D01*
X54679197Y-51847441D02*
X54641101Y-51923632D01*
X54641101Y-51923632D02*
X54603006Y-51961727D01*
X54603006Y-51961727D02*
X54526816Y-51999822D01*
X54526816Y-51999822D02*
X54222054Y-51999822D01*
X55022054Y-52380775D02*
X55022054Y-51580775D01*
X55555387Y-51580775D02*
X55707768Y-51580775D01*
X55707768Y-51580775D02*
X55783958Y-51618870D01*
X55783958Y-51618870D02*
X55860149Y-51695060D01*
X55860149Y-51695060D02*
X55898244Y-51847441D01*
X55898244Y-51847441D02*
X55898244Y-52114108D01*
X55898244Y-52114108D02*
X55860149Y-52266489D01*
X55860149Y-52266489D02*
X55783958Y-52342680D01*
X55783958Y-52342680D02*
X55707768Y-52380775D01*
X55707768Y-52380775D02*
X55555387Y-52380775D01*
X55555387Y-52380775D02*
X55479196Y-52342680D01*
X55479196Y-52342680D02*
X55403006Y-52266489D01*
X55403006Y-52266489D02*
X55364910Y-52114108D01*
X55364910Y-52114108D02*
X55364910Y-51847441D01*
X55364910Y-51847441D02*
X55403006Y-51695060D01*
X55403006Y-51695060D02*
X55479196Y-51618870D01*
X55479196Y-51618870D02*
X55555387Y-51580775D01*
X56660148Y-52380775D02*
X56203005Y-52380775D01*
X56431577Y-52380775D02*
X56431577Y-51580775D01*
X56431577Y-51580775D02*
X56355386Y-51695060D01*
X56355386Y-51695060D02*
X56279196Y-51771251D01*
X56279196Y-51771251D02*
X56203005Y-51809346D01*
X57383958Y-51580775D02*
X57003006Y-51580775D01*
X57003006Y-51580775D02*
X56964910Y-51961727D01*
X56964910Y-51961727D02*
X57003006Y-51923632D01*
X57003006Y-51923632D02*
X57079196Y-51885537D01*
X57079196Y-51885537D02*
X57269672Y-51885537D01*
X57269672Y-51885537D02*
X57345863Y-51923632D01*
X57345863Y-51923632D02*
X57383958Y-51961727D01*
X57383958Y-51961727D02*
X57422053Y-52037918D01*
X57422053Y-52037918D02*
X57422053Y-52228394D01*
X57422053Y-52228394D02*
X57383958Y-52304584D01*
X57383958Y-52304584D02*
X57345863Y-52342680D01*
X57345863Y-52342680D02*
X57269672Y-52380775D01*
X57269672Y-52380775D02*
X57079196Y-52380775D01*
X57079196Y-52380775D02*
X57003006Y-52342680D01*
X57003006Y-52342680D02*
X56964910Y-52304584D01*
X53841101Y-54194780D02*
X53764911Y-54156685D01*
X53764911Y-54156685D02*
X53650625Y-54156685D01*
X53650625Y-54156685D02*
X53536339Y-54194780D01*
X53536339Y-54194780D02*
X53460149Y-54270970D01*
X53460149Y-54270970D02*
X53422054Y-54347161D01*
X53422054Y-54347161D02*
X53383958Y-54499542D01*
X53383958Y-54499542D02*
X53383958Y-54613828D01*
X53383958Y-54613828D02*
X53422054Y-54766209D01*
X53422054Y-54766209D02*
X53460149Y-54842399D01*
X53460149Y-54842399D02*
X53536339Y-54918590D01*
X53536339Y-54918590D02*
X53650625Y-54956685D01*
X53650625Y-54956685D02*
X53726816Y-54956685D01*
X53726816Y-54956685D02*
X53841101Y-54918590D01*
X53841101Y-54918590D02*
X53879197Y-54880494D01*
X53879197Y-54880494D02*
X53879197Y-54613828D01*
X53879197Y-54613828D02*
X53726816Y-54613828D01*
X54222054Y-54956685D02*
X54222054Y-54156685D01*
X54222054Y-54156685D02*
X54526816Y-54156685D01*
X54526816Y-54156685D02*
X54603006Y-54194780D01*
X54603006Y-54194780D02*
X54641101Y-54232875D01*
X54641101Y-54232875D02*
X54679197Y-54309066D01*
X54679197Y-54309066D02*
X54679197Y-54423351D01*
X54679197Y-54423351D02*
X54641101Y-54499542D01*
X54641101Y-54499542D02*
X54603006Y-54537637D01*
X54603006Y-54537637D02*
X54526816Y-54575732D01*
X54526816Y-54575732D02*
X54222054Y-54575732D01*
X55022054Y-54956685D02*
X55022054Y-54156685D01*
X55555387Y-54156685D02*
X55707768Y-54156685D01*
X55707768Y-54156685D02*
X55783958Y-54194780D01*
X55783958Y-54194780D02*
X55860149Y-54270970D01*
X55860149Y-54270970D02*
X55898244Y-54423351D01*
X55898244Y-54423351D02*
X55898244Y-54690018D01*
X55898244Y-54690018D02*
X55860149Y-54842399D01*
X55860149Y-54842399D02*
X55783958Y-54918590D01*
X55783958Y-54918590D02*
X55707768Y-54956685D01*
X55707768Y-54956685D02*
X55555387Y-54956685D01*
X55555387Y-54956685D02*
X55479196Y-54918590D01*
X55479196Y-54918590D02*
X55403006Y-54842399D01*
X55403006Y-54842399D02*
X55364910Y-54690018D01*
X55364910Y-54690018D02*
X55364910Y-54423351D01*
X55364910Y-54423351D02*
X55403006Y-54270970D01*
X55403006Y-54270970D02*
X55479196Y-54194780D01*
X55479196Y-54194780D02*
X55555387Y-54156685D01*
X56203005Y-54232875D02*
X56241101Y-54194780D01*
X56241101Y-54194780D02*
X56317291Y-54156685D01*
X56317291Y-54156685D02*
X56507767Y-54156685D01*
X56507767Y-54156685D02*
X56583958Y-54194780D01*
X56583958Y-54194780D02*
X56622053Y-54232875D01*
X56622053Y-54232875D02*
X56660148Y-54309066D01*
X56660148Y-54309066D02*
X56660148Y-54385256D01*
X56660148Y-54385256D02*
X56622053Y-54499542D01*
X56622053Y-54499542D02*
X56164910Y-54956685D01*
X56164910Y-54956685D02*
X56660148Y-54956685D01*
X53841101Y-56770690D02*
X53764911Y-56732595D01*
X53764911Y-56732595D02*
X53650625Y-56732595D01*
X53650625Y-56732595D02*
X53536339Y-56770690D01*
X53536339Y-56770690D02*
X53460149Y-56846880D01*
X53460149Y-56846880D02*
X53422054Y-56923071D01*
X53422054Y-56923071D02*
X53383958Y-57075452D01*
X53383958Y-57075452D02*
X53383958Y-57189738D01*
X53383958Y-57189738D02*
X53422054Y-57342119D01*
X53422054Y-57342119D02*
X53460149Y-57418309D01*
X53460149Y-57418309D02*
X53536339Y-57494500D01*
X53536339Y-57494500D02*
X53650625Y-57532595D01*
X53650625Y-57532595D02*
X53726816Y-57532595D01*
X53726816Y-57532595D02*
X53841101Y-57494500D01*
X53841101Y-57494500D02*
X53879197Y-57456404D01*
X53879197Y-57456404D02*
X53879197Y-57189738D01*
X53879197Y-57189738D02*
X53726816Y-57189738D01*
X54222054Y-57532595D02*
X54222054Y-56732595D01*
X54222054Y-56732595D02*
X54526816Y-56732595D01*
X54526816Y-56732595D02*
X54603006Y-56770690D01*
X54603006Y-56770690D02*
X54641101Y-56808785D01*
X54641101Y-56808785D02*
X54679197Y-56884976D01*
X54679197Y-56884976D02*
X54679197Y-56999261D01*
X54679197Y-56999261D02*
X54641101Y-57075452D01*
X54641101Y-57075452D02*
X54603006Y-57113547D01*
X54603006Y-57113547D02*
X54526816Y-57151642D01*
X54526816Y-57151642D02*
X54222054Y-57151642D01*
X55022054Y-57532595D02*
X55022054Y-56732595D01*
X55555387Y-56732595D02*
X55707768Y-56732595D01*
X55707768Y-56732595D02*
X55783958Y-56770690D01*
X55783958Y-56770690D02*
X55860149Y-56846880D01*
X55860149Y-56846880D02*
X55898244Y-56999261D01*
X55898244Y-56999261D02*
X55898244Y-57265928D01*
X55898244Y-57265928D02*
X55860149Y-57418309D01*
X55860149Y-57418309D02*
X55783958Y-57494500D01*
X55783958Y-57494500D02*
X55707768Y-57532595D01*
X55707768Y-57532595D02*
X55555387Y-57532595D01*
X55555387Y-57532595D02*
X55479196Y-57494500D01*
X55479196Y-57494500D02*
X55403006Y-57418309D01*
X55403006Y-57418309D02*
X55364910Y-57265928D01*
X55364910Y-57265928D02*
X55364910Y-56999261D01*
X55364910Y-56999261D02*
X55403006Y-56846880D01*
X55403006Y-56846880D02*
X55479196Y-56770690D01*
X55479196Y-56770690D02*
X55555387Y-56732595D01*
X56583958Y-56999261D02*
X56583958Y-57532595D01*
X56393482Y-56694500D02*
X56203005Y-57265928D01*
X56203005Y-57265928D02*
X56698244Y-57265928D01*
X53841101Y-59346600D02*
X53764911Y-59308505D01*
X53764911Y-59308505D02*
X53650625Y-59308505D01*
X53650625Y-59308505D02*
X53536339Y-59346600D01*
X53536339Y-59346600D02*
X53460149Y-59422790D01*
X53460149Y-59422790D02*
X53422054Y-59498981D01*
X53422054Y-59498981D02*
X53383958Y-59651362D01*
X53383958Y-59651362D02*
X53383958Y-59765648D01*
X53383958Y-59765648D02*
X53422054Y-59918029D01*
X53422054Y-59918029D02*
X53460149Y-59994219D01*
X53460149Y-59994219D02*
X53536339Y-60070410D01*
X53536339Y-60070410D02*
X53650625Y-60108505D01*
X53650625Y-60108505D02*
X53726816Y-60108505D01*
X53726816Y-60108505D02*
X53841101Y-60070410D01*
X53841101Y-60070410D02*
X53879197Y-60032314D01*
X53879197Y-60032314D02*
X53879197Y-59765648D01*
X53879197Y-59765648D02*
X53726816Y-59765648D01*
X54222054Y-60108505D02*
X54222054Y-59308505D01*
X54222054Y-59308505D02*
X54526816Y-59308505D01*
X54526816Y-59308505D02*
X54603006Y-59346600D01*
X54603006Y-59346600D02*
X54641101Y-59384695D01*
X54641101Y-59384695D02*
X54679197Y-59460886D01*
X54679197Y-59460886D02*
X54679197Y-59575171D01*
X54679197Y-59575171D02*
X54641101Y-59651362D01*
X54641101Y-59651362D02*
X54603006Y-59689457D01*
X54603006Y-59689457D02*
X54526816Y-59727552D01*
X54526816Y-59727552D02*
X54222054Y-59727552D01*
X55022054Y-60108505D02*
X55022054Y-59308505D01*
X55555387Y-59308505D02*
X55707768Y-59308505D01*
X55707768Y-59308505D02*
X55783958Y-59346600D01*
X55783958Y-59346600D02*
X55860149Y-59422790D01*
X55860149Y-59422790D02*
X55898244Y-59575171D01*
X55898244Y-59575171D02*
X55898244Y-59841838D01*
X55898244Y-59841838D02*
X55860149Y-59994219D01*
X55860149Y-59994219D02*
X55783958Y-60070410D01*
X55783958Y-60070410D02*
X55707768Y-60108505D01*
X55707768Y-60108505D02*
X55555387Y-60108505D01*
X55555387Y-60108505D02*
X55479196Y-60070410D01*
X55479196Y-60070410D02*
X55403006Y-59994219D01*
X55403006Y-59994219D02*
X55364910Y-59841838D01*
X55364910Y-59841838D02*
X55364910Y-59575171D01*
X55364910Y-59575171D02*
X55403006Y-59422790D01*
X55403006Y-59422790D02*
X55479196Y-59346600D01*
X55479196Y-59346600D02*
X55555387Y-59308505D01*
X56660148Y-60108505D02*
X56203005Y-60108505D01*
X56431577Y-60108505D02*
X56431577Y-59308505D01*
X56431577Y-59308505D02*
X56355386Y-59422790D01*
X56355386Y-59422790D02*
X56279196Y-59498981D01*
X56279196Y-59498981D02*
X56203005Y-59537076D01*
X57345863Y-59308505D02*
X57193482Y-59308505D01*
X57193482Y-59308505D02*
X57117291Y-59346600D01*
X57117291Y-59346600D02*
X57079196Y-59384695D01*
X57079196Y-59384695D02*
X57003006Y-59498981D01*
X57003006Y-59498981D02*
X56964910Y-59651362D01*
X56964910Y-59651362D02*
X56964910Y-59956124D01*
X56964910Y-59956124D02*
X57003006Y-60032314D01*
X57003006Y-60032314D02*
X57041101Y-60070410D01*
X57041101Y-60070410D02*
X57117291Y-60108505D01*
X57117291Y-60108505D02*
X57269672Y-60108505D01*
X57269672Y-60108505D02*
X57345863Y-60070410D01*
X57345863Y-60070410D02*
X57383958Y-60032314D01*
X57383958Y-60032314D02*
X57422053Y-59956124D01*
X57422053Y-59956124D02*
X57422053Y-59765648D01*
X57422053Y-59765648D02*
X57383958Y-59689457D01*
X57383958Y-59689457D02*
X57345863Y-59651362D01*
X57345863Y-59651362D02*
X57269672Y-59613267D01*
X57269672Y-59613267D02*
X57117291Y-59613267D01*
X57117291Y-59613267D02*
X57041101Y-59651362D01*
X57041101Y-59651362D02*
X57003006Y-59689457D01*
X57003006Y-59689457D02*
X56964910Y-59765648D01*
X53841101Y-61922510D02*
X53764911Y-61884415D01*
X53764911Y-61884415D02*
X53650625Y-61884415D01*
X53650625Y-61884415D02*
X53536339Y-61922510D01*
X53536339Y-61922510D02*
X53460149Y-61998700D01*
X53460149Y-61998700D02*
X53422054Y-62074891D01*
X53422054Y-62074891D02*
X53383958Y-62227272D01*
X53383958Y-62227272D02*
X53383958Y-62341558D01*
X53383958Y-62341558D02*
X53422054Y-62493939D01*
X53422054Y-62493939D02*
X53460149Y-62570129D01*
X53460149Y-62570129D02*
X53536339Y-62646320D01*
X53536339Y-62646320D02*
X53650625Y-62684415D01*
X53650625Y-62684415D02*
X53726816Y-62684415D01*
X53726816Y-62684415D02*
X53841101Y-62646320D01*
X53841101Y-62646320D02*
X53879197Y-62608224D01*
X53879197Y-62608224D02*
X53879197Y-62341558D01*
X53879197Y-62341558D02*
X53726816Y-62341558D01*
X54222054Y-62684415D02*
X54222054Y-61884415D01*
X54222054Y-61884415D02*
X54526816Y-61884415D01*
X54526816Y-61884415D02*
X54603006Y-61922510D01*
X54603006Y-61922510D02*
X54641101Y-61960605D01*
X54641101Y-61960605D02*
X54679197Y-62036796D01*
X54679197Y-62036796D02*
X54679197Y-62151081D01*
X54679197Y-62151081D02*
X54641101Y-62227272D01*
X54641101Y-62227272D02*
X54603006Y-62265367D01*
X54603006Y-62265367D02*
X54526816Y-62303462D01*
X54526816Y-62303462D02*
X54222054Y-62303462D01*
X55022054Y-62684415D02*
X55022054Y-61884415D01*
X55555387Y-61884415D02*
X55707768Y-61884415D01*
X55707768Y-61884415D02*
X55783958Y-61922510D01*
X55783958Y-61922510D02*
X55860149Y-61998700D01*
X55860149Y-61998700D02*
X55898244Y-62151081D01*
X55898244Y-62151081D02*
X55898244Y-62417748D01*
X55898244Y-62417748D02*
X55860149Y-62570129D01*
X55860149Y-62570129D02*
X55783958Y-62646320D01*
X55783958Y-62646320D02*
X55707768Y-62684415D01*
X55707768Y-62684415D02*
X55555387Y-62684415D01*
X55555387Y-62684415D02*
X55479196Y-62646320D01*
X55479196Y-62646320D02*
X55403006Y-62570129D01*
X55403006Y-62570129D02*
X55364910Y-62417748D01*
X55364910Y-62417748D02*
X55364910Y-62151081D01*
X55364910Y-62151081D02*
X55403006Y-61998700D01*
X55403006Y-61998700D02*
X55479196Y-61922510D01*
X55479196Y-61922510D02*
X55555387Y-61884415D01*
X56660148Y-62684415D02*
X56203005Y-62684415D01*
X56431577Y-62684415D02*
X56431577Y-61884415D01*
X56431577Y-61884415D02*
X56355386Y-61998700D01*
X56355386Y-61998700D02*
X56279196Y-62074891D01*
X56279196Y-62074891D02*
X56203005Y-62112986D01*
X56926815Y-61884415D02*
X57460149Y-61884415D01*
X57460149Y-61884415D02*
X57117291Y-62684415D01*
X53841101Y-64498420D02*
X53764911Y-64460325D01*
X53764911Y-64460325D02*
X53650625Y-64460325D01*
X53650625Y-64460325D02*
X53536339Y-64498420D01*
X53536339Y-64498420D02*
X53460149Y-64574610D01*
X53460149Y-64574610D02*
X53422054Y-64650801D01*
X53422054Y-64650801D02*
X53383958Y-64803182D01*
X53383958Y-64803182D02*
X53383958Y-64917468D01*
X53383958Y-64917468D02*
X53422054Y-65069849D01*
X53422054Y-65069849D02*
X53460149Y-65146039D01*
X53460149Y-65146039D02*
X53536339Y-65222230D01*
X53536339Y-65222230D02*
X53650625Y-65260325D01*
X53650625Y-65260325D02*
X53726816Y-65260325D01*
X53726816Y-65260325D02*
X53841101Y-65222230D01*
X53841101Y-65222230D02*
X53879197Y-65184134D01*
X53879197Y-65184134D02*
X53879197Y-64917468D01*
X53879197Y-64917468D02*
X53726816Y-64917468D01*
X54222054Y-65260325D02*
X54222054Y-64460325D01*
X54222054Y-64460325D02*
X54526816Y-64460325D01*
X54526816Y-64460325D02*
X54603006Y-64498420D01*
X54603006Y-64498420D02*
X54641101Y-64536515D01*
X54641101Y-64536515D02*
X54679197Y-64612706D01*
X54679197Y-64612706D02*
X54679197Y-64726991D01*
X54679197Y-64726991D02*
X54641101Y-64803182D01*
X54641101Y-64803182D02*
X54603006Y-64841277D01*
X54603006Y-64841277D02*
X54526816Y-64879372D01*
X54526816Y-64879372D02*
X54222054Y-64879372D01*
X55022054Y-65260325D02*
X55022054Y-64460325D01*
X55555387Y-64460325D02*
X55707768Y-64460325D01*
X55707768Y-64460325D02*
X55783958Y-64498420D01*
X55783958Y-64498420D02*
X55860149Y-64574610D01*
X55860149Y-64574610D02*
X55898244Y-64726991D01*
X55898244Y-64726991D02*
X55898244Y-64993658D01*
X55898244Y-64993658D02*
X55860149Y-65146039D01*
X55860149Y-65146039D02*
X55783958Y-65222230D01*
X55783958Y-65222230D02*
X55707768Y-65260325D01*
X55707768Y-65260325D02*
X55555387Y-65260325D01*
X55555387Y-65260325D02*
X55479196Y-65222230D01*
X55479196Y-65222230D02*
X55403006Y-65146039D01*
X55403006Y-65146039D02*
X55364910Y-64993658D01*
X55364910Y-64993658D02*
X55364910Y-64726991D01*
X55364910Y-64726991D02*
X55403006Y-64574610D01*
X55403006Y-64574610D02*
X55479196Y-64498420D01*
X55479196Y-64498420D02*
X55555387Y-64460325D01*
X56622053Y-64460325D02*
X56241101Y-64460325D01*
X56241101Y-64460325D02*
X56203005Y-64841277D01*
X56203005Y-64841277D02*
X56241101Y-64803182D01*
X56241101Y-64803182D02*
X56317291Y-64765087D01*
X56317291Y-64765087D02*
X56507767Y-64765087D01*
X56507767Y-64765087D02*
X56583958Y-64803182D01*
X56583958Y-64803182D02*
X56622053Y-64841277D01*
X56622053Y-64841277D02*
X56660148Y-64917468D01*
X56660148Y-64917468D02*
X56660148Y-65107944D01*
X56660148Y-65107944D02*
X56622053Y-65184134D01*
X56622053Y-65184134D02*
X56583958Y-65222230D01*
X56583958Y-65222230D02*
X56507767Y-65260325D01*
X56507767Y-65260325D02*
X56317291Y-65260325D01*
X56317291Y-65260325D02*
X56241101Y-65222230D01*
X56241101Y-65222230D02*
X56203005Y-65184134D01*
X53841101Y-67074330D02*
X53764911Y-67036235D01*
X53764911Y-67036235D02*
X53650625Y-67036235D01*
X53650625Y-67036235D02*
X53536339Y-67074330D01*
X53536339Y-67074330D02*
X53460149Y-67150520D01*
X53460149Y-67150520D02*
X53422054Y-67226711D01*
X53422054Y-67226711D02*
X53383958Y-67379092D01*
X53383958Y-67379092D02*
X53383958Y-67493378D01*
X53383958Y-67493378D02*
X53422054Y-67645759D01*
X53422054Y-67645759D02*
X53460149Y-67721949D01*
X53460149Y-67721949D02*
X53536339Y-67798140D01*
X53536339Y-67798140D02*
X53650625Y-67836235D01*
X53650625Y-67836235D02*
X53726816Y-67836235D01*
X53726816Y-67836235D02*
X53841101Y-67798140D01*
X53841101Y-67798140D02*
X53879197Y-67760044D01*
X53879197Y-67760044D02*
X53879197Y-67493378D01*
X53879197Y-67493378D02*
X53726816Y-67493378D01*
X54222054Y-67836235D02*
X54222054Y-67036235D01*
X54222054Y-67036235D02*
X54526816Y-67036235D01*
X54526816Y-67036235D02*
X54603006Y-67074330D01*
X54603006Y-67074330D02*
X54641101Y-67112425D01*
X54641101Y-67112425D02*
X54679197Y-67188616D01*
X54679197Y-67188616D02*
X54679197Y-67302901D01*
X54679197Y-67302901D02*
X54641101Y-67379092D01*
X54641101Y-67379092D02*
X54603006Y-67417187D01*
X54603006Y-67417187D02*
X54526816Y-67455282D01*
X54526816Y-67455282D02*
X54222054Y-67455282D01*
X55022054Y-67836235D02*
X55022054Y-67036235D01*
X55555387Y-67036235D02*
X55707768Y-67036235D01*
X55707768Y-67036235D02*
X55783958Y-67074330D01*
X55783958Y-67074330D02*
X55860149Y-67150520D01*
X55860149Y-67150520D02*
X55898244Y-67302901D01*
X55898244Y-67302901D02*
X55898244Y-67569568D01*
X55898244Y-67569568D02*
X55860149Y-67721949D01*
X55860149Y-67721949D02*
X55783958Y-67798140D01*
X55783958Y-67798140D02*
X55707768Y-67836235D01*
X55707768Y-67836235D02*
X55555387Y-67836235D01*
X55555387Y-67836235D02*
X55479196Y-67798140D01*
X55479196Y-67798140D02*
X55403006Y-67721949D01*
X55403006Y-67721949D02*
X55364910Y-67569568D01*
X55364910Y-67569568D02*
X55364910Y-67302901D01*
X55364910Y-67302901D02*
X55403006Y-67150520D01*
X55403006Y-67150520D02*
X55479196Y-67074330D01*
X55479196Y-67074330D02*
X55555387Y-67036235D01*
X56660148Y-67836235D02*
X56203005Y-67836235D01*
X56431577Y-67836235D02*
X56431577Y-67036235D01*
X56431577Y-67036235D02*
X56355386Y-67150520D01*
X56355386Y-67150520D02*
X56279196Y-67226711D01*
X56279196Y-67226711D02*
X56203005Y-67264806D01*
X57117291Y-67379092D02*
X57041101Y-67340997D01*
X57041101Y-67340997D02*
X57003006Y-67302901D01*
X57003006Y-67302901D02*
X56964910Y-67226711D01*
X56964910Y-67226711D02*
X56964910Y-67188616D01*
X56964910Y-67188616D02*
X57003006Y-67112425D01*
X57003006Y-67112425D02*
X57041101Y-67074330D01*
X57041101Y-67074330D02*
X57117291Y-67036235D01*
X57117291Y-67036235D02*
X57269672Y-67036235D01*
X57269672Y-67036235D02*
X57345863Y-67074330D01*
X57345863Y-67074330D02*
X57383958Y-67112425D01*
X57383958Y-67112425D02*
X57422053Y-67188616D01*
X57422053Y-67188616D02*
X57422053Y-67226711D01*
X57422053Y-67226711D02*
X57383958Y-67302901D01*
X57383958Y-67302901D02*
X57345863Y-67340997D01*
X57345863Y-67340997D02*
X57269672Y-67379092D01*
X57269672Y-67379092D02*
X57117291Y-67379092D01*
X57117291Y-67379092D02*
X57041101Y-67417187D01*
X57041101Y-67417187D02*
X57003006Y-67455282D01*
X57003006Y-67455282D02*
X56964910Y-67531473D01*
X56964910Y-67531473D02*
X56964910Y-67683854D01*
X56964910Y-67683854D02*
X57003006Y-67760044D01*
X57003006Y-67760044D02*
X57041101Y-67798140D01*
X57041101Y-67798140D02*
X57117291Y-67836235D01*
X57117291Y-67836235D02*
X57269672Y-67836235D01*
X57269672Y-67836235D02*
X57345863Y-67798140D01*
X57345863Y-67798140D02*
X57383958Y-67760044D01*
X57383958Y-67760044D02*
X57422053Y-67683854D01*
X57422053Y-67683854D02*
X57422053Y-67531473D01*
X57422053Y-67531473D02*
X57383958Y-67455282D01*
X57383958Y-67455282D02*
X57345863Y-67417187D01*
X57345863Y-67417187D02*
X57269672Y-67379092D01*
X53841101Y-69650240D02*
X53764911Y-69612145D01*
X53764911Y-69612145D02*
X53650625Y-69612145D01*
X53650625Y-69612145D02*
X53536339Y-69650240D01*
X53536339Y-69650240D02*
X53460149Y-69726430D01*
X53460149Y-69726430D02*
X53422054Y-69802621D01*
X53422054Y-69802621D02*
X53383958Y-69955002D01*
X53383958Y-69955002D02*
X53383958Y-70069288D01*
X53383958Y-70069288D02*
X53422054Y-70221669D01*
X53422054Y-70221669D02*
X53460149Y-70297859D01*
X53460149Y-70297859D02*
X53536339Y-70374050D01*
X53536339Y-70374050D02*
X53650625Y-70412145D01*
X53650625Y-70412145D02*
X53726816Y-70412145D01*
X53726816Y-70412145D02*
X53841101Y-70374050D01*
X53841101Y-70374050D02*
X53879197Y-70335954D01*
X53879197Y-70335954D02*
X53879197Y-70069288D01*
X53879197Y-70069288D02*
X53726816Y-70069288D01*
X54222054Y-70412145D02*
X54222054Y-69612145D01*
X54222054Y-69612145D02*
X54526816Y-69612145D01*
X54526816Y-69612145D02*
X54603006Y-69650240D01*
X54603006Y-69650240D02*
X54641101Y-69688335D01*
X54641101Y-69688335D02*
X54679197Y-69764526D01*
X54679197Y-69764526D02*
X54679197Y-69878811D01*
X54679197Y-69878811D02*
X54641101Y-69955002D01*
X54641101Y-69955002D02*
X54603006Y-69993097D01*
X54603006Y-69993097D02*
X54526816Y-70031192D01*
X54526816Y-70031192D02*
X54222054Y-70031192D01*
X55022054Y-70412145D02*
X55022054Y-69612145D01*
X55555387Y-69612145D02*
X55707768Y-69612145D01*
X55707768Y-69612145D02*
X55783958Y-69650240D01*
X55783958Y-69650240D02*
X55860149Y-69726430D01*
X55860149Y-69726430D02*
X55898244Y-69878811D01*
X55898244Y-69878811D02*
X55898244Y-70145478D01*
X55898244Y-70145478D02*
X55860149Y-70297859D01*
X55860149Y-70297859D02*
X55783958Y-70374050D01*
X55783958Y-70374050D02*
X55707768Y-70412145D01*
X55707768Y-70412145D02*
X55555387Y-70412145D01*
X55555387Y-70412145D02*
X55479196Y-70374050D01*
X55479196Y-70374050D02*
X55403006Y-70297859D01*
X55403006Y-70297859D02*
X55364910Y-70145478D01*
X55364910Y-70145478D02*
X55364910Y-69878811D01*
X55364910Y-69878811D02*
X55403006Y-69726430D01*
X55403006Y-69726430D02*
X55479196Y-69650240D01*
X55479196Y-69650240D02*
X55555387Y-69612145D01*
X56660148Y-70412145D02*
X56203005Y-70412145D01*
X56431577Y-70412145D02*
X56431577Y-69612145D01*
X56431577Y-69612145D02*
X56355386Y-69726430D01*
X56355386Y-69726430D02*
X56279196Y-69802621D01*
X56279196Y-69802621D02*
X56203005Y-69840716D01*
X57041101Y-70412145D02*
X57193482Y-70412145D01*
X57193482Y-70412145D02*
X57269672Y-70374050D01*
X57269672Y-70374050D02*
X57307768Y-70335954D01*
X57307768Y-70335954D02*
X57383958Y-70221669D01*
X57383958Y-70221669D02*
X57422053Y-70069288D01*
X57422053Y-70069288D02*
X57422053Y-69764526D01*
X57422053Y-69764526D02*
X57383958Y-69688335D01*
X57383958Y-69688335D02*
X57345863Y-69650240D01*
X57345863Y-69650240D02*
X57269672Y-69612145D01*
X57269672Y-69612145D02*
X57117291Y-69612145D01*
X57117291Y-69612145D02*
X57041101Y-69650240D01*
X57041101Y-69650240D02*
X57003006Y-69688335D01*
X57003006Y-69688335D02*
X56964910Y-69764526D01*
X56964910Y-69764526D02*
X56964910Y-69955002D01*
X56964910Y-69955002D02*
X57003006Y-70031192D01*
X57003006Y-70031192D02*
X57041101Y-70069288D01*
X57041101Y-70069288D02*
X57117291Y-70107383D01*
X57117291Y-70107383D02*
X57269672Y-70107383D01*
X57269672Y-70107383D02*
X57345863Y-70069288D01*
X57345863Y-70069288D02*
X57383958Y-70031192D01*
X57383958Y-70031192D02*
X57422053Y-69955002D01*
X53841101Y-72226150D02*
X53764911Y-72188055D01*
X53764911Y-72188055D02*
X53650625Y-72188055D01*
X53650625Y-72188055D02*
X53536339Y-72226150D01*
X53536339Y-72226150D02*
X53460149Y-72302340D01*
X53460149Y-72302340D02*
X53422054Y-72378531D01*
X53422054Y-72378531D02*
X53383958Y-72530912D01*
X53383958Y-72530912D02*
X53383958Y-72645198D01*
X53383958Y-72645198D02*
X53422054Y-72797579D01*
X53422054Y-72797579D02*
X53460149Y-72873769D01*
X53460149Y-72873769D02*
X53536339Y-72949960D01*
X53536339Y-72949960D02*
X53650625Y-72988055D01*
X53650625Y-72988055D02*
X53726816Y-72988055D01*
X53726816Y-72988055D02*
X53841101Y-72949960D01*
X53841101Y-72949960D02*
X53879197Y-72911864D01*
X53879197Y-72911864D02*
X53879197Y-72645198D01*
X53879197Y-72645198D02*
X53726816Y-72645198D01*
X54222054Y-72988055D02*
X54222054Y-72188055D01*
X54222054Y-72188055D02*
X54526816Y-72188055D01*
X54526816Y-72188055D02*
X54603006Y-72226150D01*
X54603006Y-72226150D02*
X54641101Y-72264245D01*
X54641101Y-72264245D02*
X54679197Y-72340436D01*
X54679197Y-72340436D02*
X54679197Y-72454721D01*
X54679197Y-72454721D02*
X54641101Y-72530912D01*
X54641101Y-72530912D02*
X54603006Y-72569007D01*
X54603006Y-72569007D02*
X54526816Y-72607102D01*
X54526816Y-72607102D02*
X54222054Y-72607102D01*
X55022054Y-72988055D02*
X55022054Y-72188055D01*
X55555387Y-72188055D02*
X55707768Y-72188055D01*
X55707768Y-72188055D02*
X55783958Y-72226150D01*
X55783958Y-72226150D02*
X55860149Y-72302340D01*
X55860149Y-72302340D02*
X55898244Y-72454721D01*
X55898244Y-72454721D02*
X55898244Y-72721388D01*
X55898244Y-72721388D02*
X55860149Y-72873769D01*
X55860149Y-72873769D02*
X55783958Y-72949960D01*
X55783958Y-72949960D02*
X55707768Y-72988055D01*
X55707768Y-72988055D02*
X55555387Y-72988055D01*
X55555387Y-72988055D02*
X55479196Y-72949960D01*
X55479196Y-72949960D02*
X55403006Y-72873769D01*
X55403006Y-72873769D02*
X55364910Y-72721388D01*
X55364910Y-72721388D02*
X55364910Y-72454721D01*
X55364910Y-72454721D02*
X55403006Y-72302340D01*
X55403006Y-72302340D02*
X55479196Y-72226150D01*
X55479196Y-72226150D02*
X55555387Y-72188055D01*
X56203005Y-72264245D02*
X56241101Y-72226150D01*
X56241101Y-72226150D02*
X56317291Y-72188055D01*
X56317291Y-72188055D02*
X56507767Y-72188055D01*
X56507767Y-72188055D02*
X56583958Y-72226150D01*
X56583958Y-72226150D02*
X56622053Y-72264245D01*
X56622053Y-72264245D02*
X56660148Y-72340436D01*
X56660148Y-72340436D02*
X56660148Y-72416626D01*
X56660148Y-72416626D02*
X56622053Y-72530912D01*
X56622053Y-72530912D02*
X56164910Y-72988055D01*
X56164910Y-72988055D02*
X56660148Y-72988055D01*
X57422053Y-72988055D02*
X56964910Y-72988055D01*
X57193482Y-72988055D02*
X57193482Y-72188055D01*
X57193482Y-72188055D02*
X57117291Y-72302340D01*
X57117291Y-72302340D02*
X57041101Y-72378531D01*
X57041101Y-72378531D02*
X56964910Y-72416626D01*
X53841101Y-74802060D02*
X53764911Y-74763965D01*
X53764911Y-74763965D02*
X53650625Y-74763965D01*
X53650625Y-74763965D02*
X53536339Y-74802060D01*
X53536339Y-74802060D02*
X53460149Y-74878250D01*
X53460149Y-74878250D02*
X53422054Y-74954441D01*
X53422054Y-74954441D02*
X53383958Y-75106822D01*
X53383958Y-75106822D02*
X53383958Y-75221108D01*
X53383958Y-75221108D02*
X53422054Y-75373489D01*
X53422054Y-75373489D02*
X53460149Y-75449679D01*
X53460149Y-75449679D02*
X53536339Y-75525870D01*
X53536339Y-75525870D02*
X53650625Y-75563965D01*
X53650625Y-75563965D02*
X53726816Y-75563965D01*
X53726816Y-75563965D02*
X53841101Y-75525870D01*
X53841101Y-75525870D02*
X53879197Y-75487774D01*
X53879197Y-75487774D02*
X53879197Y-75221108D01*
X53879197Y-75221108D02*
X53726816Y-75221108D01*
X54222054Y-75563965D02*
X54222054Y-74763965D01*
X54222054Y-74763965D02*
X54526816Y-74763965D01*
X54526816Y-74763965D02*
X54603006Y-74802060D01*
X54603006Y-74802060D02*
X54641101Y-74840155D01*
X54641101Y-74840155D02*
X54679197Y-74916346D01*
X54679197Y-74916346D02*
X54679197Y-75030631D01*
X54679197Y-75030631D02*
X54641101Y-75106822D01*
X54641101Y-75106822D02*
X54603006Y-75144917D01*
X54603006Y-75144917D02*
X54526816Y-75183012D01*
X54526816Y-75183012D02*
X54222054Y-75183012D01*
X55022054Y-75563965D02*
X55022054Y-74763965D01*
X55555387Y-74763965D02*
X55707768Y-74763965D01*
X55707768Y-74763965D02*
X55783958Y-74802060D01*
X55783958Y-74802060D02*
X55860149Y-74878250D01*
X55860149Y-74878250D02*
X55898244Y-75030631D01*
X55898244Y-75030631D02*
X55898244Y-75297298D01*
X55898244Y-75297298D02*
X55860149Y-75449679D01*
X55860149Y-75449679D02*
X55783958Y-75525870D01*
X55783958Y-75525870D02*
X55707768Y-75563965D01*
X55707768Y-75563965D02*
X55555387Y-75563965D01*
X55555387Y-75563965D02*
X55479196Y-75525870D01*
X55479196Y-75525870D02*
X55403006Y-75449679D01*
X55403006Y-75449679D02*
X55364910Y-75297298D01*
X55364910Y-75297298D02*
X55364910Y-75030631D01*
X55364910Y-75030631D02*
X55403006Y-74878250D01*
X55403006Y-74878250D02*
X55479196Y-74802060D01*
X55479196Y-74802060D02*
X55555387Y-74763965D01*
X56164910Y-74763965D02*
X56660148Y-74763965D01*
X56660148Y-74763965D02*
X56393482Y-75068727D01*
X56393482Y-75068727D02*
X56507767Y-75068727D01*
X56507767Y-75068727D02*
X56583958Y-75106822D01*
X56583958Y-75106822D02*
X56622053Y-75144917D01*
X56622053Y-75144917D02*
X56660148Y-75221108D01*
X56660148Y-75221108D02*
X56660148Y-75411584D01*
X56660148Y-75411584D02*
X56622053Y-75487774D01*
X56622053Y-75487774D02*
X56583958Y-75525870D01*
X56583958Y-75525870D02*
X56507767Y-75563965D01*
X56507767Y-75563965D02*
X56279196Y-75563965D01*
X56279196Y-75563965D02*
X56203005Y-75525870D01*
X56203005Y-75525870D02*
X56164910Y-75487774D01*
X53841101Y-77377970D02*
X53764911Y-77339875D01*
X53764911Y-77339875D02*
X53650625Y-77339875D01*
X53650625Y-77339875D02*
X53536339Y-77377970D01*
X53536339Y-77377970D02*
X53460149Y-77454160D01*
X53460149Y-77454160D02*
X53422054Y-77530351D01*
X53422054Y-77530351D02*
X53383958Y-77682732D01*
X53383958Y-77682732D02*
X53383958Y-77797018D01*
X53383958Y-77797018D02*
X53422054Y-77949399D01*
X53422054Y-77949399D02*
X53460149Y-78025589D01*
X53460149Y-78025589D02*
X53536339Y-78101780D01*
X53536339Y-78101780D02*
X53650625Y-78139875D01*
X53650625Y-78139875D02*
X53726816Y-78139875D01*
X53726816Y-78139875D02*
X53841101Y-78101780D01*
X53841101Y-78101780D02*
X53879197Y-78063684D01*
X53879197Y-78063684D02*
X53879197Y-77797018D01*
X53879197Y-77797018D02*
X53726816Y-77797018D01*
X54222054Y-78139875D02*
X54222054Y-77339875D01*
X54222054Y-77339875D02*
X54526816Y-77339875D01*
X54526816Y-77339875D02*
X54603006Y-77377970D01*
X54603006Y-77377970D02*
X54641101Y-77416065D01*
X54641101Y-77416065D02*
X54679197Y-77492256D01*
X54679197Y-77492256D02*
X54679197Y-77606541D01*
X54679197Y-77606541D02*
X54641101Y-77682732D01*
X54641101Y-77682732D02*
X54603006Y-77720827D01*
X54603006Y-77720827D02*
X54526816Y-77758922D01*
X54526816Y-77758922D02*
X54222054Y-77758922D01*
X55022054Y-78139875D02*
X55022054Y-77339875D01*
X55555387Y-77339875D02*
X55707768Y-77339875D01*
X55707768Y-77339875D02*
X55783958Y-77377970D01*
X55783958Y-77377970D02*
X55860149Y-77454160D01*
X55860149Y-77454160D02*
X55898244Y-77606541D01*
X55898244Y-77606541D02*
X55898244Y-77873208D01*
X55898244Y-77873208D02*
X55860149Y-78025589D01*
X55860149Y-78025589D02*
X55783958Y-78101780D01*
X55783958Y-78101780D02*
X55707768Y-78139875D01*
X55707768Y-78139875D02*
X55555387Y-78139875D01*
X55555387Y-78139875D02*
X55479196Y-78101780D01*
X55479196Y-78101780D02*
X55403006Y-78025589D01*
X55403006Y-78025589D02*
X55364910Y-77873208D01*
X55364910Y-77873208D02*
X55364910Y-77606541D01*
X55364910Y-77606541D02*
X55403006Y-77454160D01*
X55403006Y-77454160D02*
X55479196Y-77377970D01*
X55479196Y-77377970D02*
X55555387Y-77339875D01*
X56660148Y-78139875D02*
X56203005Y-78139875D01*
X56431577Y-78139875D02*
X56431577Y-77339875D01*
X56431577Y-77339875D02*
X56355386Y-77454160D01*
X56355386Y-77454160D02*
X56279196Y-77530351D01*
X56279196Y-77530351D02*
X56203005Y-77568446D01*
X53841101Y-79953880D02*
X53764911Y-79915785D01*
X53764911Y-79915785D02*
X53650625Y-79915785D01*
X53650625Y-79915785D02*
X53536339Y-79953880D01*
X53536339Y-79953880D02*
X53460149Y-80030070D01*
X53460149Y-80030070D02*
X53422054Y-80106261D01*
X53422054Y-80106261D02*
X53383958Y-80258642D01*
X53383958Y-80258642D02*
X53383958Y-80372928D01*
X53383958Y-80372928D02*
X53422054Y-80525309D01*
X53422054Y-80525309D02*
X53460149Y-80601499D01*
X53460149Y-80601499D02*
X53536339Y-80677690D01*
X53536339Y-80677690D02*
X53650625Y-80715785D01*
X53650625Y-80715785D02*
X53726816Y-80715785D01*
X53726816Y-80715785D02*
X53841101Y-80677690D01*
X53841101Y-80677690D02*
X53879197Y-80639594D01*
X53879197Y-80639594D02*
X53879197Y-80372928D01*
X53879197Y-80372928D02*
X53726816Y-80372928D01*
X54222054Y-80715785D02*
X54222054Y-79915785D01*
X54222054Y-79915785D02*
X54526816Y-79915785D01*
X54526816Y-79915785D02*
X54603006Y-79953880D01*
X54603006Y-79953880D02*
X54641101Y-79991975D01*
X54641101Y-79991975D02*
X54679197Y-80068166D01*
X54679197Y-80068166D02*
X54679197Y-80182451D01*
X54679197Y-80182451D02*
X54641101Y-80258642D01*
X54641101Y-80258642D02*
X54603006Y-80296737D01*
X54603006Y-80296737D02*
X54526816Y-80334832D01*
X54526816Y-80334832D02*
X54222054Y-80334832D01*
X55022054Y-80715785D02*
X55022054Y-79915785D01*
X55555387Y-79915785D02*
X55707768Y-79915785D01*
X55707768Y-79915785D02*
X55783958Y-79953880D01*
X55783958Y-79953880D02*
X55860149Y-80030070D01*
X55860149Y-80030070D02*
X55898244Y-80182451D01*
X55898244Y-80182451D02*
X55898244Y-80449118D01*
X55898244Y-80449118D02*
X55860149Y-80601499D01*
X55860149Y-80601499D02*
X55783958Y-80677690D01*
X55783958Y-80677690D02*
X55707768Y-80715785D01*
X55707768Y-80715785D02*
X55555387Y-80715785D01*
X55555387Y-80715785D02*
X55479196Y-80677690D01*
X55479196Y-80677690D02*
X55403006Y-80601499D01*
X55403006Y-80601499D02*
X55364910Y-80449118D01*
X55364910Y-80449118D02*
X55364910Y-80182451D01*
X55364910Y-80182451D02*
X55403006Y-80030070D01*
X55403006Y-80030070D02*
X55479196Y-79953880D01*
X55479196Y-79953880D02*
X55555387Y-79915785D01*
X56203005Y-79991975D02*
X56241101Y-79953880D01*
X56241101Y-79953880D02*
X56317291Y-79915785D01*
X56317291Y-79915785D02*
X56507767Y-79915785D01*
X56507767Y-79915785D02*
X56583958Y-79953880D01*
X56583958Y-79953880D02*
X56622053Y-79991975D01*
X56622053Y-79991975D02*
X56660148Y-80068166D01*
X56660148Y-80068166D02*
X56660148Y-80144356D01*
X56660148Y-80144356D02*
X56622053Y-80258642D01*
X56622053Y-80258642D02*
X56164910Y-80715785D01*
X56164910Y-80715785D02*
X56660148Y-80715785D01*
X56964910Y-79991975D02*
X57003006Y-79953880D01*
X57003006Y-79953880D02*
X57079196Y-79915785D01*
X57079196Y-79915785D02*
X57269672Y-79915785D01*
X57269672Y-79915785D02*
X57345863Y-79953880D01*
X57345863Y-79953880D02*
X57383958Y-79991975D01*
X57383958Y-79991975D02*
X57422053Y-80068166D01*
X57422053Y-80068166D02*
X57422053Y-80144356D01*
X57422053Y-80144356D02*
X57383958Y-80258642D01*
X57383958Y-80258642D02*
X56926815Y-80715785D01*
X56926815Y-80715785D02*
X57422053Y-80715785D01*
X53841101Y-82529790D02*
X53764911Y-82491695D01*
X53764911Y-82491695D02*
X53650625Y-82491695D01*
X53650625Y-82491695D02*
X53536339Y-82529790D01*
X53536339Y-82529790D02*
X53460149Y-82605980D01*
X53460149Y-82605980D02*
X53422054Y-82682171D01*
X53422054Y-82682171D02*
X53383958Y-82834552D01*
X53383958Y-82834552D02*
X53383958Y-82948838D01*
X53383958Y-82948838D02*
X53422054Y-83101219D01*
X53422054Y-83101219D02*
X53460149Y-83177409D01*
X53460149Y-83177409D02*
X53536339Y-83253600D01*
X53536339Y-83253600D02*
X53650625Y-83291695D01*
X53650625Y-83291695D02*
X53726816Y-83291695D01*
X53726816Y-83291695D02*
X53841101Y-83253600D01*
X53841101Y-83253600D02*
X53879197Y-83215504D01*
X53879197Y-83215504D02*
X53879197Y-82948838D01*
X53879197Y-82948838D02*
X53726816Y-82948838D01*
X54222054Y-83291695D02*
X54222054Y-82491695D01*
X54222054Y-82491695D02*
X54526816Y-82491695D01*
X54526816Y-82491695D02*
X54603006Y-82529790D01*
X54603006Y-82529790D02*
X54641101Y-82567885D01*
X54641101Y-82567885D02*
X54679197Y-82644076D01*
X54679197Y-82644076D02*
X54679197Y-82758361D01*
X54679197Y-82758361D02*
X54641101Y-82834552D01*
X54641101Y-82834552D02*
X54603006Y-82872647D01*
X54603006Y-82872647D02*
X54526816Y-82910742D01*
X54526816Y-82910742D02*
X54222054Y-82910742D01*
X55022054Y-83291695D02*
X55022054Y-82491695D01*
X55555387Y-82491695D02*
X55707768Y-82491695D01*
X55707768Y-82491695D02*
X55783958Y-82529790D01*
X55783958Y-82529790D02*
X55860149Y-82605980D01*
X55860149Y-82605980D02*
X55898244Y-82758361D01*
X55898244Y-82758361D02*
X55898244Y-83025028D01*
X55898244Y-83025028D02*
X55860149Y-83177409D01*
X55860149Y-83177409D02*
X55783958Y-83253600D01*
X55783958Y-83253600D02*
X55707768Y-83291695D01*
X55707768Y-83291695D02*
X55555387Y-83291695D01*
X55555387Y-83291695D02*
X55479196Y-83253600D01*
X55479196Y-83253600D02*
X55403006Y-83177409D01*
X55403006Y-83177409D02*
X55364910Y-83025028D01*
X55364910Y-83025028D02*
X55364910Y-82758361D01*
X55364910Y-82758361D02*
X55403006Y-82605980D01*
X55403006Y-82605980D02*
X55479196Y-82529790D01*
X55479196Y-82529790D02*
X55555387Y-82491695D01*
X56203005Y-82567885D02*
X56241101Y-82529790D01*
X56241101Y-82529790D02*
X56317291Y-82491695D01*
X56317291Y-82491695D02*
X56507767Y-82491695D01*
X56507767Y-82491695D02*
X56583958Y-82529790D01*
X56583958Y-82529790D02*
X56622053Y-82567885D01*
X56622053Y-82567885D02*
X56660148Y-82644076D01*
X56660148Y-82644076D02*
X56660148Y-82720266D01*
X56660148Y-82720266D02*
X56622053Y-82834552D01*
X56622053Y-82834552D02*
X56164910Y-83291695D01*
X56164910Y-83291695D02*
X56660148Y-83291695D01*
X56926815Y-82491695D02*
X57422053Y-82491695D01*
X57422053Y-82491695D02*
X57155387Y-82796457D01*
X57155387Y-82796457D02*
X57269672Y-82796457D01*
X57269672Y-82796457D02*
X57345863Y-82834552D01*
X57345863Y-82834552D02*
X57383958Y-82872647D01*
X57383958Y-82872647D02*
X57422053Y-82948838D01*
X57422053Y-82948838D02*
X57422053Y-83139314D01*
X57422053Y-83139314D02*
X57383958Y-83215504D01*
X57383958Y-83215504D02*
X57345863Y-83253600D01*
X57345863Y-83253600D02*
X57269672Y-83291695D01*
X57269672Y-83291695D02*
X57041101Y-83291695D01*
X57041101Y-83291695D02*
X56964910Y-83253600D01*
X56964910Y-83253600D02*
X56926815Y-83215504D01*
D10*
D11*
X62577946Y-46428955D02*
X62844613Y-47228955D01*
X62844613Y-47228955D02*
X63111279Y-46428955D01*
X63377946Y-47228955D02*
X63377946Y-46428955D01*
X63758898Y-47228955D02*
X63758898Y-46428955D01*
X63758898Y-46428955D02*
X64216041Y-47228955D01*
X64216041Y-47228955D02*
X64216041Y-46428955D01*
X65016040Y-47228955D02*
X64558897Y-47228955D01*
X64787469Y-47228955D02*
X64787469Y-46428955D01*
X64787469Y-46428955D02*
X64711278Y-46543240D01*
X64711278Y-46543240D02*
X64635088Y-46619431D01*
X64635088Y-46619431D02*
X64558897Y-46657526D01*
X61968421Y-49042960D02*
X61892231Y-49004865D01*
X61892231Y-49004865D02*
X61777945Y-49004865D01*
X61777945Y-49004865D02*
X61663659Y-49042960D01*
X61663659Y-49042960D02*
X61587469Y-49119150D01*
X61587469Y-49119150D02*
X61549374Y-49195341D01*
X61549374Y-49195341D02*
X61511278Y-49347722D01*
X61511278Y-49347722D02*
X61511278Y-49462008D01*
X61511278Y-49462008D02*
X61549374Y-49614389D01*
X61549374Y-49614389D02*
X61587469Y-49690579D01*
X61587469Y-49690579D02*
X61663659Y-49766770D01*
X61663659Y-49766770D02*
X61777945Y-49804865D01*
X61777945Y-49804865D02*
X61854136Y-49804865D01*
X61854136Y-49804865D02*
X61968421Y-49766770D01*
X61968421Y-49766770D02*
X62006517Y-49728674D01*
X62006517Y-49728674D02*
X62006517Y-49462008D01*
X62006517Y-49462008D02*
X61854136Y-49462008D01*
X62349374Y-49804865D02*
X62349374Y-49004865D01*
X62349374Y-49004865D02*
X62806517Y-49804865D01*
X62806517Y-49804865D02*
X62806517Y-49004865D01*
X63187469Y-49804865D02*
X63187469Y-49004865D01*
X63187469Y-49004865D02*
X63377945Y-49004865D01*
X63377945Y-49004865D02*
X63492231Y-49042960D01*
X63492231Y-49042960D02*
X63568421Y-49119150D01*
X63568421Y-49119150D02*
X63606516Y-49195341D01*
X63606516Y-49195341D02*
X63644612Y-49347722D01*
X63644612Y-49347722D02*
X63644612Y-49462008D01*
X63644612Y-49462008D02*
X63606516Y-49614389D01*
X63606516Y-49614389D02*
X63568421Y-49690579D01*
X63568421Y-49690579D02*
X63492231Y-49766770D01*
X63492231Y-49766770D02*
X63377945Y-49804865D01*
X63377945Y-49804865D02*
X63187469Y-49804865D01*
X63796993Y-49881055D02*
X64406516Y-49881055D01*
X64558897Y-49081055D02*
X64596993Y-49042960D01*
X64596993Y-49042960D02*
X64673183Y-49004865D01*
X64673183Y-49004865D02*
X64863659Y-49004865D01*
X64863659Y-49004865D02*
X64939850Y-49042960D01*
X64939850Y-49042960D02*
X64977945Y-49081055D01*
X64977945Y-49081055D02*
X65016040Y-49157246D01*
X65016040Y-49157246D02*
X65016040Y-49233436D01*
X65016040Y-49233436D02*
X64977945Y-49347722D01*
X64977945Y-49347722D02*
X64520802Y-49804865D01*
X64520802Y-49804865D02*
X65016040Y-49804865D01*
X61435088Y-51618870D02*
X61358898Y-51580775D01*
X61358898Y-51580775D02*
X61244612Y-51580775D01*
X61244612Y-51580775D02*
X61130326Y-51618870D01*
X61130326Y-51618870D02*
X61054136Y-51695060D01*
X61054136Y-51695060D02*
X61016041Y-51771251D01*
X61016041Y-51771251D02*
X60977945Y-51923632D01*
X60977945Y-51923632D02*
X60977945Y-52037918D01*
X60977945Y-52037918D02*
X61016041Y-52190299D01*
X61016041Y-52190299D02*
X61054136Y-52266489D01*
X61054136Y-52266489D02*
X61130326Y-52342680D01*
X61130326Y-52342680D02*
X61244612Y-52380775D01*
X61244612Y-52380775D02*
X61320803Y-52380775D01*
X61320803Y-52380775D02*
X61435088Y-52342680D01*
X61435088Y-52342680D02*
X61473184Y-52304584D01*
X61473184Y-52304584D02*
X61473184Y-52037918D01*
X61473184Y-52037918D02*
X61320803Y-52037918D01*
X61816041Y-52380775D02*
X61816041Y-51580775D01*
X61816041Y-51580775D02*
X62120803Y-51580775D01*
X62120803Y-51580775D02*
X62196993Y-51618870D01*
X62196993Y-51618870D02*
X62235088Y-51656965D01*
X62235088Y-51656965D02*
X62273184Y-51733156D01*
X62273184Y-51733156D02*
X62273184Y-51847441D01*
X62273184Y-51847441D02*
X62235088Y-51923632D01*
X62235088Y-51923632D02*
X62196993Y-51961727D01*
X62196993Y-51961727D02*
X62120803Y-51999822D01*
X62120803Y-51999822D02*
X61816041Y-51999822D01*
X62616041Y-52380775D02*
X62616041Y-51580775D01*
X63149374Y-51580775D02*
X63301755Y-51580775D01*
X63301755Y-51580775D02*
X63377945Y-51618870D01*
X63377945Y-51618870D02*
X63454136Y-51695060D01*
X63454136Y-51695060D02*
X63492231Y-51847441D01*
X63492231Y-51847441D02*
X63492231Y-52114108D01*
X63492231Y-52114108D02*
X63454136Y-52266489D01*
X63454136Y-52266489D02*
X63377945Y-52342680D01*
X63377945Y-52342680D02*
X63301755Y-52380775D01*
X63301755Y-52380775D02*
X63149374Y-52380775D01*
X63149374Y-52380775D02*
X63073183Y-52342680D01*
X63073183Y-52342680D02*
X62996993Y-52266489D01*
X62996993Y-52266489D02*
X62958897Y-52114108D01*
X62958897Y-52114108D02*
X62958897Y-51847441D01*
X62958897Y-51847441D02*
X62996993Y-51695060D01*
X62996993Y-51695060D02*
X63073183Y-51618870D01*
X63073183Y-51618870D02*
X63149374Y-51580775D01*
X64254135Y-52380775D02*
X63796992Y-52380775D01*
X64025564Y-52380775D02*
X64025564Y-51580775D01*
X64025564Y-51580775D02*
X63949373Y-51695060D01*
X63949373Y-51695060D02*
X63873183Y-51771251D01*
X63873183Y-51771251D02*
X63796992Y-51809346D01*
X64520802Y-51580775D02*
X65016040Y-51580775D01*
X65016040Y-51580775D02*
X64749374Y-51885537D01*
X64749374Y-51885537D02*
X64863659Y-51885537D01*
X64863659Y-51885537D02*
X64939850Y-51923632D01*
X64939850Y-51923632D02*
X64977945Y-51961727D01*
X64977945Y-51961727D02*
X65016040Y-52037918D01*
X65016040Y-52037918D02*
X65016040Y-52228394D01*
X65016040Y-52228394D02*
X64977945Y-52304584D01*
X64977945Y-52304584D02*
X64939850Y-52342680D01*
X64939850Y-52342680D02*
X64863659Y-52380775D01*
X64863659Y-52380775D02*
X64635088Y-52380775D01*
X64635088Y-52380775D02*
X64558897Y-52342680D01*
X64558897Y-52342680D02*
X64520802Y-52304584D01*
X61435088Y-54194780D02*
X61358898Y-54156685D01*
X61358898Y-54156685D02*
X61244612Y-54156685D01*
X61244612Y-54156685D02*
X61130326Y-54194780D01*
X61130326Y-54194780D02*
X61054136Y-54270970D01*
X61054136Y-54270970D02*
X61016041Y-54347161D01*
X61016041Y-54347161D02*
X60977945Y-54499542D01*
X60977945Y-54499542D02*
X60977945Y-54613828D01*
X60977945Y-54613828D02*
X61016041Y-54766209D01*
X61016041Y-54766209D02*
X61054136Y-54842399D01*
X61054136Y-54842399D02*
X61130326Y-54918590D01*
X61130326Y-54918590D02*
X61244612Y-54956685D01*
X61244612Y-54956685D02*
X61320803Y-54956685D01*
X61320803Y-54956685D02*
X61435088Y-54918590D01*
X61435088Y-54918590D02*
X61473184Y-54880494D01*
X61473184Y-54880494D02*
X61473184Y-54613828D01*
X61473184Y-54613828D02*
X61320803Y-54613828D01*
X61816041Y-54956685D02*
X61816041Y-54156685D01*
X61816041Y-54156685D02*
X62120803Y-54156685D01*
X62120803Y-54156685D02*
X62196993Y-54194780D01*
X62196993Y-54194780D02*
X62235088Y-54232875D01*
X62235088Y-54232875D02*
X62273184Y-54309066D01*
X62273184Y-54309066D02*
X62273184Y-54423351D01*
X62273184Y-54423351D02*
X62235088Y-54499542D01*
X62235088Y-54499542D02*
X62196993Y-54537637D01*
X62196993Y-54537637D02*
X62120803Y-54575732D01*
X62120803Y-54575732D02*
X61816041Y-54575732D01*
X62616041Y-54956685D02*
X62616041Y-54156685D01*
X63149374Y-54156685D02*
X63301755Y-54156685D01*
X63301755Y-54156685D02*
X63377945Y-54194780D01*
X63377945Y-54194780D02*
X63454136Y-54270970D01*
X63454136Y-54270970D02*
X63492231Y-54423351D01*
X63492231Y-54423351D02*
X63492231Y-54690018D01*
X63492231Y-54690018D02*
X63454136Y-54842399D01*
X63454136Y-54842399D02*
X63377945Y-54918590D01*
X63377945Y-54918590D02*
X63301755Y-54956685D01*
X63301755Y-54956685D02*
X63149374Y-54956685D01*
X63149374Y-54956685D02*
X63073183Y-54918590D01*
X63073183Y-54918590D02*
X62996993Y-54842399D01*
X62996993Y-54842399D02*
X62958897Y-54690018D01*
X62958897Y-54690018D02*
X62958897Y-54423351D01*
X62958897Y-54423351D02*
X62996993Y-54270970D01*
X62996993Y-54270970D02*
X63073183Y-54194780D01*
X63073183Y-54194780D02*
X63149374Y-54156685D01*
X64254135Y-54956685D02*
X63796992Y-54956685D01*
X64025564Y-54956685D02*
X64025564Y-54156685D01*
X64025564Y-54156685D02*
X63949373Y-54270970D01*
X63949373Y-54270970D02*
X63873183Y-54347161D01*
X63873183Y-54347161D02*
X63796992Y-54385256D01*
X64558897Y-54232875D02*
X64596993Y-54194780D01*
X64596993Y-54194780D02*
X64673183Y-54156685D01*
X64673183Y-54156685D02*
X64863659Y-54156685D01*
X64863659Y-54156685D02*
X64939850Y-54194780D01*
X64939850Y-54194780D02*
X64977945Y-54232875D01*
X64977945Y-54232875D02*
X65016040Y-54309066D01*
X65016040Y-54309066D02*
X65016040Y-54385256D01*
X65016040Y-54385256D02*
X64977945Y-54499542D01*
X64977945Y-54499542D02*
X64520802Y-54956685D01*
X64520802Y-54956685D02*
X65016040Y-54956685D01*
X61435088Y-56770690D02*
X61358898Y-56732595D01*
X61358898Y-56732595D02*
X61244612Y-56732595D01*
X61244612Y-56732595D02*
X61130326Y-56770690D01*
X61130326Y-56770690D02*
X61054136Y-56846880D01*
X61054136Y-56846880D02*
X61016041Y-56923071D01*
X61016041Y-56923071D02*
X60977945Y-57075452D01*
X60977945Y-57075452D02*
X60977945Y-57189738D01*
X60977945Y-57189738D02*
X61016041Y-57342119D01*
X61016041Y-57342119D02*
X61054136Y-57418309D01*
X61054136Y-57418309D02*
X61130326Y-57494500D01*
X61130326Y-57494500D02*
X61244612Y-57532595D01*
X61244612Y-57532595D02*
X61320803Y-57532595D01*
X61320803Y-57532595D02*
X61435088Y-57494500D01*
X61435088Y-57494500D02*
X61473184Y-57456404D01*
X61473184Y-57456404D02*
X61473184Y-57189738D01*
X61473184Y-57189738D02*
X61320803Y-57189738D01*
X61816041Y-57532595D02*
X61816041Y-56732595D01*
X61816041Y-56732595D02*
X62120803Y-56732595D01*
X62120803Y-56732595D02*
X62196993Y-56770690D01*
X62196993Y-56770690D02*
X62235088Y-56808785D01*
X62235088Y-56808785D02*
X62273184Y-56884976D01*
X62273184Y-56884976D02*
X62273184Y-56999261D01*
X62273184Y-56999261D02*
X62235088Y-57075452D01*
X62235088Y-57075452D02*
X62196993Y-57113547D01*
X62196993Y-57113547D02*
X62120803Y-57151642D01*
X62120803Y-57151642D02*
X61816041Y-57151642D01*
X62616041Y-57532595D02*
X62616041Y-56732595D01*
X63149374Y-56732595D02*
X63301755Y-56732595D01*
X63301755Y-56732595D02*
X63377945Y-56770690D01*
X63377945Y-56770690D02*
X63454136Y-56846880D01*
X63454136Y-56846880D02*
X63492231Y-56999261D01*
X63492231Y-56999261D02*
X63492231Y-57265928D01*
X63492231Y-57265928D02*
X63454136Y-57418309D01*
X63454136Y-57418309D02*
X63377945Y-57494500D01*
X63377945Y-57494500D02*
X63301755Y-57532595D01*
X63301755Y-57532595D02*
X63149374Y-57532595D01*
X63149374Y-57532595D02*
X63073183Y-57494500D01*
X63073183Y-57494500D02*
X62996993Y-57418309D01*
X62996993Y-57418309D02*
X62958897Y-57265928D01*
X62958897Y-57265928D02*
X62958897Y-56999261D01*
X62958897Y-56999261D02*
X62996993Y-56846880D01*
X62996993Y-56846880D02*
X63073183Y-56770690D01*
X63073183Y-56770690D02*
X63149374Y-56732595D01*
X64254135Y-57532595D02*
X63796992Y-57532595D01*
X64025564Y-57532595D02*
X64025564Y-56732595D01*
X64025564Y-56732595D02*
X63949373Y-56846880D01*
X63949373Y-56846880D02*
X63873183Y-56923071D01*
X63873183Y-56923071D02*
X63796992Y-56961166D01*
X64939850Y-56999261D02*
X64939850Y-57532595D01*
X64749374Y-56694500D02*
X64558897Y-57265928D01*
X64558897Y-57265928D02*
X65054136Y-57265928D01*
X61435088Y-59346600D02*
X61358898Y-59308505D01*
X61358898Y-59308505D02*
X61244612Y-59308505D01*
X61244612Y-59308505D02*
X61130326Y-59346600D01*
X61130326Y-59346600D02*
X61054136Y-59422790D01*
X61054136Y-59422790D02*
X61016041Y-59498981D01*
X61016041Y-59498981D02*
X60977945Y-59651362D01*
X60977945Y-59651362D02*
X60977945Y-59765648D01*
X60977945Y-59765648D02*
X61016041Y-59918029D01*
X61016041Y-59918029D02*
X61054136Y-59994219D01*
X61054136Y-59994219D02*
X61130326Y-60070410D01*
X61130326Y-60070410D02*
X61244612Y-60108505D01*
X61244612Y-60108505D02*
X61320803Y-60108505D01*
X61320803Y-60108505D02*
X61435088Y-60070410D01*
X61435088Y-60070410D02*
X61473184Y-60032314D01*
X61473184Y-60032314D02*
X61473184Y-59765648D01*
X61473184Y-59765648D02*
X61320803Y-59765648D01*
X61816041Y-60108505D02*
X61816041Y-59308505D01*
X61816041Y-59308505D02*
X62120803Y-59308505D01*
X62120803Y-59308505D02*
X62196993Y-59346600D01*
X62196993Y-59346600D02*
X62235088Y-59384695D01*
X62235088Y-59384695D02*
X62273184Y-59460886D01*
X62273184Y-59460886D02*
X62273184Y-59575171D01*
X62273184Y-59575171D02*
X62235088Y-59651362D01*
X62235088Y-59651362D02*
X62196993Y-59689457D01*
X62196993Y-59689457D02*
X62120803Y-59727552D01*
X62120803Y-59727552D02*
X61816041Y-59727552D01*
X62616041Y-60108505D02*
X62616041Y-59308505D01*
X63149374Y-59308505D02*
X63301755Y-59308505D01*
X63301755Y-59308505D02*
X63377945Y-59346600D01*
X63377945Y-59346600D02*
X63454136Y-59422790D01*
X63454136Y-59422790D02*
X63492231Y-59575171D01*
X63492231Y-59575171D02*
X63492231Y-59841838D01*
X63492231Y-59841838D02*
X63454136Y-59994219D01*
X63454136Y-59994219D02*
X63377945Y-60070410D01*
X63377945Y-60070410D02*
X63301755Y-60108505D01*
X63301755Y-60108505D02*
X63149374Y-60108505D01*
X63149374Y-60108505D02*
X63073183Y-60070410D01*
X63073183Y-60070410D02*
X62996993Y-59994219D01*
X62996993Y-59994219D02*
X62958897Y-59841838D01*
X62958897Y-59841838D02*
X62958897Y-59575171D01*
X62958897Y-59575171D02*
X62996993Y-59422790D01*
X62996993Y-59422790D02*
X63073183Y-59346600D01*
X63073183Y-59346600D02*
X63149374Y-59308505D01*
X63796992Y-59384695D02*
X63835088Y-59346600D01*
X63835088Y-59346600D02*
X63911278Y-59308505D01*
X63911278Y-59308505D02*
X64101754Y-59308505D01*
X64101754Y-59308505D02*
X64177945Y-59346600D01*
X64177945Y-59346600D02*
X64216040Y-59384695D01*
X64216040Y-59384695D02*
X64254135Y-59460886D01*
X64254135Y-59460886D02*
X64254135Y-59537076D01*
X64254135Y-59537076D02*
X64216040Y-59651362D01*
X64216040Y-59651362D02*
X63758897Y-60108505D01*
X63758897Y-60108505D02*
X64254135Y-60108505D01*
X64520802Y-59308505D02*
X65054136Y-59308505D01*
X65054136Y-59308505D02*
X64711278Y-60108505D01*
X61435088Y-61922510D02*
X61358898Y-61884415D01*
X61358898Y-61884415D02*
X61244612Y-61884415D01*
X61244612Y-61884415D02*
X61130326Y-61922510D01*
X61130326Y-61922510D02*
X61054136Y-61998700D01*
X61054136Y-61998700D02*
X61016041Y-62074891D01*
X61016041Y-62074891D02*
X60977945Y-62227272D01*
X60977945Y-62227272D02*
X60977945Y-62341558D01*
X60977945Y-62341558D02*
X61016041Y-62493939D01*
X61016041Y-62493939D02*
X61054136Y-62570129D01*
X61054136Y-62570129D02*
X61130326Y-62646320D01*
X61130326Y-62646320D02*
X61244612Y-62684415D01*
X61244612Y-62684415D02*
X61320803Y-62684415D01*
X61320803Y-62684415D02*
X61435088Y-62646320D01*
X61435088Y-62646320D02*
X61473184Y-62608224D01*
X61473184Y-62608224D02*
X61473184Y-62341558D01*
X61473184Y-62341558D02*
X61320803Y-62341558D01*
X61816041Y-62684415D02*
X61816041Y-61884415D01*
X61816041Y-61884415D02*
X62120803Y-61884415D01*
X62120803Y-61884415D02*
X62196993Y-61922510D01*
X62196993Y-61922510D02*
X62235088Y-61960605D01*
X62235088Y-61960605D02*
X62273184Y-62036796D01*
X62273184Y-62036796D02*
X62273184Y-62151081D01*
X62273184Y-62151081D02*
X62235088Y-62227272D01*
X62235088Y-62227272D02*
X62196993Y-62265367D01*
X62196993Y-62265367D02*
X62120803Y-62303462D01*
X62120803Y-62303462D02*
X61816041Y-62303462D01*
X62616041Y-62684415D02*
X62616041Y-61884415D01*
X63149374Y-61884415D02*
X63301755Y-61884415D01*
X63301755Y-61884415D02*
X63377945Y-61922510D01*
X63377945Y-61922510D02*
X63454136Y-61998700D01*
X63454136Y-61998700D02*
X63492231Y-62151081D01*
X63492231Y-62151081D02*
X63492231Y-62417748D01*
X63492231Y-62417748D02*
X63454136Y-62570129D01*
X63454136Y-62570129D02*
X63377945Y-62646320D01*
X63377945Y-62646320D02*
X63301755Y-62684415D01*
X63301755Y-62684415D02*
X63149374Y-62684415D01*
X63149374Y-62684415D02*
X63073183Y-62646320D01*
X63073183Y-62646320D02*
X62996993Y-62570129D01*
X62996993Y-62570129D02*
X62958897Y-62417748D01*
X62958897Y-62417748D02*
X62958897Y-62151081D01*
X62958897Y-62151081D02*
X62996993Y-61998700D01*
X62996993Y-61998700D02*
X63073183Y-61922510D01*
X63073183Y-61922510D02*
X63149374Y-61884415D01*
X63796992Y-61960605D02*
X63835088Y-61922510D01*
X63835088Y-61922510D02*
X63911278Y-61884415D01*
X63911278Y-61884415D02*
X64101754Y-61884415D01*
X64101754Y-61884415D02*
X64177945Y-61922510D01*
X64177945Y-61922510D02*
X64216040Y-61960605D01*
X64216040Y-61960605D02*
X64254135Y-62036796D01*
X64254135Y-62036796D02*
X64254135Y-62112986D01*
X64254135Y-62112986D02*
X64216040Y-62227272D01*
X64216040Y-62227272D02*
X63758897Y-62684415D01*
X63758897Y-62684415D02*
X64254135Y-62684415D01*
X64939850Y-61884415D02*
X64787469Y-61884415D01*
X64787469Y-61884415D02*
X64711278Y-61922510D01*
X64711278Y-61922510D02*
X64673183Y-61960605D01*
X64673183Y-61960605D02*
X64596993Y-62074891D01*
X64596993Y-62074891D02*
X64558897Y-62227272D01*
X64558897Y-62227272D02*
X64558897Y-62532034D01*
X64558897Y-62532034D02*
X64596993Y-62608224D01*
X64596993Y-62608224D02*
X64635088Y-62646320D01*
X64635088Y-62646320D02*
X64711278Y-62684415D01*
X64711278Y-62684415D02*
X64863659Y-62684415D01*
X64863659Y-62684415D02*
X64939850Y-62646320D01*
X64939850Y-62646320D02*
X64977945Y-62608224D01*
X64977945Y-62608224D02*
X65016040Y-62532034D01*
X65016040Y-62532034D02*
X65016040Y-62341558D01*
X65016040Y-62341558D02*
X64977945Y-62265367D01*
X64977945Y-62265367D02*
X64939850Y-62227272D01*
X64939850Y-62227272D02*
X64863659Y-62189177D01*
X64863659Y-62189177D02*
X64711278Y-62189177D01*
X64711278Y-62189177D02*
X64635088Y-62227272D01*
X64635088Y-62227272D02*
X64596993Y-62265367D01*
X64596993Y-62265367D02*
X64558897Y-62341558D01*
X61435088Y-64498420D02*
X61358898Y-64460325D01*
X61358898Y-64460325D02*
X61244612Y-64460325D01*
X61244612Y-64460325D02*
X61130326Y-64498420D01*
X61130326Y-64498420D02*
X61054136Y-64574610D01*
X61054136Y-64574610D02*
X61016041Y-64650801D01*
X61016041Y-64650801D02*
X60977945Y-64803182D01*
X60977945Y-64803182D02*
X60977945Y-64917468D01*
X60977945Y-64917468D02*
X61016041Y-65069849D01*
X61016041Y-65069849D02*
X61054136Y-65146039D01*
X61054136Y-65146039D02*
X61130326Y-65222230D01*
X61130326Y-65222230D02*
X61244612Y-65260325D01*
X61244612Y-65260325D02*
X61320803Y-65260325D01*
X61320803Y-65260325D02*
X61435088Y-65222230D01*
X61435088Y-65222230D02*
X61473184Y-65184134D01*
X61473184Y-65184134D02*
X61473184Y-64917468D01*
X61473184Y-64917468D02*
X61320803Y-64917468D01*
X61816041Y-65260325D02*
X61816041Y-64460325D01*
X61816041Y-64460325D02*
X62120803Y-64460325D01*
X62120803Y-64460325D02*
X62196993Y-64498420D01*
X62196993Y-64498420D02*
X62235088Y-64536515D01*
X62235088Y-64536515D02*
X62273184Y-64612706D01*
X62273184Y-64612706D02*
X62273184Y-64726991D01*
X62273184Y-64726991D02*
X62235088Y-64803182D01*
X62235088Y-64803182D02*
X62196993Y-64841277D01*
X62196993Y-64841277D02*
X62120803Y-64879372D01*
X62120803Y-64879372D02*
X61816041Y-64879372D01*
X62616041Y-65260325D02*
X62616041Y-64460325D01*
X63149374Y-64460325D02*
X63301755Y-64460325D01*
X63301755Y-64460325D02*
X63377945Y-64498420D01*
X63377945Y-64498420D02*
X63454136Y-64574610D01*
X63454136Y-64574610D02*
X63492231Y-64726991D01*
X63492231Y-64726991D02*
X63492231Y-64993658D01*
X63492231Y-64993658D02*
X63454136Y-65146039D01*
X63454136Y-65146039D02*
X63377945Y-65222230D01*
X63377945Y-65222230D02*
X63301755Y-65260325D01*
X63301755Y-65260325D02*
X63149374Y-65260325D01*
X63149374Y-65260325D02*
X63073183Y-65222230D01*
X63073183Y-65222230D02*
X62996993Y-65146039D01*
X62996993Y-65146039D02*
X62958897Y-64993658D01*
X62958897Y-64993658D02*
X62958897Y-64726991D01*
X62958897Y-64726991D02*
X62996993Y-64574610D01*
X62996993Y-64574610D02*
X63073183Y-64498420D01*
X63073183Y-64498420D02*
X63149374Y-64460325D01*
X63796992Y-64536515D02*
X63835088Y-64498420D01*
X63835088Y-64498420D02*
X63911278Y-64460325D01*
X63911278Y-64460325D02*
X64101754Y-64460325D01*
X64101754Y-64460325D02*
X64177945Y-64498420D01*
X64177945Y-64498420D02*
X64216040Y-64536515D01*
X64216040Y-64536515D02*
X64254135Y-64612706D01*
X64254135Y-64612706D02*
X64254135Y-64688896D01*
X64254135Y-64688896D02*
X64216040Y-64803182D01*
X64216040Y-64803182D02*
X63758897Y-65260325D01*
X63758897Y-65260325D02*
X64254135Y-65260325D01*
X64977945Y-64460325D02*
X64596993Y-64460325D01*
X64596993Y-64460325D02*
X64558897Y-64841277D01*
X64558897Y-64841277D02*
X64596993Y-64803182D01*
X64596993Y-64803182D02*
X64673183Y-64765087D01*
X64673183Y-64765087D02*
X64863659Y-64765087D01*
X64863659Y-64765087D02*
X64939850Y-64803182D01*
X64939850Y-64803182D02*
X64977945Y-64841277D01*
X64977945Y-64841277D02*
X65016040Y-64917468D01*
X65016040Y-64917468D02*
X65016040Y-65107944D01*
X65016040Y-65107944D02*
X64977945Y-65184134D01*
X64977945Y-65184134D02*
X64939850Y-65222230D01*
X64939850Y-65222230D02*
X64863659Y-65260325D01*
X64863659Y-65260325D02*
X64673183Y-65260325D01*
X64673183Y-65260325D02*
X64596993Y-65222230D01*
X64596993Y-65222230D02*
X64558897Y-65184134D01*
X61435088Y-67074330D02*
X61358898Y-67036235D01*
X61358898Y-67036235D02*
X61244612Y-67036235D01*
X61244612Y-67036235D02*
X61130326Y-67074330D01*
X61130326Y-67074330D02*
X61054136Y-67150520D01*
X61054136Y-67150520D02*
X61016041Y-67226711D01*
X61016041Y-67226711D02*
X60977945Y-67379092D01*
X60977945Y-67379092D02*
X60977945Y-67493378D01*
X60977945Y-67493378D02*
X61016041Y-67645759D01*
X61016041Y-67645759D02*
X61054136Y-67721949D01*
X61054136Y-67721949D02*
X61130326Y-67798140D01*
X61130326Y-67798140D02*
X61244612Y-67836235D01*
X61244612Y-67836235D02*
X61320803Y-67836235D01*
X61320803Y-67836235D02*
X61435088Y-67798140D01*
X61435088Y-67798140D02*
X61473184Y-67760044D01*
X61473184Y-67760044D02*
X61473184Y-67493378D01*
X61473184Y-67493378D02*
X61320803Y-67493378D01*
X61816041Y-67836235D02*
X61816041Y-67036235D01*
X61816041Y-67036235D02*
X62120803Y-67036235D01*
X62120803Y-67036235D02*
X62196993Y-67074330D01*
X62196993Y-67074330D02*
X62235088Y-67112425D01*
X62235088Y-67112425D02*
X62273184Y-67188616D01*
X62273184Y-67188616D02*
X62273184Y-67302901D01*
X62273184Y-67302901D02*
X62235088Y-67379092D01*
X62235088Y-67379092D02*
X62196993Y-67417187D01*
X62196993Y-67417187D02*
X62120803Y-67455282D01*
X62120803Y-67455282D02*
X61816041Y-67455282D01*
X62616041Y-67836235D02*
X62616041Y-67036235D01*
X63149374Y-67036235D02*
X63301755Y-67036235D01*
X63301755Y-67036235D02*
X63377945Y-67074330D01*
X63377945Y-67074330D02*
X63454136Y-67150520D01*
X63454136Y-67150520D02*
X63492231Y-67302901D01*
X63492231Y-67302901D02*
X63492231Y-67569568D01*
X63492231Y-67569568D02*
X63454136Y-67721949D01*
X63454136Y-67721949D02*
X63377945Y-67798140D01*
X63377945Y-67798140D02*
X63301755Y-67836235D01*
X63301755Y-67836235D02*
X63149374Y-67836235D01*
X63149374Y-67836235D02*
X63073183Y-67798140D01*
X63073183Y-67798140D02*
X62996993Y-67721949D01*
X62996993Y-67721949D02*
X62958897Y-67569568D01*
X62958897Y-67569568D02*
X62958897Y-67302901D01*
X62958897Y-67302901D02*
X62996993Y-67150520D01*
X62996993Y-67150520D02*
X63073183Y-67074330D01*
X63073183Y-67074330D02*
X63149374Y-67036235D01*
X63758897Y-67036235D02*
X64254135Y-67036235D01*
X64254135Y-67036235D02*
X63987469Y-67340997D01*
X63987469Y-67340997D02*
X64101754Y-67340997D01*
X64101754Y-67340997D02*
X64177945Y-67379092D01*
X64177945Y-67379092D02*
X64216040Y-67417187D01*
X64216040Y-67417187D02*
X64254135Y-67493378D01*
X64254135Y-67493378D02*
X64254135Y-67683854D01*
X64254135Y-67683854D02*
X64216040Y-67760044D01*
X64216040Y-67760044D02*
X64177945Y-67798140D01*
X64177945Y-67798140D02*
X64101754Y-67836235D01*
X64101754Y-67836235D02*
X63873183Y-67836235D01*
X63873183Y-67836235D02*
X63796992Y-67798140D01*
X63796992Y-67798140D02*
X63758897Y-67760044D01*
X64520802Y-67036235D02*
X65016040Y-67036235D01*
X65016040Y-67036235D02*
X64749374Y-67340997D01*
X64749374Y-67340997D02*
X64863659Y-67340997D01*
X64863659Y-67340997D02*
X64939850Y-67379092D01*
X64939850Y-67379092D02*
X64977945Y-67417187D01*
X64977945Y-67417187D02*
X65016040Y-67493378D01*
X65016040Y-67493378D02*
X65016040Y-67683854D01*
X65016040Y-67683854D02*
X64977945Y-67760044D01*
X64977945Y-67760044D02*
X64939850Y-67798140D01*
X64939850Y-67798140D02*
X64863659Y-67836235D01*
X64863659Y-67836235D02*
X64635088Y-67836235D01*
X64635088Y-67836235D02*
X64558897Y-67798140D01*
X64558897Y-67798140D02*
X64520802Y-67760044D01*
X61435088Y-69650240D02*
X61358898Y-69612145D01*
X61358898Y-69612145D02*
X61244612Y-69612145D01*
X61244612Y-69612145D02*
X61130326Y-69650240D01*
X61130326Y-69650240D02*
X61054136Y-69726430D01*
X61054136Y-69726430D02*
X61016041Y-69802621D01*
X61016041Y-69802621D02*
X60977945Y-69955002D01*
X60977945Y-69955002D02*
X60977945Y-70069288D01*
X60977945Y-70069288D02*
X61016041Y-70221669D01*
X61016041Y-70221669D02*
X61054136Y-70297859D01*
X61054136Y-70297859D02*
X61130326Y-70374050D01*
X61130326Y-70374050D02*
X61244612Y-70412145D01*
X61244612Y-70412145D02*
X61320803Y-70412145D01*
X61320803Y-70412145D02*
X61435088Y-70374050D01*
X61435088Y-70374050D02*
X61473184Y-70335954D01*
X61473184Y-70335954D02*
X61473184Y-70069288D01*
X61473184Y-70069288D02*
X61320803Y-70069288D01*
X61816041Y-70412145D02*
X61816041Y-69612145D01*
X61816041Y-69612145D02*
X62120803Y-69612145D01*
X62120803Y-69612145D02*
X62196993Y-69650240D01*
X62196993Y-69650240D02*
X62235088Y-69688335D01*
X62235088Y-69688335D02*
X62273184Y-69764526D01*
X62273184Y-69764526D02*
X62273184Y-69878811D01*
X62273184Y-69878811D02*
X62235088Y-69955002D01*
X62235088Y-69955002D02*
X62196993Y-69993097D01*
X62196993Y-69993097D02*
X62120803Y-70031192D01*
X62120803Y-70031192D02*
X61816041Y-70031192D01*
X62616041Y-70412145D02*
X62616041Y-69612145D01*
X63149374Y-69612145D02*
X63301755Y-69612145D01*
X63301755Y-69612145D02*
X63377945Y-69650240D01*
X63377945Y-69650240D02*
X63454136Y-69726430D01*
X63454136Y-69726430D02*
X63492231Y-69878811D01*
X63492231Y-69878811D02*
X63492231Y-70145478D01*
X63492231Y-70145478D02*
X63454136Y-70297859D01*
X63454136Y-70297859D02*
X63377945Y-70374050D01*
X63377945Y-70374050D02*
X63301755Y-70412145D01*
X63301755Y-70412145D02*
X63149374Y-70412145D01*
X63149374Y-70412145D02*
X63073183Y-70374050D01*
X63073183Y-70374050D02*
X62996993Y-70297859D01*
X62996993Y-70297859D02*
X62958897Y-70145478D01*
X62958897Y-70145478D02*
X62958897Y-69878811D01*
X62958897Y-69878811D02*
X62996993Y-69726430D01*
X62996993Y-69726430D02*
X63073183Y-69650240D01*
X63073183Y-69650240D02*
X63149374Y-69612145D01*
X63758897Y-69612145D02*
X64254135Y-69612145D01*
X64254135Y-69612145D02*
X63987469Y-69916907D01*
X63987469Y-69916907D02*
X64101754Y-69916907D01*
X64101754Y-69916907D02*
X64177945Y-69955002D01*
X64177945Y-69955002D02*
X64216040Y-69993097D01*
X64216040Y-69993097D02*
X64254135Y-70069288D01*
X64254135Y-70069288D02*
X64254135Y-70259764D01*
X64254135Y-70259764D02*
X64216040Y-70335954D01*
X64216040Y-70335954D02*
X64177945Y-70374050D01*
X64177945Y-70374050D02*
X64101754Y-70412145D01*
X64101754Y-70412145D02*
X63873183Y-70412145D01*
X63873183Y-70412145D02*
X63796992Y-70374050D01*
X63796992Y-70374050D02*
X63758897Y-70335954D01*
X64558897Y-69688335D02*
X64596993Y-69650240D01*
X64596993Y-69650240D02*
X64673183Y-69612145D01*
X64673183Y-69612145D02*
X64863659Y-69612145D01*
X64863659Y-69612145D02*
X64939850Y-69650240D01*
X64939850Y-69650240D02*
X64977945Y-69688335D01*
X64977945Y-69688335D02*
X65016040Y-69764526D01*
X65016040Y-69764526D02*
X65016040Y-69840716D01*
X65016040Y-69840716D02*
X64977945Y-69955002D01*
X64977945Y-69955002D02*
X64520802Y-70412145D01*
X64520802Y-70412145D02*
X65016040Y-70412145D01*
X61435088Y-72226150D02*
X61358898Y-72188055D01*
X61358898Y-72188055D02*
X61244612Y-72188055D01*
X61244612Y-72188055D02*
X61130326Y-72226150D01*
X61130326Y-72226150D02*
X61054136Y-72302340D01*
X61054136Y-72302340D02*
X61016041Y-72378531D01*
X61016041Y-72378531D02*
X60977945Y-72530912D01*
X60977945Y-72530912D02*
X60977945Y-72645198D01*
X60977945Y-72645198D02*
X61016041Y-72797579D01*
X61016041Y-72797579D02*
X61054136Y-72873769D01*
X61054136Y-72873769D02*
X61130326Y-72949960D01*
X61130326Y-72949960D02*
X61244612Y-72988055D01*
X61244612Y-72988055D02*
X61320803Y-72988055D01*
X61320803Y-72988055D02*
X61435088Y-72949960D01*
X61435088Y-72949960D02*
X61473184Y-72911864D01*
X61473184Y-72911864D02*
X61473184Y-72645198D01*
X61473184Y-72645198D02*
X61320803Y-72645198D01*
X61816041Y-72988055D02*
X61816041Y-72188055D01*
X61816041Y-72188055D02*
X62120803Y-72188055D01*
X62120803Y-72188055D02*
X62196993Y-72226150D01*
X62196993Y-72226150D02*
X62235088Y-72264245D01*
X62235088Y-72264245D02*
X62273184Y-72340436D01*
X62273184Y-72340436D02*
X62273184Y-72454721D01*
X62273184Y-72454721D02*
X62235088Y-72530912D01*
X62235088Y-72530912D02*
X62196993Y-72569007D01*
X62196993Y-72569007D02*
X62120803Y-72607102D01*
X62120803Y-72607102D02*
X61816041Y-72607102D01*
X62616041Y-72988055D02*
X62616041Y-72188055D01*
X63149374Y-72188055D02*
X63301755Y-72188055D01*
X63301755Y-72188055D02*
X63377945Y-72226150D01*
X63377945Y-72226150D02*
X63454136Y-72302340D01*
X63454136Y-72302340D02*
X63492231Y-72454721D01*
X63492231Y-72454721D02*
X63492231Y-72721388D01*
X63492231Y-72721388D02*
X63454136Y-72873769D01*
X63454136Y-72873769D02*
X63377945Y-72949960D01*
X63377945Y-72949960D02*
X63301755Y-72988055D01*
X63301755Y-72988055D02*
X63149374Y-72988055D01*
X63149374Y-72988055D02*
X63073183Y-72949960D01*
X63073183Y-72949960D02*
X62996993Y-72873769D01*
X62996993Y-72873769D02*
X62958897Y-72721388D01*
X62958897Y-72721388D02*
X62958897Y-72454721D01*
X62958897Y-72454721D02*
X62996993Y-72302340D01*
X62996993Y-72302340D02*
X63073183Y-72226150D01*
X63073183Y-72226150D02*
X63149374Y-72188055D01*
X63758897Y-72188055D02*
X64254135Y-72188055D01*
X64254135Y-72188055D02*
X63987469Y-72492817D01*
X63987469Y-72492817D02*
X64101754Y-72492817D01*
X64101754Y-72492817D02*
X64177945Y-72530912D01*
X64177945Y-72530912D02*
X64216040Y-72569007D01*
X64216040Y-72569007D02*
X64254135Y-72645198D01*
X64254135Y-72645198D02*
X64254135Y-72835674D01*
X64254135Y-72835674D02*
X64216040Y-72911864D01*
X64216040Y-72911864D02*
X64177945Y-72949960D01*
X64177945Y-72949960D02*
X64101754Y-72988055D01*
X64101754Y-72988055D02*
X63873183Y-72988055D01*
X63873183Y-72988055D02*
X63796992Y-72949960D01*
X63796992Y-72949960D02*
X63758897Y-72911864D01*
X64977945Y-72188055D02*
X64596993Y-72188055D01*
X64596993Y-72188055D02*
X64558897Y-72569007D01*
X64558897Y-72569007D02*
X64596993Y-72530912D01*
X64596993Y-72530912D02*
X64673183Y-72492817D01*
X64673183Y-72492817D02*
X64863659Y-72492817D01*
X64863659Y-72492817D02*
X64939850Y-72530912D01*
X64939850Y-72530912D02*
X64977945Y-72569007D01*
X64977945Y-72569007D02*
X65016040Y-72645198D01*
X65016040Y-72645198D02*
X65016040Y-72835674D01*
X65016040Y-72835674D02*
X64977945Y-72911864D01*
X64977945Y-72911864D02*
X64939850Y-72949960D01*
X64939850Y-72949960D02*
X64863659Y-72988055D01*
X64863659Y-72988055D02*
X64673183Y-72988055D01*
X64673183Y-72988055D02*
X64596993Y-72949960D01*
X64596993Y-72949960D02*
X64558897Y-72911864D01*
X61435088Y-74802060D02*
X61358898Y-74763965D01*
X61358898Y-74763965D02*
X61244612Y-74763965D01*
X61244612Y-74763965D02*
X61130326Y-74802060D01*
X61130326Y-74802060D02*
X61054136Y-74878250D01*
X61054136Y-74878250D02*
X61016041Y-74954441D01*
X61016041Y-74954441D02*
X60977945Y-75106822D01*
X60977945Y-75106822D02*
X60977945Y-75221108D01*
X60977945Y-75221108D02*
X61016041Y-75373489D01*
X61016041Y-75373489D02*
X61054136Y-75449679D01*
X61054136Y-75449679D02*
X61130326Y-75525870D01*
X61130326Y-75525870D02*
X61244612Y-75563965D01*
X61244612Y-75563965D02*
X61320803Y-75563965D01*
X61320803Y-75563965D02*
X61435088Y-75525870D01*
X61435088Y-75525870D02*
X61473184Y-75487774D01*
X61473184Y-75487774D02*
X61473184Y-75221108D01*
X61473184Y-75221108D02*
X61320803Y-75221108D01*
X61816041Y-75563965D02*
X61816041Y-74763965D01*
X61816041Y-74763965D02*
X62120803Y-74763965D01*
X62120803Y-74763965D02*
X62196993Y-74802060D01*
X62196993Y-74802060D02*
X62235088Y-74840155D01*
X62235088Y-74840155D02*
X62273184Y-74916346D01*
X62273184Y-74916346D02*
X62273184Y-75030631D01*
X62273184Y-75030631D02*
X62235088Y-75106822D01*
X62235088Y-75106822D02*
X62196993Y-75144917D01*
X62196993Y-75144917D02*
X62120803Y-75183012D01*
X62120803Y-75183012D02*
X61816041Y-75183012D01*
X62616041Y-75563965D02*
X62616041Y-74763965D01*
X63149374Y-74763965D02*
X63301755Y-74763965D01*
X63301755Y-74763965D02*
X63377945Y-74802060D01*
X63377945Y-74802060D02*
X63454136Y-74878250D01*
X63454136Y-74878250D02*
X63492231Y-75030631D01*
X63492231Y-75030631D02*
X63492231Y-75297298D01*
X63492231Y-75297298D02*
X63454136Y-75449679D01*
X63454136Y-75449679D02*
X63377945Y-75525870D01*
X63377945Y-75525870D02*
X63301755Y-75563965D01*
X63301755Y-75563965D02*
X63149374Y-75563965D01*
X63149374Y-75563965D02*
X63073183Y-75525870D01*
X63073183Y-75525870D02*
X62996993Y-75449679D01*
X62996993Y-75449679D02*
X62958897Y-75297298D01*
X62958897Y-75297298D02*
X62958897Y-75030631D01*
X62958897Y-75030631D02*
X62996993Y-74878250D01*
X62996993Y-74878250D02*
X63073183Y-74802060D01*
X63073183Y-74802060D02*
X63149374Y-74763965D01*
X63758897Y-74763965D02*
X64254135Y-74763965D01*
X64254135Y-74763965D02*
X63987469Y-75068727D01*
X63987469Y-75068727D02*
X64101754Y-75068727D01*
X64101754Y-75068727D02*
X64177945Y-75106822D01*
X64177945Y-75106822D02*
X64216040Y-75144917D01*
X64216040Y-75144917D02*
X64254135Y-75221108D01*
X64254135Y-75221108D02*
X64254135Y-75411584D01*
X64254135Y-75411584D02*
X64216040Y-75487774D01*
X64216040Y-75487774D02*
X64177945Y-75525870D01*
X64177945Y-75525870D02*
X64101754Y-75563965D01*
X64101754Y-75563965D02*
X63873183Y-75563965D01*
X63873183Y-75563965D02*
X63796992Y-75525870D01*
X63796992Y-75525870D02*
X63758897Y-75487774D01*
X64939850Y-75030631D02*
X64939850Y-75563965D01*
X64749374Y-74725870D02*
X64558897Y-75297298D01*
X64558897Y-75297298D02*
X65054136Y-75297298D01*
X61435088Y-77377970D02*
X61358898Y-77339875D01*
X61358898Y-77339875D02*
X61244612Y-77339875D01*
X61244612Y-77339875D02*
X61130326Y-77377970D01*
X61130326Y-77377970D02*
X61054136Y-77454160D01*
X61054136Y-77454160D02*
X61016041Y-77530351D01*
X61016041Y-77530351D02*
X60977945Y-77682732D01*
X60977945Y-77682732D02*
X60977945Y-77797018D01*
X60977945Y-77797018D02*
X61016041Y-77949399D01*
X61016041Y-77949399D02*
X61054136Y-78025589D01*
X61054136Y-78025589D02*
X61130326Y-78101780D01*
X61130326Y-78101780D02*
X61244612Y-78139875D01*
X61244612Y-78139875D02*
X61320803Y-78139875D01*
X61320803Y-78139875D02*
X61435088Y-78101780D01*
X61435088Y-78101780D02*
X61473184Y-78063684D01*
X61473184Y-78063684D02*
X61473184Y-77797018D01*
X61473184Y-77797018D02*
X61320803Y-77797018D01*
X61816041Y-78139875D02*
X61816041Y-77339875D01*
X61816041Y-77339875D02*
X62120803Y-77339875D01*
X62120803Y-77339875D02*
X62196993Y-77377970D01*
X62196993Y-77377970D02*
X62235088Y-77416065D01*
X62235088Y-77416065D02*
X62273184Y-77492256D01*
X62273184Y-77492256D02*
X62273184Y-77606541D01*
X62273184Y-77606541D02*
X62235088Y-77682732D01*
X62235088Y-77682732D02*
X62196993Y-77720827D01*
X62196993Y-77720827D02*
X62120803Y-77758922D01*
X62120803Y-77758922D02*
X61816041Y-77758922D01*
X62616041Y-78139875D02*
X62616041Y-77339875D01*
X63149374Y-77339875D02*
X63301755Y-77339875D01*
X63301755Y-77339875D02*
X63377945Y-77377970D01*
X63377945Y-77377970D02*
X63454136Y-77454160D01*
X63454136Y-77454160D02*
X63492231Y-77606541D01*
X63492231Y-77606541D02*
X63492231Y-77873208D01*
X63492231Y-77873208D02*
X63454136Y-78025589D01*
X63454136Y-78025589D02*
X63377945Y-78101780D01*
X63377945Y-78101780D02*
X63301755Y-78139875D01*
X63301755Y-78139875D02*
X63149374Y-78139875D01*
X63149374Y-78139875D02*
X63073183Y-78101780D01*
X63073183Y-78101780D02*
X62996993Y-78025589D01*
X62996993Y-78025589D02*
X62958897Y-77873208D01*
X62958897Y-77873208D02*
X62958897Y-77606541D01*
X62958897Y-77606541D02*
X62996993Y-77454160D01*
X62996993Y-77454160D02*
X63073183Y-77377970D01*
X63073183Y-77377970D02*
X63149374Y-77339875D01*
X63758897Y-77339875D02*
X64254135Y-77339875D01*
X64254135Y-77339875D02*
X63987469Y-77644637D01*
X63987469Y-77644637D02*
X64101754Y-77644637D01*
X64101754Y-77644637D02*
X64177945Y-77682732D01*
X64177945Y-77682732D02*
X64216040Y-77720827D01*
X64216040Y-77720827D02*
X64254135Y-77797018D01*
X64254135Y-77797018D02*
X64254135Y-77987494D01*
X64254135Y-77987494D02*
X64216040Y-78063684D01*
X64216040Y-78063684D02*
X64177945Y-78101780D01*
X64177945Y-78101780D02*
X64101754Y-78139875D01*
X64101754Y-78139875D02*
X63873183Y-78139875D01*
X63873183Y-78139875D02*
X63796992Y-78101780D01*
X63796992Y-78101780D02*
X63758897Y-78063684D01*
X64635088Y-78139875D02*
X64787469Y-78139875D01*
X64787469Y-78139875D02*
X64863659Y-78101780D01*
X64863659Y-78101780D02*
X64901755Y-78063684D01*
X64901755Y-78063684D02*
X64977945Y-77949399D01*
X64977945Y-77949399D02*
X65016040Y-77797018D01*
X65016040Y-77797018D02*
X65016040Y-77492256D01*
X65016040Y-77492256D02*
X64977945Y-77416065D01*
X64977945Y-77416065D02*
X64939850Y-77377970D01*
X64939850Y-77377970D02*
X64863659Y-77339875D01*
X64863659Y-77339875D02*
X64711278Y-77339875D01*
X64711278Y-77339875D02*
X64635088Y-77377970D01*
X64635088Y-77377970D02*
X64596993Y-77416065D01*
X64596993Y-77416065D02*
X64558897Y-77492256D01*
X64558897Y-77492256D02*
X64558897Y-77682732D01*
X64558897Y-77682732D02*
X64596993Y-77758922D01*
X64596993Y-77758922D02*
X64635088Y-77797018D01*
X64635088Y-77797018D02*
X64711278Y-77835113D01*
X64711278Y-77835113D02*
X64863659Y-77835113D01*
X64863659Y-77835113D02*
X64939850Y-77797018D01*
X64939850Y-77797018D02*
X64977945Y-77758922D01*
X64977945Y-77758922D02*
X65016040Y-77682732D01*
X61435088Y-79953880D02*
X61358898Y-79915785D01*
X61358898Y-79915785D02*
X61244612Y-79915785D01*
X61244612Y-79915785D02*
X61130326Y-79953880D01*
X61130326Y-79953880D02*
X61054136Y-80030070D01*
X61054136Y-80030070D02*
X61016041Y-80106261D01*
X61016041Y-80106261D02*
X60977945Y-80258642D01*
X60977945Y-80258642D02*
X60977945Y-80372928D01*
X60977945Y-80372928D02*
X61016041Y-80525309D01*
X61016041Y-80525309D02*
X61054136Y-80601499D01*
X61054136Y-80601499D02*
X61130326Y-80677690D01*
X61130326Y-80677690D02*
X61244612Y-80715785D01*
X61244612Y-80715785D02*
X61320803Y-80715785D01*
X61320803Y-80715785D02*
X61435088Y-80677690D01*
X61435088Y-80677690D02*
X61473184Y-80639594D01*
X61473184Y-80639594D02*
X61473184Y-80372928D01*
X61473184Y-80372928D02*
X61320803Y-80372928D01*
X61816041Y-80715785D02*
X61816041Y-79915785D01*
X61816041Y-79915785D02*
X62120803Y-79915785D01*
X62120803Y-79915785D02*
X62196993Y-79953880D01*
X62196993Y-79953880D02*
X62235088Y-79991975D01*
X62235088Y-79991975D02*
X62273184Y-80068166D01*
X62273184Y-80068166D02*
X62273184Y-80182451D01*
X62273184Y-80182451D02*
X62235088Y-80258642D01*
X62235088Y-80258642D02*
X62196993Y-80296737D01*
X62196993Y-80296737D02*
X62120803Y-80334832D01*
X62120803Y-80334832D02*
X61816041Y-80334832D01*
X62616041Y-80715785D02*
X62616041Y-79915785D01*
X63149374Y-79915785D02*
X63301755Y-79915785D01*
X63301755Y-79915785D02*
X63377945Y-79953880D01*
X63377945Y-79953880D02*
X63454136Y-80030070D01*
X63454136Y-80030070D02*
X63492231Y-80182451D01*
X63492231Y-80182451D02*
X63492231Y-80449118D01*
X63492231Y-80449118D02*
X63454136Y-80601499D01*
X63454136Y-80601499D02*
X63377945Y-80677690D01*
X63377945Y-80677690D02*
X63301755Y-80715785D01*
X63301755Y-80715785D02*
X63149374Y-80715785D01*
X63149374Y-80715785D02*
X63073183Y-80677690D01*
X63073183Y-80677690D02*
X62996993Y-80601499D01*
X62996993Y-80601499D02*
X62958897Y-80449118D01*
X62958897Y-80449118D02*
X62958897Y-80182451D01*
X62958897Y-80182451D02*
X62996993Y-80030070D01*
X62996993Y-80030070D02*
X63073183Y-79953880D01*
X63073183Y-79953880D02*
X63149374Y-79915785D01*
X63758897Y-79915785D02*
X64254135Y-79915785D01*
X64254135Y-79915785D02*
X63987469Y-80220547D01*
X63987469Y-80220547D02*
X64101754Y-80220547D01*
X64101754Y-80220547D02*
X64177945Y-80258642D01*
X64177945Y-80258642D02*
X64216040Y-80296737D01*
X64216040Y-80296737D02*
X64254135Y-80372928D01*
X64254135Y-80372928D02*
X64254135Y-80563404D01*
X64254135Y-80563404D02*
X64216040Y-80639594D01*
X64216040Y-80639594D02*
X64177945Y-80677690D01*
X64177945Y-80677690D02*
X64101754Y-80715785D01*
X64101754Y-80715785D02*
X63873183Y-80715785D01*
X63873183Y-80715785D02*
X63796992Y-80677690D01*
X63796992Y-80677690D02*
X63758897Y-80639594D01*
X64939850Y-79915785D02*
X64787469Y-79915785D01*
X64787469Y-79915785D02*
X64711278Y-79953880D01*
X64711278Y-79953880D02*
X64673183Y-79991975D01*
X64673183Y-79991975D02*
X64596993Y-80106261D01*
X64596993Y-80106261D02*
X64558897Y-80258642D01*
X64558897Y-80258642D02*
X64558897Y-80563404D01*
X64558897Y-80563404D02*
X64596993Y-80639594D01*
X64596993Y-80639594D02*
X64635088Y-80677690D01*
X64635088Y-80677690D02*
X64711278Y-80715785D01*
X64711278Y-80715785D02*
X64863659Y-80715785D01*
X64863659Y-80715785D02*
X64939850Y-80677690D01*
X64939850Y-80677690D02*
X64977945Y-80639594D01*
X64977945Y-80639594D02*
X65016040Y-80563404D01*
X65016040Y-80563404D02*
X65016040Y-80372928D01*
X65016040Y-80372928D02*
X64977945Y-80296737D01*
X64977945Y-80296737D02*
X64939850Y-80258642D01*
X64939850Y-80258642D02*
X64863659Y-80220547D01*
X64863659Y-80220547D02*
X64711278Y-80220547D01*
X64711278Y-80220547D02*
X64635088Y-80258642D01*
X64635088Y-80258642D02*
X64596993Y-80296737D01*
X64596993Y-80296737D02*
X64558897Y-80372928D01*
X63035088Y-82872647D02*
X63301754Y-82872647D01*
X63416040Y-83291695D02*
X63035088Y-83291695D01*
X63035088Y-83291695D02*
X63035088Y-82491695D01*
X63035088Y-82491695D02*
X63416040Y-82491695D01*
X63758898Y-83291695D02*
X63758898Y-82491695D01*
X63758898Y-82491695D02*
X64216041Y-83291695D01*
X64216041Y-83291695D02*
X64216041Y-82491695D01*
X65016040Y-83291695D02*
X64558897Y-83291695D01*
X64787469Y-83291695D02*
X64787469Y-82491695D01*
X64787469Y-82491695D02*
X64711278Y-82605980D01*
X64711278Y-82605980D02*
X64635088Y-82682171D01*
X64635088Y-82682171D02*
X64558897Y-82720266D01*
D12*
D13*
X74868796Y-101700828D02*
X74725939Y-101629400D01*
X74725939Y-101629400D02*
X74654510Y-101557971D01*
X74654510Y-101557971D02*
X74583082Y-101415114D01*
X74583082Y-101415114D02*
X74583082Y-100986542D01*
X74583082Y-100986542D02*
X74654510Y-100843685D01*
X74654510Y-100843685D02*
X74725939Y-100772257D01*
X74725939Y-100772257D02*
X74868796Y-100700828D01*
X74868796Y-100700828D02*
X75083082Y-100700828D01*
X75083082Y-100700828D02*
X75225939Y-100772257D01*
X75225939Y-100772257D02*
X75297368Y-100843685D01*
X75297368Y-100843685D02*
X75368796Y-100986542D01*
X75368796Y-100986542D02*
X75368796Y-101415114D01*
X75368796Y-101415114D02*
X75297368Y-101557971D01*
X75297368Y-101557971D02*
X75225939Y-101629400D01*
X75225939Y-101629400D02*
X75083082Y-101700828D01*
X75083082Y-101700828D02*
X74868796Y-101700828D01*
X76654511Y-100700828D02*
X76654511Y-101700828D01*
X76011653Y-100700828D02*
X76011653Y-101486542D01*
X76011653Y-101486542D02*
X76083082Y-101629400D01*
X76083082Y-101629400D02*
X76225939Y-101700828D01*
X76225939Y-101700828D02*
X76440225Y-101700828D01*
X76440225Y-101700828D02*
X76583082Y-101629400D01*
X76583082Y-101629400D02*
X76654511Y-101557971D01*
X77154511Y-100700828D02*
X77725939Y-100700828D01*
X77368796Y-100200828D02*
X77368796Y-101486542D01*
X77368796Y-101486542D02*
X77440225Y-101629400D01*
X77440225Y-101629400D02*
X77583082Y-101700828D01*
X77583082Y-101700828D02*
X77725939Y-101700828D01*
X80154511Y-101700828D02*
X79297368Y-101700828D01*
X79725939Y-101700828D02*
X79725939Y-100200828D01*
X79725939Y-100200828D02*
X79583082Y-100415114D01*
X79583082Y-100415114D02*
X79440225Y-100557971D01*
X79440225Y-100557971D02*
X79297368Y-100629400D01*
D12*
D13*
X114868796Y-101900828D02*
X114725939Y-101829400D01*
X114725939Y-101829400D02*
X114654510Y-101757971D01*
X114654510Y-101757971D02*
X114583082Y-101615114D01*
X114583082Y-101615114D02*
X114583082Y-101186542D01*
X114583082Y-101186542D02*
X114654510Y-101043685D01*
X114654510Y-101043685D02*
X114725939Y-100972257D01*
X114725939Y-100972257D02*
X114868796Y-100900828D01*
X114868796Y-100900828D02*
X115083082Y-100900828D01*
X115083082Y-100900828D02*
X115225939Y-100972257D01*
X115225939Y-100972257D02*
X115297368Y-101043685D01*
X115297368Y-101043685D02*
X115368796Y-101186542D01*
X115368796Y-101186542D02*
X115368796Y-101615114D01*
X115368796Y-101615114D02*
X115297368Y-101757971D01*
X115297368Y-101757971D02*
X115225939Y-101829400D01*
X115225939Y-101829400D02*
X115083082Y-101900828D01*
X115083082Y-101900828D02*
X114868796Y-101900828D01*
X116654511Y-100900828D02*
X116654511Y-101900828D01*
X116011653Y-100900828D02*
X116011653Y-101686542D01*
X116011653Y-101686542D02*
X116083082Y-101829400D01*
X116083082Y-101829400D02*
X116225939Y-101900828D01*
X116225939Y-101900828D02*
X116440225Y-101900828D01*
X116440225Y-101900828D02*
X116583082Y-101829400D01*
X116583082Y-101829400D02*
X116654511Y-101757971D01*
X117154511Y-100900828D02*
X117725939Y-100900828D01*
X117368796Y-100400828D02*
X117368796Y-101686542D01*
X117368796Y-101686542D02*
X117440225Y-101829400D01*
X117440225Y-101829400D02*
X117583082Y-101900828D01*
X117583082Y-101900828D02*
X117725939Y-101900828D01*
X119297368Y-100543685D02*
X119368796Y-100472257D01*
X119368796Y-100472257D02*
X119511654Y-100400828D01*
X119511654Y-100400828D02*
X119868796Y-100400828D01*
X119868796Y-100400828D02*
X120011654Y-100472257D01*
X120011654Y-100472257D02*
X120083082Y-100543685D01*
X120083082Y-100543685D02*
X120154511Y-100686542D01*
X120154511Y-100686542D02*
X120154511Y-100829400D01*
X120154511Y-100829400D02*
X120083082Y-101043685D01*
X120083082Y-101043685D02*
X119225939Y-101900828D01*
X119225939Y-101900828D02*
X120154511Y-101900828D01*
D12*
D13*
X155068796Y-102000828D02*
X154925939Y-101929400D01*
X154925939Y-101929400D02*
X154854510Y-101857971D01*
X154854510Y-101857971D02*
X154783082Y-101715114D01*
X154783082Y-101715114D02*
X154783082Y-101286542D01*
X154783082Y-101286542D02*
X154854510Y-101143685D01*
X154854510Y-101143685D02*
X154925939Y-101072257D01*
X154925939Y-101072257D02*
X155068796Y-101000828D01*
X155068796Y-101000828D02*
X155283082Y-101000828D01*
X155283082Y-101000828D02*
X155425939Y-101072257D01*
X155425939Y-101072257D02*
X155497368Y-101143685D01*
X155497368Y-101143685D02*
X155568796Y-101286542D01*
X155568796Y-101286542D02*
X155568796Y-101715114D01*
X155568796Y-101715114D02*
X155497368Y-101857971D01*
X155497368Y-101857971D02*
X155425939Y-101929400D01*
X155425939Y-101929400D02*
X155283082Y-102000828D01*
X155283082Y-102000828D02*
X155068796Y-102000828D01*
X156854511Y-101000828D02*
X156854511Y-102000828D01*
X156211653Y-101000828D02*
X156211653Y-101786542D01*
X156211653Y-101786542D02*
X156283082Y-101929400D01*
X156283082Y-101929400D02*
X156425939Y-102000828D01*
X156425939Y-102000828D02*
X156640225Y-102000828D01*
X156640225Y-102000828D02*
X156783082Y-101929400D01*
X156783082Y-101929400D02*
X156854511Y-101857971D01*
X157354511Y-101000828D02*
X157925939Y-101000828D01*
X157568796Y-100500828D02*
X157568796Y-101786542D01*
X157568796Y-101786542D02*
X157640225Y-101929400D01*
X157640225Y-101929400D02*
X157783082Y-102000828D01*
X157783082Y-102000828D02*
X157925939Y-102000828D01*
X159425939Y-100500828D02*
X160354511Y-100500828D01*
X160354511Y-100500828D02*
X159854511Y-101072257D01*
X159854511Y-101072257D02*
X160068796Y-101072257D01*
X160068796Y-101072257D02*
X160211654Y-101143685D01*
X160211654Y-101143685D02*
X160283082Y-101215114D01*
X160283082Y-101215114D02*
X160354511Y-101357971D01*
X160354511Y-101357971D02*
X160354511Y-101715114D01*
X160354511Y-101715114D02*
X160283082Y-101857971D01*
X160283082Y-101857971D02*
X160211654Y-101929400D01*
X160211654Y-101929400D02*
X160068796Y-102000828D01*
X160068796Y-102000828D02*
X159640225Y-102000828D01*
X159640225Y-102000828D02*
X159497368Y-101929400D01*
X159497368Y-101929400D02*
X159425939Y-101857971D01*
D12*
D13*
X195368796Y-102000828D02*
X195225939Y-101929400D01*
X195225939Y-101929400D02*
X195154510Y-101857971D01*
X195154510Y-101857971D02*
X195083082Y-101715114D01*
X195083082Y-101715114D02*
X195083082Y-101286542D01*
X195083082Y-101286542D02*
X195154510Y-101143685D01*
X195154510Y-101143685D02*
X195225939Y-101072257D01*
X195225939Y-101072257D02*
X195368796Y-101000828D01*
X195368796Y-101000828D02*
X195583082Y-101000828D01*
X195583082Y-101000828D02*
X195725939Y-101072257D01*
X195725939Y-101072257D02*
X195797368Y-101143685D01*
X195797368Y-101143685D02*
X195868796Y-101286542D01*
X195868796Y-101286542D02*
X195868796Y-101715114D01*
X195868796Y-101715114D02*
X195797368Y-101857971D01*
X195797368Y-101857971D02*
X195725939Y-101929400D01*
X195725939Y-101929400D02*
X195583082Y-102000828D01*
X195583082Y-102000828D02*
X195368796Y-102000828D01*
X197154511Y-101000828D02*
X197154511Y-102000828D01*
X196511653Y-101000828D02*
X196511653Y-101786542D01*
X196511653Y-101786542D02*
X196583082Y-101929400D01*
X196583082Y-101929400D02*
X196725939Y-102000828D01*
X196725939Y-102000828D02*
X196940225Y-102000828D01*
X196940225Y-102000828D02*
X197083082Y-101929400D01*
X197083082Y-101929400D02*
X197154511Y-101857971D01*
X197654511Y-101000828D02*
X198225939Y-101000828D01*
X197868796Y-100500828D02*
X197868796Y-101786542D01*
X197868796Y-101786542D02*
X197940225Y-101929400D01*
X197940225Y-101929400D02*
X198083082Y-102000828D01*
X198083082Y-102000828D02*
X198225939Y-102000828D01*
X200511654Y-101000828D02*
X200511654Y-102000828D01*
X200154511Y-100429400D02*
X199797368Y-101500828D01*
X199797368Y-101500828D02*
X200725939Y-101500828D01*
D12*
D13*
X197654510Y-4815114D02*
X197868796Y-4886542D01*
X197868796Y-4886542D02*
X197940225Y-4957971D01*
X197940225Y-4957971D02*
X198011653Y-5100828D01*
X198011653Y-5100828D02*
X198011653Y-5315114D01*
X198011653Y-5315114D02*
X197940225Y-5457971D01*
X197940225Y-5457971D02*
X197868796Y-5529400D01*
X197868796Y-5529400D02*
X197725939Y-5600828D01*
X197725939Y-5600828D02*
X197154510Y-5600828D01*
X197154510Y-5600828D02*
X197154510Y-4100828D01*
X197154510Y-4100828D02*
X197654510Y-4100828D01*
X197654510Y-4100828D02*
X197797368Y-4172257D01*
X197797368Y-4172257D02*
X197868796Y-4243685D01*
X197868796Y-4243685D02*
X197940225Y-4386542D01*
X197940225Y-4386542D02*
X197940225Y-4529400D01*
X197940225Y-4529400D02*
X197868796Y-4672257D01*
X197868796Y-4672257D02*
X197797368Y-4743685D01*
X197797368Y-4743685D02*
X197654510Y-4815114D01*
X197654510Y-4815114D02*
X197154510Y-4815114D01*
D12*
D13*
X199654510Y-5600828D02*
X199654510Y-4100828D01*
X199654510Y-4100828D02*
X200011653Y-4100828D01*
X200011653Y-4100828D02*
X200225939Y-4172257D01*
X200225939Y-4172257D02*
X200368796Y-4315114D01*
X200368796Y-4315114D02*
X200440225Y-4457971D01*
X200440225Y-4457971D02*
X200511653Y-4743685D01*
X200511653Y-4743685D02*
X200511653Y-4957971D01*
X200511653Y-4957971D02*
X200440225Y-5243685D01*
X200440225Y-5243685D02*
X200368796Y-5386542D01*
X200368796Y-5386542D02*
X200225939Y-5529400D01*
X200225939Y-5529400D02*
X200011653Y-5600828D01*
X200011653Y-5600828D02*
X199654510Y-5600828D01*
D12*
D13*
X202083082Y-5072257D02*
X202797368Y-5072257D01*
X201940225Y-5500828D02*
X202440225Y-4000828D01*
X202440225Y-4000828D02*
X202940225Y-5500828D01*
D12*
D13*
X205911653Y-5357971D02*
X205840225Y-5429400D01*
X205840225Y-5429400D02*
X205625939Y-5500828D01*
X205625939Y-5500828D02*
X205483082Y-5500828D01*
X205483082Y-5500828D02*
X205268796Y-5429400D01*
X205268796Y-5429400D02*
X205125939Y-5286542D01*
X205125939Y-5286542D02*
X205054510Y-5143685D01*
X205054510Y-5143685D02*
X204983082Y-4857971D01*
X204983082Y-4857971D02*
X204983082Y-4643685D01*
X204983082Y-4643685D02*
X205054510Y-4357971D01*
X205054510Y-4357971D02*
X205125939Y-4215114D01*
X205125939Y-4215114D02*
X205268796Y-4072257D01*
X205268796Y-4072257D02*
X205483082Y-4000828D01*
X205483082Y-4000828D02*
X205625939Y-4000828D01*
X205625939Y-4000828D02*
X205840225Y-4072257D01*
X205840225Y-4072257D02*
X205911653Y-4143685D01*
D12*
D13*
X208054510Y-5357971D02*
X208125939Y-5429400D01*
X208125939Y-5429400D02*
X208054510Y-5500828D01*
X208054510Y-5500828D02*
X207983082Y-5429400D01*
X207983082Y-5429400D02*
X208054510Y-5357971D01*
X208054510Y-5357971D02*
X208054510Y-5500828D01*
D12*
D13*
X125502632Y-9772257D02*
X126216918Y-9772257D01*
X125359775Y-10200828D02*
X125859775Y-8700828D01*
X125859775Y-8700828D02*
X126359775Y-10200828D01*
D12*
D13*
X140059774Y-9515114D02*
X140274060Y-9586542D01*
X140274060Y-9586542D02*
X140345489Y-9657971D01*
X140345489Y-9657971D02*
X140416917Y-9800828D01*
X140416917Y-9800828D02*
X140416917Y-10015114D01*
X140416917Y-10015114D02*
X140345489Y-10157971D01*
X140345489Y-10157971D02*
X140274060Y-10229400D01*
X140274060Y-10229400D02*
X140131203Y-10300828D01*
X140131203Y-10300828D02*
X139559774Y-10300828D01*
X139559774Y-10300828D02*
X139559774Y-8800828D01*
X139559774Y-8800828D02*
X140059774Y-8800828D01*
X140059774Y-8800828D02*
X140202632Y-8872257D01*
X140202632Y-8872257D02*
X140274060Y-8943685D01*
X140274060Y-8943685D02*
X140345489Y-9086542D01*
X140345489Y-9086542D02*
X140345489Y-9229400D01*
X140345489Y-9229400D02*
X140274060Y-9372257D01*
X140274060Y-9372257D02*
X140202632Y-9443685D01*
X140202632Y-9443685D02*
X140059774Y-9515114D01*
X140059774Y-9515114D02*
X139559774Y-9515114D01*
D12*
D13*
X154116917Y-10057971D02*
X154045489Y-10129400D01*
X154045489Y-10129400D02*
X153831203Y-10200828D01*
X153831203Y-10200828D02*
X153688346Y-10200828D01*
X153688346Y-10200828D02*
X153474060Y-10129400D01*
X153474060Y-10129400D02*
X153331203Y-9986542D01*
X153331203Y-9986542D02*
X153259774Y-9843685D01*
X153259774Y-9843685D02*
X153188346Y-9557971D01*
X153188346Y-9557971D02*
X153188346Y-9343685D01*
X153188346Y-9343685D02*
X153259774Y-9057971D01*
X153259774Y-9057971D02*
X153331203Y-8915114D01*
X153331203Y-8915114D02*
X153474060Y-8772257D01*
X153474060Y-8772257D02*
X153688346Y-8700828D01*
X153688346Y-8700828D02*
X153831203Y-8700828D01*
X153831203Y-8700828D02*
X154045489Y-8772257D01*
X154045489Y-8772257D02*
X154116917Y-8843685D01*
D12*
D13*
X167259774Y-10100828D02*
X167259774Y-8600828D01*
X167259774Y-8600828D02*
X167616917Y-8600828D01*
X167616917Y-8600828D02*
X167831203Y-8672257D01*
X167831203Y-8672257D02*
X167974060Y-8815114D01*
X167974060Y-8815114D02*
X168045489Y-8957971D01*
X168045489Y-8957971D02*
X168116917Y-9243685D01*
X168116917Y-9243685D02*
X168116917Y-9457971D01*
X168116917Y-9457971D02*
X168045489Y-9743685D01*
X168045489Y-9743685D02*
X167974060Y-9886542D01*
X167974060Y-9886542D02*
X167831203Y-10029400D01*
X167831203Y-10029400D02*
X167616917Y-10100828D01*
X167616917Y-10100828D02*
X167259774Y-10100828D01*
D12*
D13*
X91816917Y11929400D02*
X91674060Y12000828D01*
X91674060Y12000828D02*
X91388346Y12000828D01*
X91388346Y12000828D02*
X91245489Y11929400D01*
X91245489Y11929400D02*
X91174060Y11786542D01*
X91174060Y11786542D02*
X91174060Y11715114D01*
X91174060Y11715114D02*
X91245489Y11572257D01*
X91245489Y11572257D02*
X91388346Y11500828D01*
X91388346Y11500828D02*
X91602632Y11500828D01*
X91602632Y11500828D02*
X91745489Y11429400D01*
X91745489Y11429400D02*
X91816917Y11286542D01*
X91816917Y11286542D02*
X91816917Y11215114D01*
X91816917Y11215114D02*
X91745489Y11072257D01*
X91745489Y11072257D02*
X91602632Y11000828D01*
X91602632Y11000828D02*
X91388346Y11000828D01*
X91388346Y11000828D02*
X91245489Y11072257D01*
X89959774Y11929400D02*
X90102631Y12000828D01*
X90102631Y12000828D02*
X90388346Y12000828D01*
X90388346Y12000828D02*
X90531203Y11929400D01*
X90531203Y11929400D02*
X90602631Y11786542D01*
X90602631Y11786542D02*
X90602631Y11215114D01*
X90602631Y11215114D02*
X90531203Y11072257D01*
X90531203Y11072257D02*
X90388346Y11000828D01*
X90388346Y11000828D02*
X90102631Y11000828D01*
X90102631Y11000828D02*
X89959774Y11072257D01*
X89959774Y11072257D02*
X89888346Y11215114D01*
X89888346Y11215114D02*
X89888346Y11357971D01*
X89888346Y11357971D02*
X90602631Y11500828D01*
X89245489Y11000828D02*
X89245489Y12000828D01*
X89245489Y11143685D02*
X89174060Y11072257D01*
X89174060Y11072257D02*
X89031203Y11000828D01*
X89031203Y11000828D02*
X88816917Y11000828D01*
X88816917Y11000828D02*
X88674060Y11072257D01*
X88674060Y11072257D02*
X88602632Y11215114D01*
X88602632Y11215114D02*
X88602632Y12000828D01*
X87959774Y11929400D02*
X87816917Y12000828D01*
X87816917Y12000828D02*
X87531203Y12000828D01*
X87531203Y12000828D02*
X87388346Y11929400D01*
X87388346Y11929400D02*
X87316917Y11786542D01*
X87316917Y11786542D02*
X87316917Y11715114D01*
X87316917Y11715114D02*
X87388346Y11572257D01*
X87388346Y11572257D02*
X87531203Y11500828D01*
X87531203Y11500828D02*
X87745489Y11500828D01*
X87745489Y11500828D02*
X87888346Y11429400D01*
X87888346Y11429400D02*
X87959774Y11286542D01*
X87959774Y11286542D02*
X87959774Y11215114D01*
X87959774Y11215114D02*
X87888346Y11072257D01*
X87888346Y11072257D02*
X87745489Y11000828D01*
X87745489Y11000828D02*
X87531203Y11000828D01*
X87531203Y11000828D02*
X87388346Y11072257D01*
X86459774Y12000828D02*
X86602631Y11929400D01*
X86602631Y11929400D02*
X86674060Y11857971D01*
X86674060Y11857971D02*
X86745488Y11715114D01*
X86745488Y11715114D02*
X86745488Y11286542D01*
X86745488Y11286542D02*
X86674060Y11143685D01*
X86674060Y11143685D02*
X86602631Y11072257D01*
X86602631Y11072257D02*
X86459774Y11000828D01*
X86459774Y11000828D02*
X86245488Y11000828D01*
X86245488Y11000828D02*
X86102631Y11072257D01*
X86102631Y11072257D02*
X86031203Y11143685D01*
X86031203Y11143685D02*
X85959774Y11286542D01*
X85959774Y11286542D02*
X85959774Y11715114D01*
X85959774Y11715114D02*
X86031203Y11857971D01*
X86031203Y11857971D02*
X86102631Y11929400D01*
X86102631Y11929400D02*
X86245488Y12000828D01*
X86245488Y12000828D02*
X86459774Y12000828D01*
X85316917Y12000828D02*
X85316917Y11000828D01*
X85316917Y11286542D02*
X85245488Y11143685D01*
X85245488Y11143685D02*
X85174060Y11072257D01*
X85174060Y11072257D02*
X85031202Y11000828D01*
X85031202Y11000828D02*
X84888345Y11000828D01*
X83245489Y12000828D02*
X83245489Y11000828D01*
X83245489Y10500828D02*
X83316917Y10572257D01*
X83316917Y10572257D02*
X83245489Y10643685D01*
X83245489Y10643685D02*
X83174060Y10572257D01*
X83174060Y10572257D02*
X83245489Y10500828D01*
X83245489Y10500828D02*
X83245489Y10643685D01*
X82531203Y11000828D02*
X82531203Y12000828D01*
X82531203Y11143685D02*
X82459774Y11072257D01*
X82459774Y11072257D02*
X82316917Y11000828D01*
X82316917Y11000828D02*
X82102631Y11000828D01*
X82102631Y11000828D02*
X81959774Y11072257D01*
X81959774Y11072257D02*
X81888346Y11215114D01*
X81888346Y11215114D02*
X81888346Y12000828D01*
D12*
D13*
X105516917Y12029400D02*
X105374060Y12100828D01*
X105374060Y12100828D02*
X105088346Y12100828D01*
X105088346Y12100828D02*
X104945489Y12029400D01*
X104945489Y12029400D02*
X104874060Y11886542D01*
X104874060Y11886542D02*
X104874060Y11815114D01*
X104874060Y11815114D02*
X104945489Y11672257D01*
X104945489Y11672257D02*
X105088346Y11600828D01*
X105088346Y11600828D02*
X105302632Y11600828D01*
X105302632Y11600828D02*
X105445489Y11529400D01*
X105445489Y11529400D02*
X105516917Y11386542D01*
X105516917Y11386542D02*
X105516917Y11315114D01*
X105516917Y11315114D02*
X105445489Y11172257D01*
X105445489Y11172257D02*
X105302632Y11100828D01*
X105302632Y11100828D02*
X105088346Y11100828D01*
X105088346Y11100828D02*
X104945489Y11172257D01*
X103659774Y12029400D02*
X103802631Y12100828D01*
X103802631Y12100828D02*
X104088346Y12100828D01*
X104088346Y12100828D02*
X104231203Y12029400D01*
X104231203Y12029400D02*
X104302631Y11886542D01*
X104302631Y11886542D02*
X104302631Y11315114D01*
X104302631Y11315114D02*
X104231203Y11172257D01*
X104231203Y11172257D02*
X104088346Y11100828D01*
X104088346Y11100828D02*
X103802631Y11100828D01*
X103802631Y11100828D02*
X103659774Y11172257D01*
X103659774Y11172257D02*
X103588346Y11315114D01*
X103588346Y11315114D02*
X103588346Y11457971D01*
X103588346Y11457971D02*
X104302631Y11600828D01*
X102945489Y11100828D02*
X102945489Y12100828D01*
X102945489Y11243685D02*
X102874060Y11172257D01*
X102874060Y11172257D02*
X102731203Y11100828D01*
X102731203Y11100828D02*
X102516917Y11100828D01*
X102516917Y11100828D02*
X102374060Y11172257D01*
X102374060Y11172257D02*
X102302632Y11315114D01*
X102302632Y11315114D02*
X102302632Y12100828D01*
X101659774Y12029400D02*
X101516917Y12100828D01*
X101516917Y12100828D02*
X101231203Y12100828D01*
X101231203Y12100828D02*
X101088346Y12029400D01*
X101088346Y12029400D02*
X101016917Y11886542D01*
X101016917Y11886542D02*
X101016917Y11815114D01*
X101016917Y11815114D02*
X101088346Y11672257D01*
X101088346Y11672257D02*
X101231203Y11600828D01*
X101231203Y11600828D02*
X101445489Y11600828D01*
X101445489Y11600828D02*
X101588346Y11529400D01*
X101588346Y11529400D02*
X101659774Y11386542D01*
X101659774Y11386542D02*
X101659774Y11315114D01*
X101659774Y11315114D02*
X101588346Y11172257D01*
X101588346Y11172257D02*
X101445489Y11100828D01*
X101445489Y11100828D02*
X101231203Y11100828D01*
X101231203Y11100828D02*
X101088346Y11172257D01*
X100159774Y12100828D02*
X100302631Y12029400D01*
X100302631Y12029400D02*
X100374060Y11957971D01*
X100374060Y11957971D02*
X100445488Y11815114D01*
X100445488Y11815114D02*
X100445488Y11386542D01*
X100445488Y11386542D02*
X100374060Y11243685D01*
X100374060Y11243685D02*
X100302631Y11172257D01*
X100302631Y11172257D02*
X100159774Y11100828D01*
X100159774Y11100828D02*
X99945488Y11100828D01*
X99945488Y11100828D02*
X99802631Y11172257D01*
X99802631Y11172257D02*
X99731203Y11243685D01*
X99731203Y11243685D02*
X99659774Y11386542D01*
X99659774Y11386542D02*
X99659774Y11815114D01*
X99659774Y11815114D02*
X99731203Y11957971D01*
X99731203Y11957971D02*
X99802631Y12029400D01*
X99802631Y12029400D02*
X99945488Y12100828D01*
X99945488Y12100828D02*
X100159774Y12100828D01*
X99016917Y12100828D02*
X99016917Y11100828D01*
X99016917Y11386542D02*
X98945488Y11243685D01*
X98945488Y11243685D02*
X98874060Y11172257D01*
X98874060Y11172257D02*
X98731202Y11100828D01*
X98731202Y11100828D02*
X98588345Y11100828D01*
X96731203Y12100828D02*
X96874060Y12029400D01*
X96874060Y12029400D02*
X96945489Y11957971D01*
X96945489Y11957971D02*
X97016917Y11815114D01*
X97016917Y11815114D02*
X97016917Y11386542D01*
X97016917Y11386542D02*
X96945489Y11243685D01*
X96945489Y11243685D02*
X96874060Y11172257D01*
X96874060Y11172257D02*
X96731203Y11100828D01*
X96731203Y11100828D02*
X96516917Y11100828D01*
X96516917Y11100828D02*
X96374060Y11172257D01*
X96374060Y11172257D02*
X96302632Y11243685D01*
X96302632Y11243685D02*
X96231203Y11386542D01*
X96231203Y11386542D02*
X96231203Y11815114D01*
X96231203Y11815114D02*
X96302632Y11957971D01*
X96302632Y11957971D02*
X96374060Y12029400D01*
X96374060Y12029400D02*
X96516917Y12100828D01*
X96516917Y12100828D02*
X96731203Y12100828D01*
X94945489Y11100828D02*
X94945489Y12100828D01*
X95588346Y11100828D02*
X95588346Y11886542D01*
X95588346Y11886542D02*
X95516917Y12029400D01*
X95516917Y12029400D02*
X95374060Y12100828D01*
X95374060Y12100828D02*
X95159774Y12100828D01*
X95159774Y12100828D02*
X95016917Y12029400D01*
X95016917Y12029400D02*
X94945489Y11957971D01*
X94445488Y11100828D02*
X93874060Y11100828D01*
X94231203Y10600828D02*
X94231203Y11886542D01*
X94231203Y11886542D02*
X94159774Y12029400D01*
X94159774Y12029400D02*
X94016917Y12100828D01*
X94016917Y12100828D02*
X93874060Y12100828D01*
D12*
D13*
X125616917Y11572257D02*
X124902632Y11572257D01*
X125759774Y12000828D02*
X125259774Y10500828D01*
X125259774Y10500828D02*
X124759774Y12000828D01*
D12*
D13*
X139245489Y11315114D02*
X139031203Y11386542D01*
X139031203Y11386542D02*
X138959774Y11457971D01*
X138959774Y11457971D02*
X138888346Y11600828D01*
X138888346Y11600828D02*
X138888346Y11815114D01*
X138888346Y11815114D02*
X138959774Y11957971D01*
X138959774Y11957971D02*
X139031203Y12029400D01*
X139031203Y12029400D02*
X139174060Y12100828D01*
X139174060Y12100828D02*
X139745489Y12100828D01*
X139745489Y12100828D02*
X139745489Y10600828D01*
X139745489Y10600828D02*
X139245489Y10600828D01*
X139245489Y10600828D02*
X139102632Y10672257D01*
X139102632Y10672257D02*
X139031203Y10743685D01*
X139031203Y10743685D02*
X138959774Y10886542D01*
X138959774Y10886542D02*
X138959774Y11029400D01*
X138959774Y11029400D02*
X139031203Y11172257D01*
X139031203Y11172257D02*
X139102632Y11243685D01*
X139102632Y11243685D02*
X139245489Y11315114D01*
X139245489Y11315114D02*
X139745489Y11315114D01*
D12*
D13*
X152588346Y11857971D02*
X152659774Y11929400D01*
X152659774Y11929400D02*
X152874060Y12000828D01*
X152874060Y12000828D02*
X153016917Y12000828D01*
X153016917Y12000828D02*
X153231203Y11929400D01*
X153231203Y11929400D02*
X153374060Y11786542D01*
X153374060Y11786542D02*
X153445489Y11643685D01*
X153445489Y11643685D02*
X153516917Y11357971D01*
X153516917Y11357971D02*
X153516917Y11143685D01*
X153516917Y11143685D02*
X153445489Y10857971D01*
X153445489Y10857971D02*
X153374060Y10715114D01*
X153374060Y10715114D02*
X153231203Y10572257D01*
X153231203Y10572257D02*
X153016917Y10500828D01*
X153016917Y10500828D02*
X152874060Y10500828D01*
X152874060Y10500828D02*
X152659774Y10572257D01*
X152659774Y10572257D02*
X152588346Y10643685D01*
D12*
D13*
X167445489Y11900828D02*
X167445489Y10400828D01*
X167445489Y10400828D02*
X167088346Y10400828D01*
X167088346Y10400828D02*
X166874060Y10472257D01*
X166874060Y10472257D02*
X166731203Y10615114D01*
X166731203Y10615114D02*
X166659774Y10757971D01*
X166659774Y10757971D02*
X166588346Y11043685D01*
X166588346Y11043685D02*
X166588346Y11257971D01*
X166588346Y11257971D02*
X166659774Y11543685D01*
X166659774Y11543685D02*
X166731203Y11686542D01*
X166731203Y11686542D02*
X166874060Y11829400D01*
X166874060Y11829400D02*
X167088346Y11900828D01*
X167088346Y11900828D02*
X167445489Y11900828D01*
D12*
D13*
X192645489Y-4570600D02*
X191502632Y-4570600D01*
D12*
D13*
X195345489Y-4670600D02*
X194202632Y-4670600D01*
X194774060Y-4099171D02*
X194774060Y-5242028D01*
D12*
D13*
X206702632Y11529400D02*
X206845489Y11600828D01*
X206845489Y11600828D02*
X207131203Y11600828D01*
X207131203Y11600828D02*
X207274060Y11529400D01*
X207274060Y11529400D02*
X207345489Y11457971D01*
X207345489Y11457971D02*
X207416917Y11315114D01*
X207416917Y11315114D02*
X207416917Y10886542D01*
X207416917Y10886542D02*
X207345489Y10743685D01*
X207345489Y10743685D02*
X207274060Y10672257D01*
X207274060Y10672257D02*
X207131203Y10600828D01*
X207131203Y10600828D02*
X206845489Y10600828D01*
X206845489Y10600828D02*
X206702632Y10672257D01*
X205845489Y11600828D02*
X205988346Y11529400D01*
X205988346Y11529400D02*
X206059775Y11457971D01*
X206059775Y11457971D02*
X206131203Y11315114D01*
X206131203Y11315114D02*
X206131203Y10886542D01*
X206131203Y10886542D02*
X206059775Y10743685D01*
X206059775Y10743685D02*
X205988346Y10672257D01*
X205988346Y10672257D02*
X205845489Y10600828D01*
X205845489Y10600828D02*
X205631203Y10600828D01*
X205631203Y10600828D02*
X205488346Y10672257D01*
X205488346Y10672257D02*
X205416918Y10743685D01*
X205416918Y10743685D02*
X205345489Y10886542D01*
X205345489Y10886542D02*
X205345489Y11315114D01*
X205345489Y11315114D02*
X205416918Y11457971D01*
X205416918Y11457971D02*
X205488346Y11529400D01*
X205488346Y11529400D02*
X205631203Y11600828D01*
X205631203Y11600828D02*
X205845489Y11600828D01*
X204702632Y10600828D02*
X204702632Y11600828D01*
X204702632Y10743685D02*
X204631203Y10672257D01*
X204631203Y10672257D02*
X204488346Y10600828D01*
X204488346Y10600828D02*
X204274060Y10600828D01*
X204274060Y10600828D02*
X204131203Y10672257D01*
X204131203Y10672257D02*
X204059775Y10815114D01*
X204059775Y10815114D02*
X204059775Y11600828D01*
X203559774Y10600828D02*
X202988346Y10600828D01*
X203345489Y10100828D02*
X203345489Y11386542D01*
X203345489Y11386542D02*
X203274060Y11529400D01*
X203274060Y11529400D02*
X203131203Y11600828D01*
X203131203Y11600828D02*
X202988346Y11600828D01*
X202488346Y11600828D02*
X202488346Y10600828D01*
X202488346Y10886542D02*
X202416917Y10743685D01*
X202416917Y10743685D02*
X202345489Y10672257D01*
X202345489Y10672257D02*
X202202631Y10600828D01*
X202202631Y10600828D02*
X202059774Y10600828D01*
X201345489Y11600828D02*
X201488346Y11529400D01*
X201488346Y11529400D02*
X201559775Y11457971D01*
X201559775Y11457971D02*
X201631203Y11315114D01*
X201631203Y11315114D02*
X201631203Y10886542D01*
X201631203Y10886542D02*
X201559775Y10743685D01*
X201559775Y10743685D02*
X201488346Y10672257D01*
X201488346Y10672257D02*
X201345489Y10600828D01*
X201345489Y10600828D02*
X201131203Y10600828D01*
X201131203Y10600828D02*
X200988346Y10672257D01*
X200988346Y10672257D02*
X200916918Y10743685D01*
X200916918Y10743685D02*
X200845489Y10886542D01*
X200845489Y10886542D02*
X200845489Y11315114D01*
X200845489Y11315114D02*
X200916918Y11457971D01*
X200916918Y11457971D02*
X200988346Y11529400D01*
X200988346Y11529400D02*
X201131203Y11600828D01*
X201131203Y11600828D02*
X201345489Y11600828D01*
X199988346Y11600828D02*
X200131203Y11529400D01*
X200131203Y11529400D02*
X200202632Y11386542D01*
X200202632Y11386542D02*
X200202632Y10100828D01*
X198274061Y11600828D02*
X198274061Y10600828D01*
X198274061Y10886542D02*
X198202632Y10743685D01*
X198202632Y10743685D02*
X198131204Y10672257D01*
X198131204Y10672257D02*
X197988346Y10600828D01*
X197988346Y10600828D02*
X197845489Y10600828D01*
X196774061Y11529400D02*
X196916918Y11600828D01*
X196916918Y11600828D02*
X197202633Y11600828D01*
X197202633Y11600828D02*
X197345490Y11529400D01*
X197345490Y11529400D02*
X197416918Y11386542D01*
X197416918Y11386542D02*
X197416918Y10815114D01*
X197416918Y10815114D02*
X197345490Y10672257D01*
X197345490Y10672257D02*
X197202633Y10600828D01*
X197202633Y10600828D02*
X196916918Y10600828D01*
X196916918Y10600828D02*
X196774061Y10672257D01*
X196774061Y10672257D02*
X196702633Y10815114D01*
X196702633Y10815114D02*
X196702633Y10957971D01*
X196702633Y10957971D02*
X197416918Y11100828D01*
X196059776Y11600828D02*
X196059776Y10600828D01*
X196059776Y10743685D02*
X195988347Y10672257D01*
X195988347Y10672257D02*
X195845490Y10600828D01*
X195845490Y10600828D02*
X195631204Y10600828D01*
X195631204Y10600828D02*
X195488347Y10672257D01*
X195488347Y10672257D02*
X195416919Y10815114D01*
X195416919Y10815114D02*
X195416919Y11600828D01*
X195416919Y10815114D02*
X195345490Y10672257D01*
X195345490Y10672257D02*
X195202633Y10600828D01*
X195202633Y10600828D02*
X194988347Y10600828D01*
X194988347Y10600828D02*
X194845490Y10672257D01*
X194845490Y10672257D02*
X194774061Y10815114D01*
X194774061Y10815114D02*
X194774061Y11600828D01*
X193845490Y11600828D02*
X193988347Y11529400D01*
X193988347Y11529400D02*
X194059776Y11457971D01*
X194059776Y11457971D02*
X194131204Y11315114D01*
X194131204Y11315114D02*
X194131204Y10886542D01*
X194131204Y10886542D02*
X194059776Y10743685D01*
X194059776Y10743685D02*
X193988347Y10672257D01*
X193988347Y10672257D02*
X193845490Y10600828D01*
X193845490Y10600828D02*
X193631204Y10600828D01*
X193631204Y10600828D02*
X193488347Y10672257D01*
X193488347Y10672257D02*
X193416919Y10743685D01*
X193416919Y10743685D02*
X193345490Y10886542D01*
X193345490Y10886542D02*
X193345490Y11315114D01*
X193345490Y11315114D02*
X193416919Y11457971D01*
X193416919Y11457971D02*
X193488347Y11529400D01*
X193488347Y11529400D02*
X193631204Y11600828D01*
X193631204Y11600828D02*
X193845490Y11600828D01*
X192916918Y10600828D02*
X192345490Y10600828D01*
X192702633Y10100828D02*
X192702633Y11386542D01*
X192702633Y11386542D02*
X192631204Y11529400D01*
X192631204Y11529400D02*
X192488347Y11600828D01*
X192488347Y11600828D02*
X192345490Y11600828D01*
X191631204Y11600828D02*
X191774061Y11529400D01*
X191774061Y11529400D02*
X191845490Y11457971D01*
X191845490Y11457971D02*
X191916918Y11315114D01*
X191916918Y11315114D02*
X191916918Y10886542D01*
X191916918Y10886542D02*
X191845490Y10743685D01*
X191845490Y10743685D02*
X191774061Y10672257D01*
X191774061Y10672257D02*
X191631204Y10600828D01*
X191631204Y10600828D02*
X191416918Y10600828D01*
X191416918Y10600828D02*
X191274061Y10672257D01*
X191274061Y10672257D02*
X191202633Y10743685D01*
X191202633Y10743685D02*
X191131204Y10886542D01*
X191131204Y10886542D02*
X191131204Y11315114D01*
X191131204Y11315114D02*
X191202633Y11457971D01*
X191202633Y11457971D02*
X191274061Y11529400D01*
X191274061Y11529400D02*
X191416918Y11600828D01*
X191416918Y11600828D02*
X191631204Y11600828D01*
D12*
D13*
X-68800828Y-93440225D02*
X-68800828Y-92583082D01*
X-68800828Y-93011653D02*
X-67300828Y-93011653D01*
X-67300828Y-93011653D02*
X-67515114Y-92868796D01*
X-67515114Y-92868796D02*
X-67657971Y-92725939D01*
X-67657971Y-92725939D02*
X-67729400Y-92583082D01*
X-67443685Y-94011653D02*
X-67372257Y-94083081D01*
X-67372257Y-94083081D02*
X-67300828Y-94225939D01*
X-67300828Y-94225939D02*
X-67300828Y-94583081D01*
X-67300828Y-94583081D02*
X-67372257Y-94725939D01*
X-67372257Y-94725939D02*
X-67443685Y-94797367D01*
X-67443685Y-94797367D02*
X-67586542Y-94868796D01*
X-67586542Y-94868796D02*
X-67729400Y-94868796D01*
X-67729400Y-94868796D02*
X-67943685Y-94797367D01*
X-67943685Y-94797367D02*
X-68800828Y-93940224D01*
X-68800828Y-93940224D02*
X-68800828Y-94868796D01*
X-67300828Y-96440224D02*
X-68800828Y-96940224D01*
X-68800828Y-96940224D02*
X-67300828Y-97440224D01*
X-68800828Y-97940223D02*
X-67300828Y-97940223D01*
X-67300828Y-97940223D02*
X-67300828Y-98297366D01*
X-67300828Y-98297366D02*
X-67372257Y-98511652D01*
X-67372257Y-98511652D02*
X-67515114Y-98654509D01*
X-67515114Y-98654509D02*
X-67657971Y-98725938D01*
X-67657971Y-98725938D02*
X-67943685Y-98797366D01*
X-67943685Y-98797366D02*
X-68157971Y-98797366D01*
X-68157971Y-98797366D02*
X-68443685Y-98725938D01*
X-68443685Y-98725938D02*
X-68586542Y-98654509D01*
X-68586542Y-98654509D02*
X-68729400Y-98511652D01*
X-68729400Y-98511652D02*
X-68800828Y-98297366D01*
X-68800828Y-98297366D02*
X-68800828Y-97940223D01*
X-68657971Y-100297366D02*
X-68729400Y-100225938D01*
X-68729400Y-100225938D02*
X-68800828Y-100011652D01*
X-68800828Y-100011652D02*
X-68800828Y-99868795D01*
X-68800828Y-99868795D02*
X-68729400Y-99654509D01*
X-68729400Y-99654509D02*
X-68586542Y-99511652D01*
X-68586542Y-99511652D02*
X-68443685Y-99440223D01*
X-68443685Y-99440223D02*
X-68157971Y-99368795D01*
X-68157971Y-99368795D02*
X-67943685Y-99368795D01*
X-67943685Y-99368795D02*
X-67657971Y-99440223D01*
X-67657971Y-99440223D02*
X-67515114Y-99511652D01*
X-67515114Y-99511652D02*
X-67372257Y-99654509D01*
X-67372257Y-99654509D02*
X-67300828Y-99868795D01*
X-67300828Y-99868795D02*
X-67300828Y-100011652D01*
X-67300828Y-100011652D02*
X-67372257Y-100225938D01*
X-67372257Y-100225938D02*
X-67443685Y-100297366D01*
D12*
D13*
X-68600828Y-78454510D02*
X-67100828Y-78454510D01*
X-67672257Y-78454510D02*
X-67600828Y-78597368D01*
X-67600828Y-78597368D02*
X-67600828Y-78883082D01*
X-67600828Y-78883082D02*
X-67672257Y-79025939D01*
X-67672257Y-79025939D02*
X-67743685Y-79097368D01*
X-67743685Y-79097368D02*
X-67886542Y-79168796D01*
X-67886542Y-79168796D02*
X-68315114Y-79168796D01*
X-68315114Y-79168796D02*
X-68457971Y-79097368D01*
X-68457971Y-79097368D02*
X-68529400Y-79025939D01*
X-68529400Y-79025939D02*
X-68600828Y-78883082D01*
X-68600828Y-78883082D02*
X-68600828Y-78597368D01*
X-68600828Y-78597368D02*
X-68529400Y-78454510D01*
X-68600828Y-80454511D02*
X-67815114Y-80454511D01*
X-67815114Y-80454511D02*
X-67672257Y-80383082D01*
X-67672257Y-80383082D02*
X-67600828Y-80240225D01*
X-67600828Y-80240225D02*
X-67600828Y-79954511D01*
X-67600828Y-79954511D02*
X-67672257Y-79811653D01*
X-68529400Y-80454511D02*
X-68600828Y-80311653D01*
X-68600828Y-80311653D02*
X-68600828Y-79954511D01*
X-68600828Y-79954511D02*
X-68529400Y-79811653D01*
X-68529400Y-79811653D02*
X-68386542Y-79740225D01*
X-68386542Y-79740225D02*
X-68243685Y-79740225D01*
X-68243685Y-79740225D02*
X-68100828Y-79811653D01*
X-68100828Y-79811653D02*
X-68029400Y-79954511D01*
X-68029400Y-79954511D02*
X-68029400Y-80311653D01*
X-68029400Y-80311653D02*
X-67957971Y-80454511D01*
X-67600828Y-80954511D02*
X-67600828Y-81525939D01*
X-67100828Y-81168796D02*
X-68386542Y-81168796D01*
X-68386542Y-81168796D02*
X-68529400Y-81240225D01*
X-68529400Y-81240225D02*
X-68600828Y-81383082D01*
X-68600828Y-81383082D02*
X-68600828Y-81525939D01*
X-68529400Y-82597368D02*
X-68600828Y-82454511D01*
X-68600828Y-82454511D02*
X-68600828Y-82168797D01*
X-68600828Y-82168797D02*
X-68529400Y-82025939D01*
X-68529400Y-82025939D02*
X-68386542Y-81954511D01*
X-68386542Y-81954511D02*
X-67815114Y-81954511D01*
X-67815114Y-81954511D02*
X-67672257Y-82025939D01*
X-67672257Y-82025939D02*
X-67600828Y-82168797D01*
X-67600828Y-82168797D02*
X-67600828Y-82454511D01*
X-67600828Y-82454511D02*
X-67672257Y-82597368D01*
X-67672257Y-82597368D02*
X-67815114Y-82668797D01*
X-67815114Y-82668797D02*
X-67957971Y-82668797D01*
X-67957971Y-82668797D02*
X-68100828Y-81954511D01*
X-68600828Y-83311653D02*
X-67600828Y-83311653D01*
X-67886542Y-83311653D02*
X-67743685Y-83383082D01*
X-67743685Y-83383082D02*
X-67672257Y-83454511D01*
X-67672257Y-83454511D02*
X-67600828Y-83597368D01*
X-67600828Y-83597368D02*
X-67600828Y-83740225D01*
X-68600828Y-84240224D02*
X-67600828Y-84240224D01*
X-67100828Y-84240224D02*
X-67172257Y-84168796D01*
X-67172257Y-84168796D02*
X-67243685Y-84240224D01*
X-67243685Y-84240224D02*
X-67172257Y-84311653D01*
X-67172257Y-84311653D02*
X-67100828Y-84240224D01*
X-67100828Y-84240224D02*
X-67243685Y-84240224D01*
X-68600828Y-85597368D02*
X-67815114Y-85597368D01*
X-67815114Y-85597368D02*
X-67672257Y-85525939D01*
X-67672257Y-85525939D02*
X-67600828Y-85383082D01*
X-67600828Y-85383082D02*
X-67600828Y-85097368D01*
X-67600828Y-85097368D02*
X-67672257Y-84954510D01*
X-68529400Y-85597368D02*
X-68600828Y-85454510D01*
X-68600828Y-85454510D02*
X-68600828Y-85097368D01*
X-68600828Y-85097368D02*
X-68529400Y-84954510D01*
X-68529400Y-84954510D02*
X-68386542Y-84883082D01*
X-68386542Y-84883082D02*
X-68243685Y-84883082D01*
X-68243685Y-84883082D02*
X-68100828Y-84954510D01*
X-68100828Y-84954510D02*
X-68029400Y-85097368D01*
X-68029400Y-85097368D02*
X-68029400Y-85454510D01*
X-68029400Y-85454510D02*
X-67957971Y-85597368D01*
D12*
D13*
X-66729400Y-88954510D02*
X-66729400Y-90097368D01*
D12*
D13*
X-66429400Y-105154510D02*
X-66429400Y-106297368D01*
X-67000828Y-105725939D02*
X-65857971Y-105725939D01*
D12*
D13*
X-66229400Y-74154510D02*
X-66229400Y-75297368D01*
X-66800828Y-74725939D02*
X-65657971Y-74725939D01*
D14*
%TO.P,h1,1*%
%TO.N,N/C*%
X-60700000Y-107500000D03*
%TD*%
%TO.P,h1,1*%
%TO.N,N/C*%
X-61000000Y10100000D03*
%TD*%
%TO.P,h1,1*%
%TO.N,N/C*%
X217500000Y-105500000D03*
%TD*%
%TO.P,h1,1*%
%TO.N,N/C*%
X216300000Y7300000D03*
%TD*%
D15*
%TO.P,U4,1*%
%TO.N,Net-(R23-Pad2)*%
X209065000Y-43550000D03*
D16*
%TO.P,U4,2*%
%TO.N,Net-(D19-A)*%
X211605000Y-43550000D03*
%TO.P,U4,3*%
%TO.N,Net-(R14-Pad1)*%
X211605000Y-35930000D03*
%TO.P,U4,4*%
%TO.N,Net-(R10-Pad2)*%
X209065000Y-35930000D03*
%TD*%
D15*
%TO.P,U3,1*%
%TO.N,Net-(R22-Pad2)*%
X169835000Y-45450000D03*
D16*
%TO.P,U3,2*%
%TO.N,Net-(D19-A)*%
X172375000Y-45450000D03*
%TO.P,U3,3*%
%TO.N,Net-(R13-Pad1)*%
X172375000Y-37830000D03*
%TO.P,U3,4*%
%TO.N,Net-(R8-Pad2)*%
X169835000Y-37830000D03*
%TD*%
D15*
%TO.P,U2,1*%
%TO.N,Net-(R20-Pad2)*%
X129935000Y-43750000D03*
D16*
%TO.P,U2,2*%
%TO.N,Net-(D19-A)*%
X132475000Y-43750000D03*
%TO.P,U2,3*%
%TO.N,Net-(R12-Pad1)*%
X132475000Y-36130000D03*
%TO.P,U2,4*%
%TO.N,Net-(R6-Pad2)*%
X129935000Y-36130000D03*
%TD*%
D15*
%TO.P,U1,1*%
%TO.N,Net-(R1-Pad2)*%
X93635000Y-44350000D03*
D16*
%TO.P,U1,2*%
%TO.N,Net-(D19-A)*%
X96175000Y-44350000D03*
%TO.P,U1,3*%
%TO.N,Net-(R11-Pad2)*%
X96175000Y-36730000D03*
%TO.P,U1,4*%
%TO.N,Net-(R4-Pad2)*%
X93635000Y-36730000D03*
%TD*%
D17*
%TO.P,Q2,1,E*%
%TO.N,Net-(Q2-E)*%
X129160000Y-56200000D03*
D18*
%TO.P,Q2,2,B*%
%TO.N,Net-(Q2-B)*%
X130430000Y-54930000D03*
%TO.P,Q2,3,C*%
%TO.N,Net-(D4-A)*%
X131700000Y-56200000D03*
%TD*%
D19*
%TO.P,J12,1,Pin_1*%
%TO.N,unconnected-(J12-Pin_1-Pad1)*%
X46500000Y-47280000D03*
D20*
%TO.P,J12,2,Pin_2*%
%TO.N,Net-(D19-A)*%
X46500000Y-49820000D03*
%TO.P,J12,3,Pin_3*%
%TO.N,unconnected-(J12-Pin_3-Pad3)*%
X46500000Y-52360000D03*
%TO.P,J12,4,Pin_4*%
%TO.N,unconnected-(J12-Pin_4-Pad4)*%
X46500000Y-54900000D03*
%TO.P,J12,5,Pin_5*%
%TO.N,unconnected-(J12-Pin_5-Pad5)*%
X46500000Y-57440000D03*
%TO.P,J12,6,Pin_6*%
%TO.N,unconnected-(J12-Pin_6-Pad6)*%
X46500000Y-59980000D03*
%TO.P,J12,7,Pin_7*%
%TO.N,unconnected-(J12-Pin_7-Pad7)*%
X46500000Y-62520000D03*
%TO.P,J12,8,Pin_8*%
%TO.N,unconnected-(J12-Pin_8-Pad8)*%
X46500000Y-65060000D03*
%TO.P,J12,9,Pin_9*%
%TO.N,Net-(J12-Pin_9)*%
X46500000Y-67600000D03*
%TO.P,J12,10,Pin_10*%
%TO.N,unconnected-(J12-Pin_10-Pad10)*%
X46500000Y-70140000D03*
%TO.P,J12,11,Pin_11*%
%TO.N,Net-(J12-Pin_11)*%
X46500000Y-72680000D03*
%TO.P,J12,12,Pin_12*%
%TO.N,unconnected-(J12-Pin_12-Pad12)*%
X46500000Y-75220000D03*
%TO.P,J12,13,Pin_13*%
%TO.N,unconnected-(J12-Pin_13-Pad13)*%
X46500000Y-77760000D03*
%TO.P,J12,14,Pin_14*%
%TO.N,Net-(J12-Pin_11)*%
X46500000Y-80300000D03*
%TO.P,J12,15,Pin_15*%
%TO.N,Net-(J12-Pin_15)*%
X46500000Y-82840000D03*
%TD*%
D16*
%TO.P,R19,1*%
%TO.N,Net-(Q7-B)*%
X-10900000Y-38900000D03*
%TO.P,R19,2*%
%TO.N,Net-(J12-Pin_9)*%
X1800000Y-38900000D03*
%TD*%
D21*
%TO.P,U7,1,VI*%
%TO.N,Net-(D12-A)*%
X-10700000Y-65700000D03*
D22*
%TO.P,U7,2,GND*%
%TO.N,Net-(D19-A)*%
X-13240000Y-65700000D03*
%TO.P,U7,3,VO*%
%TO.N,Net-(J15-Pin_2)*%
X-15780000Y-65700000D03*
%TD*%
D23*
%TO.P,D7,1,K*%
%TO.N,Net-(D12-A)*%
X-47300000Y-64200000D03*
D24*
%TO.P,D7,2,A*%
%TO.N,Net-(D7-A)*%
X-47300000Y-74360000D03*
%TD*%
D25*
%TO.P,U13,1,GND*%
%TO.N,Net-(U13-GND)*%
X280000Y-4100000D03*
D16*
%TO.P,U13,2,+*%
%TO.N,Net-(J2-Pin_1)*%
X-2260000Y-4100000D03*
%TO.P,U13,3,-*%
%TO.N,Net-(D13-K)*%
X-4800000Y-4100000D03*
%TO.P,U13,4,V-*%
%TO.N,Net-(D19-A)*%
X-7340000Y-4100000D03*
%TO.P,U13,5,BAL*%
%TO.N,unconnected-(U13-BAL-Pad5)*%
X-7340000Y-11720000D03*
%TO.P,U13,6,STRB*%
%TO.N,unconnected-(U13-STRB-Pad6)*%
X-4800000Y-11720000D03*
%TO.P,U13,7*%
%TO.N,Net-(R18-Pad2)*%
X-2260000Y-11720000D03*
%TO.P,U13,8,V+*%
%TO.N,Net-(D12-K)*%
X280000Y-11720000D03*
%TD*%
D23*
%TO.P,D12,1,K*%
%TO.N,Net-(D12-K)*%
X8180000Y-14660000D03*
D24*
%TO.P,D12,2,A*%
%TO.N,Net-(D12-A)*%
X8180000Y-24820000D03*
%TD*%
D16*
%TO.P,R8,1*%
%TO.N,Net-(D12-A)*%
X165500000Y-20040000D03*
%TO.P,R8,2*%
%TO.N,Net-(R8-Pad2)*%
X165500000Y-30200000D03*
%TD*%
D21*
%TO.P,U8,1,VI*%
%TO.N,Net-(D12-A)*%
X-10700000Y-85000000D03*
D22*
%TO.P,U8,2,GND*%
%TO.N,Net-(D19-A)*%
X-13240000Y-85000000D03*
%TO.P,U8,3,VO*%
%TO.N,Net-(J12-Pin_11)*%
X-15780000Y-85000000D03*
%TD*%
D26*
%TO.P,J15,1,Pin_1*%
%TO.N,Net-(D19-A)*%
X192500000Y2600000D03*
D20*
%TO.P,J15,2,Pin_2*%
%TO.N,Net-(J15-Pin_2)*%
X195040000Y2600000D03*
%TO.P,J15,3,Pin_3*%
%TO.N,Net-(J15-Pin_3)*%
X197580000Y2600000D03*
%TO.P,J15,4,Pin_4*%
%TO.N,Net-(J15-Pin_4)*%
X200120000Y2600000D03*
%TO.P,J15,5,Pin_5*%
%TO.N,Net-(J15-Pin_5)*%
X202660000Y2600000D03*
%TO.P,J15,6,Pin_6*%
%TO.N,Net-(J15-Pin_6)*%
X205200000Y2600000D03*
%TO.P,J15,7,Pin_7*%
%TO.N,unconnected-(J15-Pin_7-Pad7)*%
X207740000Y2600000D03*
%TD*%
%TO.P,C5,1*%
%TO.N,Net-(D12-A)*%
X-13000000Y-96000000D03*
%TO.P,C5,2*%
%TO.N,Net-(D19-A)*%
X-13000000Y-103500000D03*
%TD*%
D27*
%TO.P,U12,1,X1*%
%TO.N,Net-(U12-X1)*%
X15200000Y-45500000D03*
D16*
%TO.P,U12,2,X2*%
%TO.N,Net-(U12-X2)*%
X15200000Y-48040000D03*
%TO.P,U12,3,VBAT*%
%TO.N,Net-(BT1-+)*%
X15200000Y-50580000D03*
%TO.P,U12,4,GND*%
%TO.N,Net-(BT1--)*%
X15200000Y-53120000D03*
%TO.P,U12,5,SDA*%
%TO.N,Net-(U12-SDA)*%
X22820000Y-53120000D03*
%TO.P,U12,6,SCL*%
%TO.N,Net-(U12-SCL)*%
X22820000Y-50580000D03*
%TO.P,U12,7,SQW/OUT*%
%TO.N,unconnected-(U12-SQW{slash}OUT-Pad7)*%
X22820000Y-48040000D03*
%TO.P,U12,8,VCC*%
%TO.N,Net-(J12-Pin_11)*%
X22820000Y-45500000D03*
%TD*%
D28*
%TO.P,J4,1,Pin_1*%
%TO.N,Net-(J3-Pin_1)*%
X97540000Y2000000D03*
D29*
%TO.P,J4,2,Pin_2*%
%TO.N,Net-(J13-Pin_5)*%
X102620000Y2000000D03*
%TD*%
D16*
%TO.P,R4,1*%
%TO.N,Net-(D12-A)*%
X90500000Y-20140000D03*
%TO.P,R4,2*%
%TO.N,Net-(R4-Pad2)*%
X90500000Y-30300000D03*
%TD*%
D30*
%TO.P,Y1,1,1*%
%TO.N,Net-(U12-X1)*%
X11450000Y-42255000D03*
%TO.P,Y1,2,2*%
%TO.N,Net-(U12-X2)*%
X9550000Y-42255000D03*
%TD*%
D31*
%TO.P,K2,1*%
%TO.N,Net-(J9-Pin_2)*%
X122000000Y-80450000D03*
D32*
%TO.P,K2,2*%
%TO.N,Net-(D4-A)*%
X123950000Y-86500000D03*
D31*
%TO.P,K2,3*%
%TO.N,Net-(J9-Pin_1)*%
X136150000Y-86500000D03*
%TO.P,K2,4*%
%TO.N,unconnected-(K2-Pad4)*%
X136200000Y-74450000D03*
D32*
%TO.P,K2,5*%
%TO.N,Net-(D12-A)*%
X123950000Y-74500000D03*
%TD*%
D16*
%TO.P,R10,1*%
%TO.N,Net-(D12-A)*%
X205300000Y-19540000D03*
%TO.P,R10,2*%
%TO.N,Net-(R10-Pad2)*%
X205300000Y-29700000D03*
%TD*%
D33*
%TO.P,J1,1,Pin_1*%
%TO.N,Net-(D19-A)*%
X-60000000Y-94000000D03*
D29*
%TO.P,J1,2,Pin_2*%
%TO.N,Net-(J1-Pin_2)*%
X-60000000Y-99080000D03*
%TD*%
D16*
%TO.P,C3,1*%
%TO.N,Net-(J13-Pin_3)*%
X26800000Y-26500000D03*
%TO.P,C3,2*%
%TO.N,Net-(D19-A)*%
X24300000Y-26500000D03*
%TD*%
%TO.P,C8,1*%
%TO.N,Net-(J15-Pin_2)*%
X-17450000Y-60400000D03*
%TO.P,C8,2*%
%TO.N,Net-(D19-A)*%
X-14950000Y-60400000D03*
%TD*%
%TO.P,C13,1*%
%TO.N,Net-(J15-Pin_2)*%
X5500000Y-59800000D03*
%TO.P,C13,2*%
%TO.N,Net-(D19-A)*%
X8000000Y-59800000D03*
%TD*%
D23*
%TO.P,D14,1,K*%
%TO.N,Net-(D13-A)*%
X8180000Y540000D03*
D24*
%TO.P,D14,2,A*%
%TO.N,Net-(D12-K)*%
X8180000Y-9620000D03*
%TD*%
D16*
%TO.P,R26,1*%
%TO.N,Net-(U13-GND)*%
X2700000Y6500000D03*
%TO.P,R26,2*%
%TO.N,Net-(D19-A)*%
X-10000000Y6500000D03*
%TD*%
D17*
%TO.P,Q7,1,E*%
%TO.N,Net-(Q7-E)*%
X-19470000Y-44730000D03*
D18*
%TO.P,Q7,2,B*%
%TO.N,Net-(Q7-B)*%
X-18200000Y-46000000D03*
%TO.P,Q7,3,C*%
%TO.N,Net-(D16-A)*%
X-19470000Y-47270000D03*
%TD*%
D28*
%TO.P,J14,1,Pin_1*%
%TO.N,Net-(J14-Pin_1)*%
X164820000Y1800000D03*
D29*
%TO.P,J14,2,Pin_2*%
%TO.N,Net-(D8-K)*%
X169900000Y1800000D03*
%TD*%
D34*
%TO.P,K5,1*%
%TO.N,Net-(D1-K)*%
X-44220000Y-92800000D03*
D35*
%TO.P,K5,3*%
%TO.N,unconnected-(K5-Pad3)*%
X-44220000Y-87720000D03*
%TO.P,K5,4*%
%TO.N,Net-(D1-K)*%
X-44220000Y-85180000D03*
%TO.P,K5,5*%
%TO.N,Net-(D12-A)*%
X-44220000Y-82640000D03*
%TO.P,K5,8*%
%TO.N,unconnected-(K5-Pad8)*%
X-49300000Y-82640000D03*
%TO.P,K5,9*%
%TO.N,Net-(D7-A)*%
X-49300000Y-85180000D03*
%TO.P,K5,10*%
%TO.N,Net-(J2-Pin_1)*%
X-49300000Y-87720000D03*
%TO.P,K5,12*%
%TO.N,Net-(D19-A)*%
X-49300000Y-92800000D03*
%TD*%
D16*
%TO.P,R15,1*%
%TO.N,Net-(BT1--)*%
X57500000Y-104860000D03*
%TO.P,R15,2*%
%TO.N,Net-(J13-Pin_5)*%
X57500000Y-94700000D03*
%TD*%
D21*
%TO.P,U6,1,GND*%
%TO.N,Net-(D19-A)*%
X24900000Y-20400000D03*
D22*
%TO.P,U6,2,VO*%
%TO.N,Net-(J13-Pin_3)*%
X27440000Y-20400000D03*
%TO.P,U6,3,VI*%
%TO.N,Net-(U5-VO)*%
X29980000Y-20400000D03*
%TD*%
D16*
%TO.P,C10,1*%
%TO.N,Net-(J12-Pin_11)*%
X13900000Y-79000000D03*
%TO.P,C10,2*%
%TO.N,Net-(D19-A)*%
X11400000Y-79000000D03*
%TD*%
%TO.P,R22,1*%
%TO.N,Net-(J13-Pin_7)*%
X162000000Y-39240000D03*
%TO.P,R22,2*%
%TO.N,Net-(R22-Pad2)*%
X162000000Y-49400000D03*
%TD*%
D28*
%TO.P,J6,1,Pin_1*%
%TO.N,Net-(J14-Pin_1)*%
X136940000Y1400000D03*
D29*
%TO.P,J6,2,Pin_2*%
%TO.N,Net-(D2-K)*%
X142020000Y1400000D03*
%TD*%
D36*
%TO.P,J13,1,Pin_1*%
%TO.N,unconnected-(J13-Pin_1-Pad1)*%
X71900000Y-82800000D03*
D20*
%TO.P,J13,2,Pin_2*%
%TO.N,unconnected-(J13-Pin_2-Pad2)*%
X71900000Y-80260000D03*
%TO.P,J13,3,Pin_3*%
%TO.N,Net-(J13-Pin_3)*%
X71900000Y-77720000D03*
%TO.P,J13,4,Pin_4*%
%TO.N,Net-(J13-Pin_4)*%
X71900000Y-75180000D03*
%TO.P,J13,5,Pin_5*%
%TO.N,Net-(J13-Pin_5)*%
X71900000Y-72640000D03*
%TO.P,J13,6,Pin_6*%
%TO.N,Net-(J13-Pin_6)*%
X71900000Y-70100000D03*
%TO.P,J13,7,Pin_7*%
%TO.N,Net-(J13-Pin_7)*%
X71900000Y-67560000D03*
%TO.P,J13,8,Pin_8*%
%TO.N,Net-(J13-Pin_8)*%
X71900000Y-65020000D03*
%TO.P,J13,9,Pin_9*%
%TO.N,Net-(D9-K)*%
X71900000Y-62480000D03*
%TO.P,J13,10,Pin_10*%
%TO.N,Net-(D2-K)*%
X71900000Y-59940000D03*
%TO.P,J13,11,Pin_11*%
%TO.N,Net-(D10-K)*%
X71900000Y-57400000D03*
%TO.P,J13,12,Pin_12*%
%TO.N,unconnected-(J13-Pin_12-Pad12)*%
X71900000Y-54860000D03*
%TO.P,J13,13,Pin_13*%
%TO.N,Net-(D8-K)*%
X71900000Y-52320000D03*
%TO.P,J13,14,Pin_14*%
%TO.N,Net-(BT1--)*%
X71900000Y-49780000D03*
%TO.P,J13,15,Pin_15*%
%TO.N,Net-(J12-Pin_11)*%
X71900000Y-47240000D03*
%TD*%
D37*
%TO.P,D16,1,K*%
%TO.N,Net-(D1-K)*%
X-38100000Y-67900000D03*
D24*
%TO.P,D16,2,A*%
%TO.N,Net-(D16-A)*%
X-27940000Y-67900000D03*
%TD*%
D16*
%TO.P,R1,1*%
%TO.N,Net-(J12-Pin_15)*%
X82000000Y-39840000D03*
%TO.P,R1,2*%
%TO.N,Net-(R1-Pad2)*%
X82000000Y-50000000D03*
%TD*%
D38*
%TO.P,BT1,1,+*%
%TO.N,Net-(BT1-+)*%
X-34100000Y-4300000D03*
%TO.P,BT1,2,-*%
%TO.N,Net-(BT1--)*%
X-34100000Y-33600000D03*
%TD*%
D39*
%TO.P,J9,1,Pin_1*%
%TO.N,Net-(J9-Pin_1)*%
X130000000Y-101000000D03*
D29*
%TO.P,J9,2,Pin_2*%
%TO.N,Net-(J9-Pin_2)*%
X124920000Y-101000000D03*
%TD*%
D40*
%TO.P,D4,1,K*%
%TO.N,Net-(D12-A)*%
X122000000Y-66060000D03*
D24*
%TO.P,D4,2,A*%
%TO.N,Net-(D4-A)*%
X122000000Y-55900000D03*
%TD*%
D16*
%TO.P,R23,1*%
%TO.N,Net-(J13-Pin_8)*%
X202000000Y-37740000D03*
%TO.P,R23,2*%
%TO.N,Net-(R23-Pad2)*%
X202000000Y-47900000D03*
%TD*%
%TO.P,C12,1*%
%TO.N,Net-(J3-Pin_1)*%
X-17400000Y-74500000D03*
%TO.P,C12,2*%
%TO.N,Net-(D19-A)*%
X-14900000Y-74500000D03*
%TD*%
D40*
%TO.P,D6,1,K*%
%TO.N,Net-(D12-A)*%
X202000000Y-65500000D03*
D24*
%TO.P,D6,2,A*%
%TO.N,Net-(D6-A)*%
X202000000Y-55340000D03*
%TD*%
D16*
%TO.P,R21,1*%
%TO.N,Net-(Q7-E)*%
X-19700000Y-39100000D03*
%TO.P,R21,2*%
%TO.N,Net-(D19-A)*%
X-19700000Y-26400000D03*
%TD*%
D39*
%TO.P,J10,1,Pin_1*%
%TO.N,Net-(J10-Pin_1)*%
X170000000Y-101000000D03*
D29*
%TO.P,J10,2,Pin_2*%
%TO.N,Net-(J10-Pin_2)*%
X164920000Y-101000000D03*
%TD*%
D16*
%TO.P,R3,1*%
%TO.N,Net-(Q1-E)*%
X87800000Y-64300000D03*
%TO.P,R3,2*%
%TO.N,Net-(D19-A)*%
X100500000Y-64300000D03*
%TD*%
D20*
%TO.P,C2,1*%
%TO.N,Net-(D12-A)*%
X34000000Y-96000000D03*
%TO.P,C2,2*%
%TO.N,Net-(D19-A)*%
X34000000Y-103500000D03*
%TD*%
D41*
%TO.P,D19,1,K*%
%TO.N,Net-(D1-K)*%
X-41040000Y-99900000D03*
D24*
%TO.P,D19,2,A*%
%TO.N,Net-(D19-A)*%
X-51200000Y-99900000D03*
%TD*%
D40*
%TO.P,D10,1,K*%
%TO.N,Net-(D10-K)*%
X68360000Y-25100000D03*
D24*
%TO.P,D10,2,A*%
%TO.N,Net-(D10-A)*%
X68360000Y-14940000D03*
%TD*%
D40*
%TO.P,D2,1,K*%
%TO.N,Net-(D2-K)*%
X42260000Y-25100000D03*
D24*
%TO.P,D2,2,A*%
%TO.N,Net-(D2-A)*%
X42260000Y-14940000D03*
%TD*%
D31*
%TO.P,F1,1*%
%TO.N,Net-(J1-Pin_2)*%
X-33600000Y-106250000D03*
%TO.P,F1,2*%
%TO.N,Net-(D1-A)*%
X-33600000Y-83750000D03*
%TD*%
D17*
%TO.P,Q1,1,E*%
%TO.N,Net-(Q1-E)*%
X88900000Y-57300000D03*
D18*
%TO.P,Q1,2,B*%
%TO.N,Net-(Q1-B)*%
X90170000Y-56030000D03*
%TO.P,Q1,3,C*%
%TO.N,Net-(D3-A)*%
X91440000Y-57300000D03*
%TD*%
D33*
%TO.P,J2,1,Pin_1*%
%TO.N,Net-(J2-Pin_1)*%
X-60000000Y-79400000D03*
D29*
%TO.P,J2,2,Pin_2*%
%TO.N,Net-(D19-A)*%
X-60000000Y-84480000D03*
%TD*%
D40*
%TO.P,D8,1,K*%
%TO.N,Net-(D8-K)*%
X51260000Y-25100000D03*
D24*
%TO.P,D8,2,A*%
%TO.N,Net-(D8-A)*%
X51260000Y-14940000D03*
%TD*%
D16*
%TO.P,C1,1*%
%TO.N,Net-(U5-VO)*%
X30700000Y-2100000D03*
%TO.P,C1,2*%
%TO.N,Net-(D19-A)*%
X28200000Y-2100000D03*
%TD*%
%TO.P,R25,1*%
%TO.N,Net-(U12-SDA)*%
X35100000Y-48000000D03*
%TO.P,R25,2*%
%TO.N,Net-(J12-Pin_11)*%
X35100000Y-37840000D03*
%TD*%
D21*
%TO.P,U10,1,GND*%
%TO.N,Net-(D19-A)*%
X12200000Y-65700000D03*
D22*
%TO.P,U10,2,VO*%
%TO.N,Net-(J14-Pin_1)*%
X9660000Y-65700000D03*
%TO.P,U10,3,VI*%
%TO.N,Net-(J15-Pin_2)*%
X7120000Y-65700000D03*
%TD*%
D21*
%TO.P,U5,1,VI*%
%TO.N,Net-(U13-GND)*%
X24900000Y-8600000D03*
D22*
%TO.P,U5,2,GND*%
%TO.N,Net-(D19-A)*%
X27440000Y-8600000D03*
%TO.P,U5,3,VO*%
%TO.N,Net-(U5-VO)*%
X29980000Y-8600000D03*
%TD*%
D31*
%TO.P,K3,1*%
%TO.N,Net-(J10-Pin_2)*%
X162000000Y-80450000D03*
D32*
%TO.P,K3,2*%
%TO.N,Net-(D5-A)*%
X163950000Y-86500000D03*
D31*
%TO.P,K3,3*%
%TO.N,Net-(J10-Pin_1)*%
X176150000Y-86500000D03*
%TO.P,K3,4*%
%TO.N,unconnected-(K3-Pad4)*%
X176200000Y-74450000D03*
D32*
%TO.P,K3,5*%
%TO.N,Net-(D12-A)*%
X163950000Y-74500000D03*
%TD*%
D40*
%TO.P,D9,1,K*%
%TO.N,Net-(D9-K)*%
X59760000Y-25100000D03*
D24*
%TO.P,D9,2,A*%
%TO.N,Net-(D9-A)*%
X59760000Y-14940000D03*
%TD*%
D28*
%TO.P,J7,1,Pin_1*%
%TO.N,Net-(J14-Pin_1)*%
X150920000Y1400000D03*
D29*
%TO.P,J7,2,Pin_2*%
%TO.N,Net-(D10-K)*%
X156000000Y1400000D03*
%TD*%
D39*
%TO.P,J11,1,Pin_1*%
%TO.N,Net-(J11-Pin_1)*%
X210000000Y-101000000D03*
D29*
%TO.P,J11,2,Pin_2*%
%TO.N,Net-(J11-Pin_2)*%
X204920000Y-101000000D03*
%TD*%
D16*
%TO.P,R6,1*%
%TO.N,Net-(D12-A)*%
X130600000Y-20140000D03*
%TO.P,R6,2*%
%TO.N,Net-(R6-Pad2)*%
X130600000Y-30300000D03*
%TD*%
D40*
%TO.P,D3,1,K*%
%TO.N,Net-(D12-A)*%
X82000000Y-67160000D03*
D24*
%TO.P,D3,2,A*%
%TO.N,Net-(D3-A)*%
X82000000Y-57000000D03*
%TD*%
D40*
%TO.P,D13,1,K*%
%TO.N,Net-(D13-K)*%
X-15220000Y-9620000D03*
D24*
%TO.P,D13,2,A*%
%TO.N,Net-(D13-A)*%
X-15220000Y540000D03*
%TD*%
D16*
%TO.P,R7,1*%
%TO.N,Net-(Q3-E)*%
X168800000Y-66200000D03*
%TO.P,R7,2*%
%TO.N,Net-(D19-A)*%
X181500000Y-66200000D03*
%TD*%
D37*
%TO.P,D1,1,K*%
%TO.N,Net-(D1-K)*%
X-38200000Y-74800000D03*
D24*
%TO.P,D1,2,A*%
%TO.N,Net-(D1-A)*%
X-28040000Y-74800000D03*
%TD*%
D16*
%TO.P,R2,1*%
%TO.N,Net-(BT1--)*%
X49500000Y-104900000D03*
%TO.P,R2,2*%
%TO.N,Net-(J13-Pin_4)*%
X49500000Y-94740000D03*
%TD*%
%TO.P,C14,1*%
%TO.N,Net-(J14-Pin_1)*%
X11400000Y-59800000D03*
%TO.P,C14,2*%
%TO.N,Net-(D19-A)*%
X13900000Y-59800000D03*
%TD*%
%TO.P,R24,1*%
%TO.N,Net-(J12-Pin_11)*%
X27500000Y-37840000D03*
%TO.P,R24,2*%
%TO.N,Net-(U12-SCL)*%
X27500000Y-48000000D03*
%TD*%
%TO.P,R17,1*%
%TO.N,Net-(J15-Pin_5)*%
X59760000Y1910000D03*
%TO.P,R17,2*%
%TO.N,Net-(D9-A)*%
X59760000Y-8250000D03*
%TD*%
D31*
%TO.P,K1,1*%
%TO.N,Net-(J8-Pin_2)*%
X82000000Y-80700000D03*
D32*
%TO.P,K1,2*%
%TO.N,Net-(D3-A)*%
X83950000Y-86750000D03*
D31*
%TO.P,K1,3*%
%TO.N,Net-(J8-Pin_1)*%
X96150000Y-86750000D03*
%TO.P,K1,4*%
%TO.N,unconnected-(K1-Pad4)*%
X96200000Y-74700000D03*
D32*
%TO.P,K1,5*%
%TO.N,Net-(D12-A)*%
X83950000Y-74750000D03*
%TD*%
D17*
%TO.P,Q3,1,E*%
%TO.N,Net-(Q3-E)*%
X169260000Y-58600000D03*
D18*
%TO.P,Q3,2,B*%
%TO.N,Net-(Q3-B)*%
X170530000Y-57330000D03*
%TO.P,Q3,3,C*%
%TO.N,Net-(D5-A)*%
X171800000Y-58600000D03*
%TD*%
D16*
%TO.P,R20,1*%
%TO.N,Net-(J13-Pin_6)*%
X122000000Y-36840000D03*
%TO.P,R20,2*%
%TO.N,Net-(R20-Pad2)*%
X122000000Y-47000000D03*
%TD*%
%TO.P,R27,1*%
%TO.N,Net-(J15-Pin_4)*%
X51460000Y2210000D03*
%TO.P,R27,2*%
%TO.N,Net-(D8-A)*%
X51460000Y-7950000D03*
%TD*%
%TO.P,R5,1*%
%TO.N,Net-(Q2-E)*%
X128400000Y-64800000D03*
%TO.P,R5,2*%
%TO.N,Net-(D19-A)*%
X141100000Y-64800000D03*
%TD*%
%TO.P,R9,1*%
%TO.N,Net-(Q4-E)*%
X206700000Y-64700000D03*
%TO.P,R9,2*%
%TO.N,Net-(D19-A)*%
X219400000Y-64700000D03*
%TD*%
%TO.P,R14,1*%
%TO.N,Net-(R14-Pad1)*%
X216800000Y-48720000D03*
%TO.P,R14,2*%
%TO.N,Net-(Q4-B)*%
X216800000Y-58880000D03*
%TD*%
D42*
%TO.P,R29,1*%
%TO.N,Net-(K6-Pad3)*%
X-60000000Y2740000D03*
%TO.P,R29,2*%
%TO.N,Net-(J2-Pin_1)*%
X-60000000Y-63300000D03*
%TD*%
D16*
%TO.P,R12,1*%
%TO.N,Net-(R12-Pad1)*%
X139500000Y-48740000D03*
%TO.P,R12,2*%
%TO.N,Net-(Q2-B)*%
X139500000Y-58900000D03*
%TD*%
%TO.P,C9,1*%
%TO.N,Net-(D12-A)*%
X-9200000Y-79000000D03*
%TO.P,C9,2*%
%TO.N,Net-(D19-A)*%
X-11700000Y-79000000D03*
%TD*%
D39*
%TO.P,J8,1,Pin_1*%
%TO.N,Net-(J8-Pin_1)*%
X90000000Y-101000000D03*
D29*
%TO.P,J8,2,Pin_2*%
%TO.N,Net-(J8-Pin_2)*%
X84920000Y-101000000D03*
%TD*%
D28*
%TO.P,J3,1,Pin_1*%
%TO.N,Net-(J3-Pin_1)*%
X84620000Y2200000D03*
D29*
%TO.P,J3,2,Pin_2*%
%TO.N,Net-(J13-Pin_4)*%
X89700000Y2200000D03*
%TD*%
D16*
%TO.P,C11,1*%
%TO.N,Net-(J15-Pin_2)*%
X5400000Y-74500000D03*
%TO.P,C11,2*%
%TO.N,Net-(D19-A)*%
X7900000Y-74500000D03*
%TD*%
%TO.P,R13,1*%
%TO.N,Net-(R13-Pad1)*%
X178200000Y-50040000D03*
%TO.P,R13,2*%
%TO.N,Net-(Q3-B)*%
X178200000Y-60200000D03*
%TD*%
D20*
%TO.P,C4,1*%
%TO.N,Net-(D12-A)*%
X11000000Y-96000000D03*
%TO.P,C4,2*%
%TO.N,Net-(D19-A)*%
X11000000Y-103500000D03*
%TD*%
D43*
%TO.P,K6,1*%
%TO.N,Net-(D1-A)*%
X-34900000Y-59500000D03*
D44*
%TO.P,K6,2*%
%TO.N,Net-(D16-A)*%
X-28900000Y-57500000D03*
%TO.P,K6,3*%
%TO.N,Net-(K6-Pad3)*%
X-28900000Y-45300000D03*
%TO.P,K6,4*%
%TO.N,unconnected-(K6-Pad4)*%
X-40900000Y-45300000D03*
%TO.P,K6,5*%
%TO.N,Net-(D1-K)*%
X-40900000Y-57500000D03*
%TD*%
D21*
%TO.P,U9,1,GND*%
%TO.N,Net-(D19-A)*%
X12200000Y-85000000D03*
D22*
%TO.P,U9,2,VO*%
%TO.N,Net-(J3-Pin_1)*%
X9660000Y-85000000D03*
%TO.P,U9,3,VI*%
%TO.N,Net-(J15-Pin_2)*%
X7120000Y-85000000D03*
%TD*%
D17*
%TO.P,Q4,1,E*%
%TO.N,Net-(Q4-E)*%
X207460000Y-56900000D03*
D18*
%TO.P,Q4,2,B*%
%TO.N,Net-(Q4-B)*%
X208730000Y-55630000D03*
%TO.P,Q4,3,C*%
%TO.N,Net-(D6-A)*%
X210000000Y-56900000D03*
%TD*%
D16*
%TO.P,R28,1*%
%TO.N,Net-(J15-Pin_3)*%
X42460000Y2410000D03*
%TO.P,R28,2*%
%TO.N,Net-(D2-A)*%
X42460000Y-7750000D03*
%TD*%
D28*
%TO.P,J5,1,Pin_1*%
%TO.N,Net-(J14-Pin_1)*%
X122740000Y1600000D03*
D29*
%TO.P,J5,2,Pin_2*%
%TO.N,Net-(D9-K)*%
X127820000Y1600000D03*
%TD*%
D16*
%TO.P,R18,1*%
%TO.N,Net-(D12-K)*%
X2400000Y-24100000D03*
%TO.P,R18,2*%
%TO.N,Net-(R18-Pad2)*%
X-10300000Y-24100000D03*
%TD*%
D40*
%TO.P,D5,1,K*%
%TO.N,Net-(D12-A)*%
X162000000Y-66360000D03*
D24*
%TO.P,D5,2,A*%
%TO.N,Net-(D5-A)*%
X162000000Y-56200000D03*
%TD*%
D16*
%TO.P,C7,1*%
%TO.N,Net-(D12-A)*%
X-9100000Y-60400000D03*
%TO.P,C7,2*%
%TO.N,Net-(D19-A)*%
X-11600000Y-60400000D03*
%TD*%
%TO.P,R11,1*%
%TO.N,Net-(Q1-B)*%
X101000000Y-58300000D03*
%TO.P,R11,2*%
%TO.N,Net-(R11-Pad2)*%
X101000000Y-48140000D03*
%TD*%
D31*
%TO.P,K4,1*%
%TO.N,Net-(J11-Pin_2)*%
X202000000Y-80450000D03*
D32*
%TO.P,K4,2*%
%TO.N,Net-(D6-A)*%
X203950000Y-86500000D03*
D31*
%TO.P,K4,3*%
%TO.N,Net-(J11-Pin_1)*%
X216150000Y-86500000D03*
%TO.P,K4,4*%
%TO.N,unconnected-(K4-Pad4)*%
X216200000Y-74450000D03*
D32*
%TO.P,K4,5*%
%TO.N,Net-(D12-A)*%
X203950000Y-74500000D03*
%TD*%
D16*
%TO.P,R16,1*%
%TO.N,Net-(J15-Pin_6)*%
X67660000Y2210000D03*
%TO.P,R16,2*%
%TO.N,Net-(D10-A)*%
X67660000Y-7950000D03*
%TD*%
D20*
%TO.P,C6,1*%
%TO.N,Net-(J12-Pin_11)*%
X28600000Y-81500000D03*
%TO.P,C6,2*%
%TO.N,Net-(D19-A)*%
X28600000Y-74000000D03*
%TD*%
D45*
%TO.N,Net-(D19-A)*%
X200480300Y-41238300D03*
X46848900Y-44718200D03*
%TO.N,Net-(R1-Pad2)*%
X93622000Y-47276100D03*
%TO.N,Net-(J13-Pin_6)*%
X75301400Y-47008500D03*
%TO.N,Net-(J12-Pin_15)*%
X47946600Y-44418600D03*
%TO.N,Net-(D9-K)*%
X125416000Y-23160500D03*
%TO.N,Net-(J13-Pin_4)*%
X50543500Y-79799500D03*
%TO.N,Net-(D8-K)*%
X74502700Y-19770300D03*
%TO.N,Net-(D2-K)*%
X67637700Y-32103500D03*
X140390500Y-23160500D03*
%TO.N,Net-(J14-Pin_1)*%
X12244400Y-25873700D03*
%TO.N,Net-(J3-Pin_1)*%
X14604700Y-20179500D03*
%TO.N,Net-(J13-Pin_5)*%
X71507800Y-91723500D03*
X78886200Y-3858700D03*
%TO.N,Net-(J15-Pin_2)*%
X194298700Y7048900D03*
X8614900Y-1401500D03*
%TO.N,Net-(J12-Pin_9)*%
X2625100Y-55951500D03*
%TO.N,Net-(J13-Pin_3)*%
X30118700Y-83165900D03*
%TO.N,Net-(D12-A)*%
X5620000Y-58221000D03*
%TO.N,Net-(BT1-+)*%
X-36224600Y-44097600D03*
%TO.N,Net-(BT1--)*%
X58845400Y-50889300D03*
X-33332300Y-50008000D03*
%TO.N,Net-(K6-Pad3)*%
X-30318800Y-2293500D03*
%TO.N,Net-(J2-Pin_1)*%
X-6359600Y-61913500D03*
%TO.N,Net-(D16-A)*%
X-21334100Y-53840500D03*
%TD*%
D46*
%TO.N,Net-(D9-K)*%
X125416000Y-23160500D02*
X123500000Y-21244500D01*
X123500000Y-21244500D02*
X123500000Y-2720000D01*
X123500000Y-2720000D02*
X127820000Y1600000D01*
X71900000Y-62480000D02*
X66200000Y-56780000D01*
X66200000Y-56780000D02*
X66200000Y-31540000D01*
X66200000Y-31540000D02*
X59760000Y-25100000D01*
%TO.N,Net-(D19-A)*%
X192500000Y2600000D02*
X187000000Y-2900000D01*
X187000000Y-2900000D02*
X187000000Y-27758000D01*
X187000000Y-27758000D02*
X200480300Y-41238300D01*
%TO.N,Net-(D9-A)*%
X59760000Y-14940000D02*
X59760000Y-8250000D01*
%TO.N,Net-(D8-A)*%
X51260000Y-8150000D02*
X51260000Y-14940000D01*
X51460000Y-7950000D02*
X51260000Y-8150000D01*
%TO.N,Net-(D2-A)*%
X42460000Y-14740000D02*
X42460000Y-7750000D01*
X42260000Y-14940000D02*
X42460000Y-14740000D01*
%TO.N,Net-(D19-A)*%
X13454200Y-60245800D02*
X13900000Y-59800000D01*
X13454200Y-65700000D02*
X13454200Y-60245800D01*
X11400000Y-82898300D02*
X11400000Y-79000000D01*
X12200000Y-83698300D02*
X11400000Y-82898300D01*
X12200000Y-85000000D02*
X12200000Y-83698300D01*
X12302400Y-86404100D02*
X12200000Y-86301700D01*
X12302400Y-102197600D02*
X12302400Y-86404100D01*
X11000000Y-103500000D02*
X12302400Y-102197600D01*
X12200000Y-85000000D02*
X12200000Y-86301700D01*
X-49300000Y-98000000D02*
X-49300000Y-92800000D01*
X-51200000Y-99900000D02*
X-49300000Y-98000000D01*
X27440000Y-2860000D02*
X27440000Y-8600000D01*
X28200000Y-2100000D02*
X27440000Y-2860000D01*
X-60000000Y-84480000D02*
X-60000000Y-94000000D01*
X24900000Y-25900000D02*
X24900000Y-20400000D01*
X24300000Y-26500000D02*
X24900000Y-25900000D01*
X26154200Y-8631600D02*
X26185800Y-8600000D01*
X26154200Y-20400000D02*
X26154200Y-8631600D01*
X27440000Y-8600000D02*
X26185800Y-8600000D01*
X24900000Y-20400000D02*
X26154200Y-20400000D01*
X96175000Y-59975000D02*
X100500000Y-64300000D01*
X96175000Y-44350000D02*
X96175000Y-59975000D01*
X-7340000Y3840000D02*
X-10000000Y6500000D01*
X-7340000Y-4100000D02*
X-7340000Y3840000D01*
X12200000Y-65700000D02*
X12827100Y-65700000D01*
X12827100Y-65700000D02*
X13454200Y-65700000D01*
X12827100Y-77572900D02*
X11400000Y-79000000D01*
X12827100Y-65700000D02*
X12827100Y-77572900D01*
X-11700000Y-79000000D02*
X-13240000Y-79000000D01*
X-13240000Y-79000000D02*
X-13240000Y-85000000D01*
X211605000Y-56905000D02*
X219400000Y-64700000D01*
X211605000Y-43550000D02*
X211605000Y-56905000D01*
X-14950000Y-31150000D02*
X-14950000Y-60400000D01*
X-19700000Y-26400000D02*
X-14950000Y-31150000D01*
X-14494200Y-60855800D02*
X-14494200Y-65700000D01*
X-14950000Y-60400000D02*
X-14494200Y-60855800D01*
X-13240000Y-76160000D02*
X-13240000Y-79000000D01*
X-14900000Y-74500000D02*
X-13240000Y-76160000D01*
X-13240000Y-65700000D02*
X-13742000Y-65700000D01*
X-13742000Y-65700000D02*
X-14494200Y-65700000D01*
X-13742000Y-73342000D02*
X-14900000Y-74500000D01*
X-13742000Y-65700000D02*
X-13742000Y-73342000D01*
X46848900Y-45281400D02*
X46848900Y-44718200D01*
X47846500Y-46279000D02*
X46848900Y-45281400D01*
X47846500Y-48473500D02*
X47846500Y-46279000D01*
X46500000Y-49820000D02*
X47846500Y-48473500D01*
%TO.N,Net-(U13-GND)*%
X280000Y4080000D02*
X280000Y-4100000D01*
X2700000Y6500000D02*
X280000Y4080000D01*
%TO.N,Net-(D12-K)*%
X8180000Y-14660000D02*
X8180000Y-9620000D01*
X2400000Y-13840000D02*
X280000Y-11720000D01*
X2400000Y-24100000D02*
X2400000Y-13840000D01*
%TO.N,Net-(D10-K)*%
X68360000Y-53860000D02*
X68360000Y-25100000D01*
X71900000Y-57400000D02*
X68360000Y-53860000D01*
%TO.N,Net-(R14-Pad1)*%
X216800000Y-41125000D02*
X211605000Y-35930000D01*
X216800000Y-48720000D02*
X216800000Y-41125000D01*
%TO.N,Net-(R13-Pad1)*%
X178200000Y-43655000D02*
X172375000Y-37830000D01*
X178200000Y-50040000D02*
X178200000Y-43655000D01*
%TO.N,Net-(R12-Pad1)*%
X139500000Y-43155000D02*
X132475000Y-36130000D01*
X139500000Y-48740000D02*
X139500000Y-43155000D01*
%TO.N,Net-(R11-Pad2)*%
X101000000Y-41555000D02*
X96175000Y-36730000D01*
X101000000Y-48140000D02*
X101000000Y-41555000D01*
%TO.N,Net-(R8-Pad2)*%
X169835000Y-34535000D02*
X165500000Y-30200000D01*
X169835000Y-37830000D02*
X169835000Y-34535000D01*
%TO.N,Net-(R6-Pad2)*%
X129935000Y-30965000D02*
X130600000Y-30300000D01*
X129935000Y-36130000D02*
X129935000Y-30965000D01*
%TO.N,Net-(R4-Pad2)*%
X93635000Y-33435000D02*
X93635000Y-36730000D01*
X90500000Y-30300000D02*
X93635000Y-33435000D01*
%TO.N,Net-(R1-Pad2)*%
X93622000Y-44363000D02*
X93622000Y-47276100D01*
X93635000Y-44350000D02*
X93622000Y-44363000D01*
%TO.N,Net-(Q4-E)*%
X207460000Y-63940000D02*
X206700000Y-64700000D01*
X207460000Y-56900000D02*
X207460000Y-63940000D01*
%TO.N,Net-(Q3-E)*%
X169260000Y-65740000D02*
X169260000Y-58600000D01*
X168800000Y-66200000D02*
X169260000Y-65740000D01*
%TO.N,Net-(Q2-E)*%
X129160000Y-64040000D02*
X128400000Y-64800000D01*
X129160000Y-56200000D02*
X129160000Y-64040000D01*
%TO.N,Net-(Q1-E)*%
X88900000Y-63200000D02*
X88900000Y-57300000D01*
X87800000Y-64300000D02*
X88900000Y-63200000D01*
%TO.N,Net-(J13-Pin_6)*%
X75301400Y-66698600D02*
X75301400Y-47008500D01*
X71900000Y-70100000D02*
X75301400Y-66698600D01*
%TO.N,Net-(J12-Pin_15)*%
X48289400Y-73894600D02*
X48112900Y-73718100D01*
X48289400Y-81050600D02*
X48289400Y-73894600D01*
X46500000Y-82840000D02*
X48289400Y-81050600D01*
X48112900Y-73718100D02*
X47946600Y-73551800D01*
X48112900Y-73718100D02*
X47946600Y-73551800D01*
X48289400Y-45953700D02*
X48112900Y-45777200D01*
X48289400Y-73209000D02*
X48289400Y-45953700D01*
X47946600Y-73551800D02*
X48289400Y-73209000D01*
X47946600Y-45610900D02*
X47946600Y-44418600D01*
X48112900Y-45777200D02*
X47946600Y-45610900D01*
X48112900Y-45777200D02*
X47946600Y-45610900D01*
%TO.N,Net-(J11-Pin_2)*%
X202000000Y-98080000D02*
X204920000Y-101000000D01*
X202000000Y-80450000D02*
X202000000Y-98080000D01*
%TO.N,Net-(J11-Pin_1)*%
X210000000Y-92650000D02*
X216150000Y-86500000D01*
X210000000Y-101000000D02*
X210000000Y-92650000D01*
%TO.N,Net-(J10-Pin_1)*%
X170000000Y-92650000D02*
X170000000Y-101000000D01*
X176150000Y-86500000D02*
X170000000Y-92650000D01*
%TO.N,Net-(J10-Pin_2)*%
X162000000Y-98080000D02*
X162000000Y-80450000D01*
X164920000Y-101000000D02*
X162000000Y-98080000D01*
%TO.N,Net-(J9-Pin_1)*%
X130000000Y-92650000D02*
X136150000Y-86500000D01*
X130000000Y-101000000D02*
X130000000Y-92650000D01*
%TO.N,Net-(J9-Pin_2)*%
X122000000Y-98080000D02*
X124920000Y-101000000D01*
X122000000Y-80450000D02*
X122000000Y-98080000D01*
%TO.N,Net-(J8-Pin_1)*%
X90000000Y-92900000D02*
X96150000Y-86750000D01*
X90000000Y-101000000D02*
X90000000Y-92900000D01*
%TO.N,Net-(J8-Pin_2)*%
X82000000Y-98080000D02*
X84920000Y-101000000D01*
X82000000Y-80700000D02*
X82000000Y-98080000D01*
%TO.N,Net-(D6-A)*%
X210000000Y-80450000D02*
X203950000Y-86500000D01*
X210000000Y-56900000D02*
X210000000Y-80450000D01*
%TO.N,Net-(D5-A)*%
X165527100Y-59727100D02*
X162000000Y-56200000D01*
X165527100Y-84922900D02*
X165527100Y-59727100D01*
X163950000Y-86500000D02*
X165527100Y-84922900D01*
%TO.N,Net-(D4-A)*%
X131700000Y-78750000D02*
X131700000Y-56200000D01*
X123950000Y-86500000D02*
X131700000Y-78750000D01*
%TO.N,Net-(D3-A)*%
X85543700Y-85156300D02*
X83950000Y-86750000D01*
X85543700Y-60543700D02*
X85543700Y-85156300D01*
X82000000Y-57000000D02*
X85543700Y-60543700D01*
%TO.N,Net-(J13-Pin_4)*%
X78219300Y-9280700D02*
X89700000Y2200000D01*
X78219300Y-68860700D02*
X78219300Y-9280700D01*
X71900000Y-75180000D02*
X78219300Y-68860700D01*
X49500000Y-80843000D02*
X50543500Y-79799500D01*
X49500000Y-94740000D02*
X49500000Y-80843000D01*
%TO.N,Net-(D8-K)*%
X74502700Y-49717300D02*
X74502700Y-19770300D01*
X71900000Y-52320000D02*
X74502700Y-49717300D01*
%TO.N,Net-(D2-K)*%
X67637700Y-55677700D02*
X67637700Y-32103500D01*
X71900000Y-59940000D02*
X67637700Y-55677700D01*
X142020000Y-21531000D02*
X140390500Y-23160500D01*
X142020000Y1400000D02*
X142020000Y-21531000D01*
%TO.N,Net-(J14-Pin_1)*%
X9660000Y-61540000D02*
X9660000Y-65700000D01*
X11400000Y-59800000D02*
X9660000Y-61540000D01*
X11400000Y-59797900D02*
X11400000Y-59800000D01*
X12294100Y-58903800D02*
X11400000Y-59797900D01*
X12294100Y-25923400D02*
X12294100Y-58903800D01*
X12244400Y-25873700D02*
X12294100Y-25923400D01*
%TO.N,Net-(J3-Pin_1)*%
X9660000Y-77896100D02*
X9660000Y-85000000D01*
X10930100Y-76626000D02*
X9660000Y-77896100D01*
X10930100Y-62667200D02*
X10930100Y-76626000D01*
X12650000Y-60947300D02*
X10930100Y-62667200D01*
X12650000Y-59115900D02*
X12650000Y-60947300D01*
X12874900Y-58891000D02*
X12650000Y-59115900D01*
X12874900Y-21909300D02*
X12874900Y-58891000D01*
X14604700Y-20179500D02*
X12874900Y-21909300D01*
%TO.N,Net-(J13-Pin_5)*%
X70597300Y-73942700D02*
X71900000Y-72640000D01*
X70597300Y-90813000D02*
X70597300Y-73942700D01*
X71507800Y-91723500D02*
X70597300Y-90813000D01*
X76260200Y-6484700D02*
X78886200Y-3858700D01*
X76260200Y-68279800D02*
X76260200Y-6484700D01*
X71900000Y-72640000D02*
X76260200Y-68279800D01*
%TO.N,Net-(J15-Pin_2)*%
X7120000Y-85000000D02*
X5865800Y-85000000D01*
X5500000Y-65334200D02*
X5865800Y-65700000D01*
X5500000Y-59800000D02*
X5500000Y-65334200D01*
X7120000Y-65700000D02*
X5865800Y-65700000D01*
X5865800Y-74732900D02*
X5632900Y-74500000D01*
X5865800Y-85000000D02*
X5865800Y-74732900D01*
X5632900Y-74500000D02*
X5400000Y-74500000D01*
X5632900Y-65932900D02*
X5865800Y-65700000D01*
X5632900Y-74500000D02*
X5632900Y-65932900D01*
X-17034200Y-60815800D02*
X-17450000Y-60400000D01*
X-17034200Y-65700000D02*
X-17034200Y-60815800D01*
X-15780000Y-65700000D02*
X-17034200Y-65700000D01*
X195040000Y6307600D02*
X194298700Y7048900D01*
X195040000Y2600000D02*
X195040000Y6307600D01*
X5001700Y-59301700D02*
X5500000Y-59800000D01*
X5001700Y-5014700D02*
X5001700Y-59301700D01*
X8614900Y-1401500D02*
X5001700Y-5014700D01*
%TO.N,Net-(J12-Pin_9)*%
X1800000Y-55126400D02*
X1800000Y-38900000D01*
X2625100Y-55951500D02*
X1800000Y-55126400D01*
%TO.N,Net-(J12-Pin_11)*%
X47846500Y-74026500D02*
X46500000Y-72680000D01*
X47846500Y-78953500D02*
X47846500Y-74026500D01*
X46500000Y-80300000D02*
X47846500Y-78953500D01*
X24259800Y-46939800D02*
X22820000Y-45500000D01*
X24259800Y-77159800D02*
X24259800Y-46939800D01*
X28600000Y-81500000D02*
X24259800Y-77159800D01*
%TO.N,Net-(J13-Pin_3)*%
X27440000Y-25860000D02*
X27440000Y-20400000D01*
X26800000Y-26500000D02*
X27440000Y-25860000D01*
X30118700Y-29818700D02*
X26800000Y-26500000D01*
X30118700Y-83165900D02*
X30118700Y-29818700D01*
%TO.N,Net-(D12-A)*%
X162000000Y-72550000D02*
X162000000Y-66360000D01*
X163950000Y-74500000D02*
X162000000Y-72550000D01*
X8180000Y-55661000D02*
X5620000Y-58221000D01*
X8180000Y-24820000D02*
X8180000Y-55661000D01*
X-9100000Y-65354200D02*
X-9445800Y-65700000D01*
X-9100000Y-60400000D02*
X-9100000Y-65354200D01*
X-9200000Y-66572900D02*
X-9200000Y-79000000D01*
X-10072900Y-65700000D02*
X-9200000Y-66572900D01*
X-10700000Y-65700000D02*
X-10072900Y-65700000D01*
X-10072900Y-65700000D02*
X-9445800Y-65700000D01*
X-11954200Y-94954200D02*
X-11954200Y-85000000D01*
X-13000000Y-96000000D02*
X-11954200Y-94954200D01*
X82000000Y-72800000D02*
X82000000Y-67160000D01*
X83950000Y-74750000D02*
X82000000Y-72800000D01*
X-44220000Y-67280000D02*
X-44220000Y-82640000D01*
X-47300000Y-64200000D02*
X-44220000Y-67280000D01*
X-10750000Y-85000000D02*
X-11954200Y-85000000D01*
X-10750000Y-85000000D02*
X-10700000Y-85000000D01*
X-9445800Y-79245800D02*
X-9200000Y-79000000D01*
X-9445800Y-85000000D02*
X-9445800Y-79245800D01*
X-10700000Y-85000000D02*
X-9445800Y-85000000D01*
X202000000Y-72550000D02*
X203950000Y-74500000D01*
X202000000Y-65500000D02*
X202000000Y-72550000D01*
X122000000Y-72550000D02*
X122000000Y-66060000D01*
X123950000Y-74500000D02*
X122000000Y-72550000D01*
X204172100Y-63327900D02*
X202000000Y-65500000D01*
X204172100Y-20667900D02*
X204172100Y-63327900D01*
X205300000Y-19540000D02*
X204172100Y-20667900D01*
%TO.N,Net-(D10-A)*%
X67660000Y-14240000D02*
X67660000Y-7950000D01*
X68360000Y-14940000D02*
X67660000Y-14240000D01*
%TO.N,Net-(BT1-+)*%
X-36224600Y-8026300D02*
X-36224600Y-44097600D01*
X-34100000Y-5901700D02*
X-36224600Y-8026300D01*
X-34100000Y-4300000D02*
X-34100000Y-5901700D01*
%TO.N,Net-(U5-VO)*%
X30700000Y-6578300D02*
X29980000Y-7298300D01*
X30700000Y-2100000D02*
X30700000Y-6578300D01*
X29980000Y-8600000D02*
X29980000Y-7298300D01*
X29980000Y-20400000D02*
X29980000Y-8600000D01*
%TO.N,Net-(BT1--)*%
X58845400Y-103514600D02*
X58845400Y-50889300D01*
X57500000Y-104860000D02*
X58845400Y-103514600D01*
X-34100000Y-49240300D02*
X-33332300Y-50008000D01*
X-34100000Y-33600000D02*
X-34100000Y-49240300D01*
%TO.N,Net-(Q7-E)*%
X-19700000Y-43548300D02*
X-19700000Y-39100000D01*
X-19470000Y-43778300D02*
X-19700000Y-43548300D01*
X-19470000Y-44730000D02*
X-19470000Y-43778300D01*
%TO.N,Net-(K6-Pad3)*%
X-28900000Y-3712300D02*
X-30318800Y-2293500D01*
X-28900000Y-45300000D02*
X-28900000Y-3712300D01*
%TO.N,Net-(J2-Pin_1)*%
X-60000000Y-63300000D02*
X-60000000Y-79400000D01*
X-3530000Y-5370000D02*
X-2260000Y-4100000D01*
X-3530000Y-59083900D02*
X-3530000Y-5370000D01*
X-6359600Y-61913500D02*
X-3530000Y-59083900D01*
%TO.N,Net-(D7-A)*%
X-47300000Y-83180000D02*
X-47300000Y-74360000D01*
X-49300000Y-85180000D02*
X-47300000Y-83180000D01*
%TO.N,Net-(D16-A)*%
X-27940000Y-60011700D02*
X-28900000Y-59051700D01*
X-27940000Y-67900000D02*
X-27940000Y-60011700D01*
X-28900000Y-57500000D02*
X-28900000Y-59051700D01*
X-21334100Y-49134100D02*
X-21334100Y-53840500D01*
X-19470000Y-47270000D02*
X-21334100Y-49134100D01*
%TO.N,Net-(D1-K)*%
X-44220000Y-96720000D02*
X-44220000Y-92800000D01*
X-41040000Y-99900000D02*
X-44220000Y-96720000D01*
X-38200000Y-68000000D02*
X-38200000Y-69551800D01*
X-38100000Y-67900000D02*
X-38200000Y-68000000D01*
X-38200000Y-69551800D02*
X-38200000Y-74800000D01*
X-38200000Y-61751700D02*
X-40900000Y-59051700D01*
X-38200000Y-69551800D02*
X-38200000Y-61751700D01*
X-40900000Y-57500000D02*
X-40900000Y-59051700D01*
X-45323200Y-86283200D02*
X-44220000Y-85180000D01*
X-45323200Y-91696800D02*
X-45323200Y-86283200D01*
X-44220000Y-92800000D02*
X-45323200Y-91696800D01*
X-38200000Y-79160000D02*
X-38200000Y-74800000D01*
X-44220000Y-85180000D02*
X-38200000Y-79160000D01*
%TO.N,Net-(D1-A)*%
X-33600000Y-62351700D02*
X-34900000Y-61051700D01*
X-33600000Y-83750000D02*
X-33600000Y-62351700D01*
X-34900000Y-59500000D02*
X-34900000Y-61051700D01*
%TD*%
M02*
