%TF.GenerationSoftware,KiCad,Pcbnew,9.0.9-9.0.9~ubuntu24.04.1*%
%TF.CreationDate,2026-08-30T22:08:18-06:00*%
%TF.ProjectId,Panel_PCB,50616e65-6c5f-4504-9342-2e6b69636164,rev?*%
%TF.SameCoordinates,Original*%
%TF.FileFunction,Soldermask,Bot*%
%TF.FilePolarity,Negative*%
%FSLAX46Y46*%
G04 Gerber Fmt 4.6, Leading zero omitted, Abs format (unit mm)*
G04 Created by KiCad (PCBNEW 9.0.9-9.0.9~ubuntu24.04.1) date 2026-08-30 22:08:18*
%MOMM*%
%LPD*%
G01*
G04 APERTURE LIST*
G04 Aperture macros list*
%AMRoundRect*
0 Rectangle with rounded corners*
0 $1 Rounding radius*
0 $2 $3 $4 $5 $6 $7 $8 $9 X,Y pos of 4 corners*
0 Add a 4 corners polygon primitive as box body*
4,1,4,$2,$3,$4,$5,$6,$7,$8,$9,$2,$3,0*
0 Add four circle primitives for the rounded corners*
1,1,$1+$1,$2,$3*
1,1,$1+$1,$4,$5*
1,1,$1+$1,$6,$7*
1,1,$1+$1,$8,$9*
0 Add four rect primitives between the rounded corners*
20,1,$1+$1,$2,$3,$4,$5,0*
20,1,$1+$1,$4,$5,$6,$7,0*
20,1,$1+$1,$6,$7,$8,$9,0*
20,1,$1+$1,$8,$9,$2,$3,0*%
G04 Aperture macros list end*
%ADD10C,3.800000*%
%ADD11RoundRect,0.250000X0.550000X-0.550000X0.550000X0.550000X-0.550000X0.550000X-0.550000X-0.550000X0*%
%ADD12C,1.600000*%
%ADD13R,1.300000X1.300000*%
%ADD14C,1.300000*%
%ADD15RoundRect,0.250000X-0.750000X0.750000X-0.750000X-0.750000X0.750000X-0.750000X0.750000X0.750000X0*%
%ADD16C,2.000000*%
%ADD17R,1.905000X2.000000*%
%ADD18O,1.905000X2.000000*%
%ADD19RoundRect,0.249999X-0.850001X0.850001X-0.850001X-0.850001X0.850001X-0.850001X0.850001X0.850001X0*%
%ADD20C,2.200000*%
%ADD21RoundRect,0.250000X-0.550000X0.550000X-0.550000X-0.550000X0.550000X-0.550000X0.550000X0.550000X0*%
%ADD22RoundRect,0.250000X-0.750000X-0.750000X0.750000X-0.750000X0.750000X0.750000X-0.750000X0.750000X0*%
%ADD23RoundRect,0.250000X-0.550000X-0.550000X0.550000X-0.550000X0.550000X0.550000X-0.550000X0.550000X0*%
%ADD24RoundRect,0.250000X-1.050000X-1.050000X1.050000X-1.050000X1.050000X1.050000X-1.050000X1.050000X0*%
%ADD25C,2.600000*%
%ADD26C,1.000000*%
%ADD27C,3.000000*%
%ADD28C,2.500000*%
%ADD29RoundRect,0.250000X-1.050000X1.050000X-1.050000X-1.050000X1.050000X-1.050000X1.050000X1.050000X0*%
%ADD30RoundRect,0.250500X0.499500X0.499500X-0.499500X0.499500X-0.499500X-0.499500X0.499500X-0.499500X0*%
%ADD31C,1.500000*%
%ADD32RoundRect,0.250000X0.750000X-0.750000X0.750000X0.750000X-0.750000X0.750000X-0.750000X-0.750000X0*%
%ADD33RoundRect,0.249999X-0.850001X-0.850001X0.850001X-0.850001X0.850001X0.850001X-0.850001X0.850001X0*%
%ADD34RoundRect,0.250000X1.050000X1.050000X-1.050000X1.050000X-1.050000X-1.050000X1.050000X-1.050000X0*%
%ADD35RoundRect,0.249999X0.850001X-0.850001X0.850001X0.850001X-0.850001X0.850001X-0.850001X-0.850001X0*%
%ADD36RoundRect,0.249999X0.850001X0.850001X-0.850001X0.850001X-0.850001X-0.850001X0.850001X-0.850001X0*%
%ADD37C,2.700000*%
%ADD38C,2.400000*%
%ADD39R,2.500000X2.500000*%
%ADD40O,2.500000X2.500000*%
G04 APERTURE END LIST*
D10*
%TO.C,h1*%
X-60700000Y-107500000D03*
%TD*%
%TO.C,h1*%
X-61000000Y10100000D03*
%TD*%
%TO.C,h1*%
X217500000Y-105500000D03*
%TD*%
%TO.C,h1*%
X216300000Y7300000D03*
%TD*%
D11*
%TO.C,U4*%
X209065000Y-43550000D03*
D12*
X211605000Y-43550000D03*
X211605000Y-35930000D03*
X209065000Y-35930000D03*
%TD*%
D11*
%TO.C,U3*%
X169835000Y-45450000D03*
D12*
X172375000Y-45450000D03*
X172375000Y-37830000D03*
X169835000Y-37830000D03*
%TD*%
D11*
%TO.C,U2*%
X129935000Y-43750000D03*
D12*
X132475000Y-43750000D03*
X132475000Y-36130000D03*
X129935000Y-36130000D03*
%TD*%
D11*
%TO.C,U1*%
X93635000Y-44350000D03*
D12*
X96175000Y-44350000D03*
X96175000Y-36730000D03*
X93635000Y-36730000D03*
%TD*%
D13*
%TO.C,Q2*%
X129160000Y-56200000D03*
D14*
X130430000Y-54930000D03*
X131700000Y-56200000D03*
%TD*%
D15*
%TO.C,J12*%
X46500000Y-47280000D03*
D16*
X46500000Y-49820000D03*
X46500000Y-52360000D03*
X46500000Y-54900000D03*
X46500000Y-57440000D03*
X46500000Y-59980000D03*
X46500000Y-62520000D03*
X46500000Y-65060000D03*
X46500000Y-67600000D03*
X46500000Y-70140000D03*
X46500000Y-72680000D03*
X46500000Y-75220000D03*
X46500000Y-77760000D03*
X46500000Y-80300000D03*
X46500000Y-82840000D03*
%TD*%
D12*
%TO.C,R19*%
X-10900000Y-38900000D03*
X1800000Y-38900000D03*
%TD*%
D17*
%TO.C,U7*%
X-10700000Y-65700000D03*
D18*
X-13240000Y-65700000D03*
X-15780000Y-65700000D03*
%TD*%
D19*
%TO.C,D7*%
X-47300000Y-64200000D03*
D20*
X-47300000Y-74360000D03*
%TD*%
D21*
%TO.C,U13*%
X280000Y-4100000D03*
D12*
X-2260000Y-4100000D03*
X-4800000Y-4100000D03*
X-7340000Y-4100000D03*
X-7340000Y-11720000D03*
X-4800000Y-11720000D03*
X-2260000Y-11720000D03*
X280000Y-11720000D03*
%TD*%
D19*
%TO.C,D12*%
X8180000Y-14660000D03*
D20*
X8180000Y-24820000D03*
%TD*%
D12*
%TO.C,R8*%
X165500000Y-20040000D03*
X165500000Y-30200000D03*
%TD*%
D17*
%TO.C,U8*%
X-10700000Y-85000000D03*
D18*
X-13240000Y-85000000D03*
X-15780000Y-85000000D03*
%TD*%
D22*
%TO.C,J15*%
X192500000Y2600000D03*
D16*
X195040000Y2600000D03*
X197580000Y2600000D03*
X200120000Y2600000D03*
X202660000Y2600000D03*
X205200000Y2600000D03*
X207740000Y2600000D03*
%TD*%
%TO.C,C5*%
X-13000000Y-96000000D03*
X-13000000Y-103500000D03*
%TD*%
D23*
%TO.C,U12*%
X15200000Y-45500000D03*
D12*
X15200000Y-48040000D03*
X15200000Y-50580000D03*
X15200000Y-53120000D03*
X22820000Y-53120000D03*
X22820000Y-50580000D03*
X22820000Y-48040000D03*
X22820000Y-45500000D03*
%TD*%
D24*
%TO.C,J4*%
X97540000Y2000000D03*
D25*
X102620000Y2000000D03*
%TD*%
D12*
%TO.C,R4*%
X90500000Y-20140000D03*
X90500000Y-30300000D03*
%TD*%
D26*
%TO.C,Y1*%
X11450000Y-42255000D03*
X9550000Y-42255000D03*
%TD*%
D27*
%TO.C,K2*%
X122000000Y-80450000D03*
D28*
X123950000Y-86500000D03*
D27*
X136150000Y-86500000D03*
X136200000Y-74450000D03*
D28*
X123950000Y-74500000D03*
%TD*%
D12*
%TO.C,R10*%
X205300000Y-19540000D03*
X205300000Y-29700000D03*
%TD*%
D29*
%TO.C,J1*%
X-60000000Y-94000000D03*
D25*
X-60000000Y-99080000D03*
%TD*%
D12*
%TO.C,C3*%
X26800000Y-26500000D03*
X24300000Y-26500000D03*
%TD*%
%TO.C,C8*%
X-17450000Y-60400000D03*
X-14950000Y-60400000D03*
%TD*%
%TO.C,C13*%
X5500000Y-59800000D03*
X8000000Y-59800000D03*
%TD*%
D19*
%TO.C,D14*%
X8180000Y540000D03*
D20*
X8180000Y-9620000D03*
%TD*%
D12*
%TO.C,R26*%
X2700000Y6500000D03*
X-10000000Y6500000D03*
%TD*%
D13*
%TO.C,Q7*%
X-19470000Y-44730000D03*
D14*
X-18200000Y-46000000D03*
X-19470000Y-47270000D03*
%TD*%
D24*
%TO.C,J14*%
X164820000Y1800000D03*
D25*
X169900000Y1800000D03*
%TD*%
D30*
%TO.C,K5*%
X-44220000Y-92800000D03*
D31*
X-44220000Y-87720000D03*
X-44220000Y-85180000D03*
X-44220000Y-82640000D03*
X-49300000Y-82640000D03*
X-49300000Y-85180000D03*
X-49300000Y-87720000D03*
X-49300000Y-92800000D03*
%TD*%
D12*
%TO.C,R15*%
X57500000Y-104860000D03*
X57500000Y-94700000D03*
%TD*%
D17*
%TO.C,U6*%
X24900000Y-20400000D03*
D18*
X27440000Y-20400000D03*
X29980000Y-20400000D03*
%TD*%
D12*
%TO.C,C10*%
X13900000Y-79000000D03*
X11400000Y-79000000D03*
%TD*%
%TO.C,R22*%
X162000000Y-39240000D03*
X162000000Y-49400000D03*
%TD*%
D24*
%TO.C,J6*%
X136940000Y1400000D03*
D25*
X142020000Y1400000D03*
%TD*%
D32*
%TO.C,J13*%
X71900000Y-82800000D03*
D16*
X71900000Y-80260000D03*
X71900000Y-77720000D03*
X71900000Y-75180000D03*
X71900000Y-72640000D03*
X71900000Y-70100000D03*
X71900000Y-67560000D03*
X71900000Y-65020000D03*
X71900000Y-62480000D03*
X71900000Y-59940000D03*
X71900000Y-57400000D03*
X71900000Y-54860000D03*
X71900000Y-52320000D03*
X71900000Y-49780000D03*
X71900000Y-47240000D03*
%TD*%
D33*
%TO.C,D16*%
X-38100000Y-67900000D03*
D20*
X-27940000Y-67900000D03*
%TD*%
D12*
%TO.C,R1*%
X82000000Y-39840000D03*
X82000000Y-50000000D03*
%TD*%
D34*
%TO.C,J9*%
X130000000Y-101000000D03*
D25*
X124920000Y-101000000D03*
%TD*%
D35*
%TO.C,D4*%
X122000000Y-66060000D03*
D20*
X122000000Y-55900000D03*
%TD*%
D12*
%TO.C,R23*%
X202000000Y-37740000D03*
X202000000Y-47900000D03*
%TD*%
%TO.C,C12*%
X-17400000Y-74500000D03*
X-14900000Y-74500000D03*
%TD*%
D35*
%TO.C,D6*%
X202000000Y-65500000D03*
D20*
X202000000Y-55340000D03*
%TD*%
D12*
%TO.C,R21*%
X-19700000Y-39100000D03*
X-19700000Y-26400000D03*
%TD*%
D34*
%TO.C,J10*%
X170000000Y-101000000D03*
D25*
X164920000Y-101000000D03*
%TD*%
D12*
%TO.C,R3*%
X87800000Y-64300000D03*
X100500000Y-64300000D03*
%TD*%
D16*
%TO.C,C2*%
X34000000Y-96000000D03*
X34000000Y-103500000D03*
%TD*%
D36*
%TO.C,D19*%
X-41040000Y-99900000D03*
D20*
X-51200000Y-99900000D03*
%TD*%
D35*
%TO.C,D10*%
X68360000Y-25100000D03*
D20*
X68360000Y-14940000D03*
%TD*%
D35*
%TO.C,D2*%
X42260000Y-25100000D03*
D20*
X42260000Y-14940000D03*
%TD*%
D37*
%TO.C,F1*%
X-33600000Y-95000000D03*
D27*
X-33600000Y-106250000D03*
X-33600000Y-83750000D03*
%TD*%
D13*
%TO.C,Q1*%
X88900000Y-57300000D03*
D14*
X90170000Y-56030000D03*
X91440000Y-57300000D03*
%TD*%
D29*
%TO.C,J2*%
X-60000000Y-79400000D03*
D25*
X-60000000Y-84480000D03*
%TD*%
D35*
%TO.C,D8*%
X51260000Y-25100000D03*
D20*
X51260000Y-14940000D03*
%TD*%
D12*
%TO.C,C1*%
X30700000Y-2100000D03*
X28200000Y-2100000D03*
%TD*%
%TO.C,R25*%
X35100000Y-48000000D03*
X35100000Y-37840000D03*
%TD*%
D17*
%TO.C,U10*%
X12200000Y-65700000D03*
D18*
X9660000Y-65700000D03*
X7120000Y-65700000D03*
%TD*%
D17*
%TO.C,U5*%
X24900000Y-8600000D03*
D18*
X27440000Y-8600000D03*
X29980000Y-8600000D03*
%TD*%
D27*
%TO.C,K3*%
X162000000Y-80450000D03*
D28*
X163950000Y-86500000D03*
D27*
X176150000Y-86500000D03*
X176200000Y-74450000D03*
D28*
X163950000Y-74500000D03*
%TD*%
D35*
%TO.C,D9*%
X59760000Y-25100000D03*
D20*
X59760000Y-14940000D03*
%TD*%
D24*
%TO.C,J7*%
X150920000Y1400000D03*
D25*
X156000000Y1400000D03*
%TD*%
D34*
%TO.C,J11*%
X210000000Y-101000000D03*
D25*
X204920000Y-101000000D03*
%TD*%
D12*
%TO.C,R6*%
X130600000Y-20140000D03*
X130600000Y-30300000D03*
%TD*%
D35*
%TO.C,D3*%
X82000000Y-67160000D03*
D20*
X82000000Y-57000000D03*
%TD*%
D35*
%TO.C,D13*%
X-15220000Y-9620000D03*
D20*
X-15220000Y540000D03*
%TD*%
D12*
%TO.C,R7*%
X168800000Y-66200000D03*
X181500000Y-66200000D03*
%TD*%
D33*
%TO.C,D1*%
X-38200000Y-74800000D03*
D20*
X-28040000Y-74800000D03*
%TD*%
D12*
%TO.C,R2*%
X49500000Y-104900000D03*
X49500000Y-94740000D03*
%TD*%
%TO.C,C14*%
X11400000Y-59800000D03*
X13900000Y-59800000D03*
%TD*%
%TO.C,R24*%
X27500000Y-37840000D03*
X27500000Y-48000000D03*
%TD*%
%TO.C,R17*%
X59760000Y1910000D03*
X59760000Y-8250000D03*
%TD*%
D27*
%TO.C,K1*%
X82000000Y-80700000D03*
D28*
X83950000Y-86750000D03*
D27*
X96150000Y-86750000D03*
X96200000Y-74700000D03*
D28*
X83950000Y-74750000D03*
%TD*%
D13*
%TO.C,Q3*%
X169260000Y-58600000D03*
D14*
X170530000Y-57330000D03*
X171800000Y-58600000D03*
%TD*%
D12*
%TO.C,R20*%
X122000000Y-36840000D03*
X122000000Y-47000000D03*
%TD*%
%TO.C,R27*%
X51460000Y2210000D03*
X51460000Y-7950000D03*
%TD*%
%TO.C,R5*%
X128400000Y-64800000D03*
X141100000Y-64800000D03*
%TD*%
%TO.C,R9*%
X206700000Y-64700000D03*
X219400000Y-64700000D03*
%TD*%
%TO.C,R14*%
X216800000Y-48720000D03*
X216800000Y-58880000D03*
%TD*%
D38*
%TO.C,R29*%
X-60000000Y2740000D03*
X-60000000Y-63300000D03*
%TD*%
D12*
%TO.C,R12*%
X139500000Y-48740000D03*
X139500000Y-58900000D03*
%TD*%
%TO.C,C9*%
X-9200000Y-79000000D03*
X-11700000Y-79000000D03*
%TD*%
D34*
%TO.C,J8*%
X90000000Y-101000000D03*
D25*
X84920000Y-101000000D03*
%TD*%
D24*
%TO.C,J3*%
X84620000Y2200000D03*
D25*
X89700000Y2200000D03*
%TD*%
D12*
%TO.C,C11*%
X5400000Y-74500000D03*
X7900000Y-74500000D03*
%TD*%
%TO.C,R13*%
X178200000Y-50040000D03*
X178200000Y-60200000D03*
%TD*%
D16*
%TO.C,C4*%
X11000000Y-96000000D03*
X11000000Y-103500000D03*
%TD*%
D39*
%TO.C,K6*%
X-34900000Y-59500000D03*
D40*
X-28900000Y-57500000D03*
X-28900000Y-45300000D03*
X-40900000Y-45300000D03*
X-40900000Y-57500000D03*
%TD*%
D17*
%TO.C,U9*%
X12200000Y-85000000D03*
D18*
X9660000Y-85000000D03*
X7120000Y-85000000D03*
%TD*%
D13*
%TO.C,Q4*%
X207460000Y-56900000D03*
D14*
X208730000Y-55630000D03*
X210000000Y-56900000D03*
%TD*%
D12*
%TO.C,R28*%
X42460000Y2410000D03*
X42460000Y-7750000D03*
%TD*%
D24*
%TO.C,J5*%
X122740000Y1600000D03*
D25*
X127820000Y1600000D03*
%TD*%
D12*
%TO.C,R18*%
X2400000Y-24100000D03*
X-10300000Y-24100000D03*
%TD*%
D35*
%TO.C,D5*%
X162000000Y-66360000D03*
D20*
X162000000Y-56200000D03*
%TD*%
D12*
%TO.C,C7*%
X-9100000Y-60400000D03*
X-11600000Y-60400000D03*
%TD*%
%TO.C,R11*%
X101000000Y-58300000D03*
X101000000Y-48140000D03*
%TD*%
D27*
%TO.C,K4*%
X202000000Y-80450000D03*
D28*
X203950000Y-86500000D03*
D27*
X216150000Y-86500000D03*
X216200000Y-74450000D03*
D28*
X203950000Y-74500000D03*
%TD*%
D12*
%TO.C,R16*%
X67660000Y2210000D03*
X67660000Y-7950000D03*
%TD*%
D16*
%TO.C,C6*%
X28600000Y-81500000D03*
X28600000Y-74000000D03*
%TD*%
M02*
